g Arrow
v -1.879136E-18 -0.9056607 0.5
v -0.4796914 0.05221985 0.5
v 0.4796914 0.05221985 0.5
v -0.4796914 0.05221985 -0.5
v 1.879136E-18 -0.9056607 -0.5
v 0.4796914 0.05221985 -0.5
v 0.007902537 -0.9194236 0.4492873
v -0.007902537 -0.9194236 0.4492873
v -1.879136E-18 -0.9056607 0.5
v -0.007902537 -0.9194236 -0.4492873
v 0.007902537 -0.9194236 -0.4492873
v 1.879136E-18 -0.9056607 -0.5
v -0.2175235 0.6352155 0.2904104
v -0.2006702 0.6472793 0.2904104
v -0.2006702 0.6352155 0.3451519
v 0.2006702 0.6472793 0.2904104
v 0.2175235 0.6352155 0.2904104
v 0.2006702 0.6352155 0.3451519
v 0.2006702 0.6472793 -0.2904104
v 0.2006702 0.6352155 -0.3451519
v 0.2175235 0.6352155 -0.2904104
v -0.2006702 0.6472793 -0.2904104
v -0.2175235 0.6352155 -0.2904104
v -0.2006702 0.6352155 -0.3451519
v -0.4929582 0.05068775 0.4468773
v -0.492694 0.05015926 -0.4448838
v -0.4843264 0.06477127 -0.4214801
v -0.4843264 0.06477127 0.4214801
v -0.4796914 0.05221985 0.5
v -1.879136E-18 -0.9056607 0.5
v -0.007902537 -0.9194236 0.4492873
v -0.4929582 0.05068775 0.4468773
v -0.3274482 0.06477127 0.4612918
v 0.3274482 0.06477127 0.4612918
v 0.4796914 0.05221985 0.5
v -0.4796914 0.05221985 0.5
v -0.4843264 0.06477127 0.4214801
v -0.4929582 0.05068775 0.4468773
v 0.3274482 0.06477127 0.4612918
v 0.492694 0.05015926 0.4448838
v 0.4843264 0.06477127 0.4214801
v 0.492694 0.05015926 0.4448838
v 0.007902537 -0.9194236 0.4492873
v -1.879136E-18 -0.9056607 0.5
v 0.4796914 0.05221985 0.5
v 0.4843264 0.06477127 0.4214801
v 0.4843264 0.06477127 -0.4214801
v 0.4929582 0.05068775 -0.4468773
v 0.492694 0.05015926 0.4448838
v -0.492694 0.05015926 -0.4448838
v -0.007902537 -0.9194236 -0.4492873
v 1.879136E-18 -0.9056607 -0.5
v -0.4796914 0.05221985 -0.5
v 0.4843264 0.06477127 -0.4214801
v 0.2337974 0.06477127 -0.3128305
v 0.2167972 0.06477127 -0.3928693
v 0.3274482 0.06477127 -0.4612918
v -0.2167822 0.06477127 -0.3938618
v -0.3274482 0.06477127 -0.4612918
v -0.2345144 0.06477127 -0.3114065
v -0.4843264 0.06477127 -0.4214801
v -0.2337974 0.06477127 0.3128305
v -0.4843264 0.06477127 0.4214801
v -0.2167972 0.06477127 0.3928693
v -0.3274482 0.06477127 0.4612918
v 0.2167822 0.06477127 0.3938618
v 0.3274482 0.06477127 0.4612918
v 0.2345144 0.06477127 0.3114065
v 0.4843264 0.06477127 0.4214801
v 0.2345144 0.06477127 0.3114065
v 0.2337974 0.06477127 -0.3128305
v 0.4843264 0.06477127 -0.4214801
v 0.4796914 0.05221985 -0.5
v 1.879136E-18 -0.9056607 -0.5
v 0.007902537 -0.9194236 -0.4492873
v 0.4929582 0.05068775 -0.4468773
v 0.007902537 -0.9194236 0.4492873
v 0.007902537 -0.9194236 -0.4492873
v -0.007902537 -0.9194236 -0.4492873
v -0.007902537 -0.9194236 0.4492873
v -0.2175235 0.07639752 0.2923956
v -0.2175235 0.6352155 0.2904104
v -0.2006702 0.6352155 0.3451519
v -0.2006702 0.07683502 0.3451519
v -0.2006702 0.07683502 0.3451519
v 0.2006702 0.07683502 0.3451519
v 0.2167822 0.06477127 0.3938618
v -0.2167972 0.06477127 0.3928693
v 0.2006702 0.07683502 0.3451519
v 0.2006702 0.6352155 0.3451519
v 0.2175235 0.6352155 0.2904104
v 0.2175235 0.07639752 0.2923956
v 0.2175235 0.07639752 -0.2923956
v 0.2175235 0.6352155 -0.2904104
v 0.2006702 0.6352155 -0.3451519
v 0.2006702 0.07683502 -0.3451519
v 0.2006702 0.07683502 -0.3451519
v -0.2006702 0.07683502 -0.3451519
v -0.2167822 0.06477127 -0.3938618
v 0.2167972 0.06477127 -0.3928693
v -0.2006702 0.07683502 -0.3451519
v -0.2006702 0.6352155 -0.3451519
v -0.2175235 0.6352155 -0.2904104
v -0.2175235 0.07639752 -0.2923956
v -0.2175235 0.6352155 0.2904104
v -0.2175235 0.6352155 -0.2904104
v -0.2006702 0.6472793 -0.2904104
v -0.2006702 0.6472793 0.2904104
v -0.2006702 0.6472793 0.2904104
v 0.2006702 0.6472793 0.2904104
v 0.2006702 0.6352155 0.3451519
v -0.2006702 0.6352155 0.3451519
v 0.2006702 0.6472793 0.2904104
v 0.2006702 0.6472793 -0.2904104
v 0.2175235 0.6352155 -0.2904104
v 0.2175235 0.6352155 0.2904104
v 0.2006702 0.6472793 -0.2904104
v -0.2006702 0.6472793 -0.2904104
v -0.2006702 0.6352155 -0.3451519
v 0.2006702 0.6352155 -0.3451519
v -0.2006702 0.6472793 0.2904104
v -0.2006702 0.6472793 -0.2904104
v 0.2006702 0.6472793 -0.2904104
v 0.2006702 0.6472793 0.2904104
v 0.007902537 -0.9194236 0.4492873
v 0.492694 0.05015926 0.4448838
v 0.4929582 0.05068775 -0.4468773
v 0.007902537 -0.9194236 -0.4492873
v -0.007902537 -0.9194236 -0.4492873
v -0.492694 0.05015926 -0.4448838
v -0.4929582 0.05068775 0.4468773
v -0.007902537 -0.9194236 0.4492873
v -0.2006702 0.07683502 0.3451519
v -0.2006702 0.6352155 0.3451519
v 0.2006702 0.6352155 0.3451519
v 0.2006702 0.07683502 0.3451519
v 0.2175235 0.07639752 0.2923956
v 0.2175235 0.6352155 0.2904104
v 0.2175235 0.6352155 -0.2904104
v 0.2175235 0.07639752 -0.2923956
v 0.2006702 0.07683502 -0.3451519
v 0.2006702 0.6352155 -0.3451519
v -0.2006702 0.6352155 -0.3451519
v -0.2006702 0.07683502 -0.3451519
v -0.2175235 0.07639752 -0.2923956
v -0.2175235 0.6352155 -0.2904104
v -0.2175235 0.6352155 0.2904104
v -0.2175235 0.07639752 0.2923956
v -0.3274482 0.06477127 -0.4612918
v -0.4843264 0.06477127 -0.4214801
v -0.492694 0.05015926 -0.4448838
v -0.4796914 0.05221985 -0.5
v 0.3274482 0.06477127 -0.4612918
v 0.4796914 0.05221985 -0.5
v 0.4843264 0.06477127 -0.4214801
v 0.4929582 0.05068775 -0.4468773
v -0.2175235 0.07639752 0.2923956
v -0.2006702 0.07683502 0.3451519
v -0.2167972 0.06477127 0.3928693
v -0.2337974 0.06477127 0.3128305
v -0.2175235 0.07639752 -0.2923956
v -0.2345144 0.06477127 -0.3114065
v -0.2006702 0.07683502 -0.3451519
v -0.2167822 0.06477127 -0.3938618
v 0.2006702 0.07683502 0.3451519
v 0.2345144 0.06477127 0.3114065
v 0.2167822 0.06477127 0.3938618
v 0.2175235 0.07639752 0.2923956
v 0.2337974 0.06477127 -0.3128305
v 0.2175235 0.07639752 -0.2923956
v 0.2167972 0.06477127 -0.3928693
v 0.2006702 0.07683502 -0.3451519
vt 0.5 0.007392883
vt 0.380127 0.2468262
vt 0.6201172 0.2468262
vt 0.380127 0.5029297
vt 0.5 0.7426758
vt 0.6201172 0.5029297
vt 0.5209961 0.003952026
vt 0.480957 0.003952026
vt 0.5 0.007392883
vt 0.4980469 0.7460938
vt 0.5019531 0.7460938
vt 0.5 0.7426758
vt 0.375 0.2697754
vt 0.3847656 0.2697754
vt 0.3847656 0.25
vt 0.6152344 0.2697754
vt 0.625 0.2697754
vt 0.6152344 0.25
vt 0.6152344 0.4802246
vt 0.6152344 0.5
vt 0.625 0.4802246
vt 0.3847656 0.4802246
vt 0.375 0.4802246
vt 0.3847656 0.5
vt 0.3635254 0.24646
vt 0.140625 0.2463379
vt 0.1453857 0.2484131
vt 0.3562012 0.2484131
vt 0.380127 0.2468262
vt 0.5 0.007392883
vt 0.480957 0.003952026
vt 0.3635254 0.24646
vt 0.3967285 0.25
vt 0.5605469 0.25
vt 0.6201172 0.2468262
vt 0.380127 0.2468262
vt 0.375 0.2714844
vt 0.3635254 0.24646
vt 0.5605469 0.25
vt 0.6386719 0.2463379
vt 0.6210938 0.25
vt 0.6386719 0.2463379
vt 0.5209961 0.003952026
vt 0.5 0.007392883
vt 0.6201172 0.2468262
vt 0.6445313 0.2484131
vt 0.8554688 0.2484131
vt 0.8618164 0.24646
vt 0.6386719 0.2463379
vt 0.376709 0.503418
vt 0.4980469 0.7460938
vt 0.5 0.7426758
vt 0.380127 0.5029297
vt 0.625 0.4785156
vt 0.625 0.4863281
vt 0.5981445 0.5
vt 0.6035156 0.5
vt 0.4624023 0.5
vt 0.4396973 0.5
vt 0.375 0.4897461
vt 0.375 0.4821777
vt 0.375 0.2636719
vt 0.375 0.2714844
vt 0.4016113 0.25
vt 0.3967285 0.25
vt 0.5375977 0.25
vt 0.5605469 0.25
vt 0.625 0.2602539
vt 0.625 0.2678223
vt 0.625 0.2602539
vt 0.625 0.4863281
vt 0.625 0.4785156
vt 0.6201172 0.5029297
vt 0.5 0.7426758
vt 0.5019531 0.7460938
vt 0.6230469 0.503418
vt 0.5209961 0.003952026
vt 0.8579102 0.003952026
vt 0.8569336 0.002370834
vt 0.5200195 0.002370834
vt 0.375 0.269043
vt 0.375 0.2697754
vt 0.3847656 0.25
vt 0.3847656 0.25
vt 0.3847656 0.25
vt 0.6152344 0.25
vt 0.5375977 0.25
vt 0.4016113 0.25
vt 0.6152344 0.25
vt 0.6152344 0.25
vt 0.625 0.2697754
vt 0.625 0.269043
vt 0.625 0.480957
vt 0.625 0.4802246
vt 0.6152344 0.5
vt 0.6152344 0.5
vt 0.6152344 0.5
vt 0.3847656 0.5
vt 0.4624023 0.5
vt 0.5981445 0.5
vt 0.3847656 0.5
vt 0.3847656 0.5
vt 0.375 0.4802246
vt 0.375 0.480957
vt 0.375 0.2697754
vt 0.375 0.4802246
vt 0.3847656 0.4802246
vt 0.3847656 0.2697754
vt 0.3847656 0.2697754
vt 0.6152344 0.2697754
vt 0.6152344 0.25
vt 0.3847656 0.25
vt 0.6152344 0.2697754
vt 0.6152344 0.4802246
vt 0.625 0.4802246
vt 0.625 0.2697754
vt 0.6152344 0.4802246
vt 0.3847656 0.4802246
vt 0.3847656 0.5
vt 0.6152344 0.5
vt 0.3847656 0.2697754
vt 0.3847656 0.4802246
vt 0.6152344 0.4802246
vt 0.6152344 0.2697754
vt 0.5209961 0.003952026
vt 0.6386719 0.2463379
vt 0.8618164 0.24646
vt 0.8579102 0.003952026
vt 0.144043 0.003952026
vt 0.140625 0.2463379
vt 0.3635254 0.24646
vt 0.480957 0.003952026
vt 0.3847656 0.25
vt 0.3847656 0.25
vt 0.6152344 0.25
vt 0.6152344 0.25
vt 0.625 0.269043
vt 0.625 0.2697754
vt 0.625 0.4802246
vt 0.625 0.480957
vt 0.6152344 0.5
vt 0.6152344 0.5
vt 0.3847656 0.5
vt 0.3847656 0.5
vt 0.375 0.480957
vt 0.375 0.4802246
vt 0.375 0.2697754
vt 0.375 0.269043
vt 0.4396973 0.5
vt 0.3789063 0.5
vt 0.376709 0.503418
vt 0.380127 0.5029297
vt 0.6035156 0.5
vt 0.6201172 0.5029297
vt 0.625 0.4785156
vt 0.6230469 0.503418
vt 0.375 0.269043
vt 0.3847656 0.25
vt 0.4016113 0.25
vt 0.375 0.2636719
vt 0.375 0.480957
vt 0.375 0.4897461
vt 0.3847656 0.5
vt 0.4624023 0.5
vt 0.6152344 0.25
vt 0.625 0.2602539
vt 0.5375977 0.25
vt 0.625 0.269043
vt 0.625 0.4863281
vt 0.625 0.480957
vt 0.5981445 0.5
vt 0.6152344 0.5
vn 0 0 1
vn 0 0 1
vn 0 0 1
vn 0 0 -1
vn 0 0 -1
vn 0 0 -1
vn 0 -0.965332 0.2619629
vn 0 -0.965332 0.2619629
vn 0 -0.965332 0.2619629
vn 0 -0.965332 -0.2619629
vn 0 -0.965332 -0.2619629
vn 0 -0.965332 -0.2619629
vn -0.5727539 0.800293 0.1763916
vn -0.5727539 0.800293 0.1763916
vn -0.5727539 0.800293 0.1763916
vn 0.5727539 0.800293 0.1763916
vn 0.5727539 0.800293 0.1763916
vn 0.5727539 0.800293 0.1763916
vn 0.5727539 0.800293 -0.1763916
vn 0.5727539 0.800293 -0.1763916
vn 0.5727539 0.800293 -0.1763916
vn -0.5727539 0.800293 -0.1763916
vn -0.5727539 0.800293 -0.1763916
vn -0.5727539 0.800293 -0.1763916
vn -0.8603516 0.5097656 -0.0002863407
vn -0.8603516 0.5097656 -0.0002863407
vn -0.8603516 0.5097656 -0.0002863407
vn -0.8603516 0.5097656 -0.0002863407
vn -0.8681641 -0.434082 0.2409668
vn -0.8681641 -0.434082 0.2409668
vn -0.8681641 -0.434082 0.2409668
vn -0.8681641 -0.434082 0.2409668
vn -0.00330925 0.9526367 0.3037109
vn 0.003480911 0.9526367 0.3037109
vn 0.05621338 0.9716797 0.2302246
vn -0.05358887 0.9716797 0.2297363
vn -0.09771729 0.9819336 0.1627197
vn -0.09771729 0.9819336 0.1627197
vn 0.003480911 0.9526367 0.3037109
vn 0.1029663 0.9814453 0.1629639
vn 0.1029663 0.9814453 0.1629639
vn 0.8691406 -0.4343262 0.2365723
vn 0.8691406 -0.4343262 0.2365723
vn 0.8691406 -0.4343262 0.2365723
vn 0.8691406 -0.4343262 0.2365723
vn 0.8603516 0.5097656 0.0002863407
vn 0.8603516 0.5097656 0.0002863407
vn 0.8603516 0.5097656 0.0002863407
vn 0.8603516 0.5097656 0.0002863407
vn -0.8691406 -0.4343262 -0.2365723
vn -0.8691406 -0.4343262 -0.2365723
vn -0.8691406 -0.4343262 -0.2365723
vn -0.8691406 -0.4343262 -0.2365723
vn 0 1 -5.960464E-08
vn 0 1 -5.960464E-08
vn 0 1 -2.384186E-07
vn 0 1 -1.192093E-07
vn 0 1 -2.384186E-07
vn 0 1 -1.192093E-07
vn 0 1 5.960464E-08
vn 0 1 5.960464E-08
vn 0 1 5.960464E-08
vn 0 1 5.960464E-08
vn 0 1 2.384186E-07
vn 0 1 1.192093E-07
vn 0 1 2.384186E-07
vn 0 1 1.192093E-07
vn 0 1 -5.960464E-08
vn 0 1 -5.960464E-08
vn 0 1 -5.960464E-08
vn 0 1 -5.960464E-08
vn 0 1 -5.960464E-08
vn 0.8681641 -0.434082 -0.2409668
vn 0.8681641 -0.434082 -0.2409668
vn 0.8681641 -0.434082 -0.2409668
vn 0.8681641 -0.434082 -0.2409668
vn 0 -1 0
vn 0 -1 0
vn 0 -1 0
vn 0 -1 0
vn -0.9541016 0.0005316734 0.2990723
vn -0.9541016 0.0005316734 0.2990723
vn -0.9541016 0.0005316734 0.2990723
vn -0.9541016 0.0005316734 0.2990723
vn -0.0002884865 0.9702148 0.2426758
vn -0.0002884865 0.9702148 0.2426758
vn -0.0002884865 0.9702148 0.2426758
vn -0.0002884865 0.9702148 0.2426758
vn 0.9541016 0.0005316734 0.2990723
vn 0.9541016 0.0005316734 0.2990723
vn 0.9541016 0.0005316734 0.2990723
vn 0.9541016 0.0005316734 0.2990723
vn 0.9541016 0.0005316734 -0.2990723
vn 0.9541016 0.0005316734 -0.2990723
vn 0.9541016 0.0005316734 -0.2990723
vn 0.9541016 0.0005316734 -0.2990723
vn 0.0002884865 0.9702148 -0.2426758
vn 0.0002884865 0.9702148 -0.2426758
vn 0.0002884865 0.9702148 -0.2426758
vn 0.0002884865 0.9702148 -0.2426758
vn -0.9541016 0.0005316734 -0.2990723
vn -0.9541016 0.0005316734 -0.2990723
vn -0.9541016 0.0005316734 -0.2990723
vn -0.9541016 0.0005316734 -0.2990723
vn -0.5820313 0.8129883 0
vn -0.5820313 0.8129883 0
vn -0.5820313 0.8129883 0
vn -0.5820313 0.8129883 0
vn 0 0.9765625 0.21521
vn 0 0.9765625 0.21521
vn 0 0.9765625 0.21521
vn 0 0.9765625 0.21521
vn 0.5820313 0.8129883 0
vn 0.5820313 0.8129883 0
vn 0.5820313 0.8129883 0
vn 0.5820313 0.8129883 0
vn 0 0.9765625 -0.21521
vn 0 0.9765625 -0.21521
vn 0 0.9765625 -0.21521
vn 0 0.9765625 -0.21521
vn 0 1 0
vn 0 1 0
vn 0 1 0
vn 0 1 0
vn 0.8945313 -0.4472656 0
vn 0.8945313 -0.4472656 0
vn 0.8945313 -0.4472656 0
vn 0.8945313 -0.4472656 0
vn -0.8945313 -0.4472656 0
vn -0.8945313 -0.4472656 0
vn -0.8945313 -0.4472656 0
vn -0.8945313 -0.4472656 0
vn 0 0 1
vn 0 0 1
vn 0 0 1
vn 0 0 1
vn 1 0 0
vn 1 0 0
vn 1 0 0
vn 1 0 0
vn 0 0 -1
vn 0 0 -1
vn 0 0 -1
vn 0 0 -1
vn -1 0 0
vn -1 0 0
vn -1 0 0
vn -1 0 0
vn -0.003480911 0.9526367 -0.3037109
vn -0.1029663 0.9814453 -0.1629639
vn -0.1029663 0.9814453 -0.1629639
vn -0.05621338 0.9716797 -0.2302246
vn 0.00330925 0.9526367 -0.3037109
vn 0.05358887 0.9716797 -0.2297363
vn 0.09771729 0.9819336 -0.1627197
vn 0.09771729 0.9819336 -0.1627197
vn -0.5644531 0.8251953 0.006958008
vn -0.4306641 0.8959961 0.1068115
vn -0.4306641 0.8959961 0.1068115
vn -0.5327148 0.8457031 0.03219604
vn -0.5634766 0.8261719 -0.006916046
vn -0.5332031 0.8457031 -0.03022766
vn -0.4260254 0.8984375 -0.1060791
vn -0.4260254 0.8984375 -0.1060791
vn 0.4260254 0.8984375 0.1060791
vn 0.5332031 0.8457031 0.03022766
vn 0.4260254 0.8984375 0.1060791
vn 0.5634766 0.8261719 0.006916046
vn 0.5327148 0.8457031 -0.03219604
vn 0.5644531 0.8251953 -0.006958008
vn 0.4306641 0.8959961 -0.1068115
vn 0.4306641 0.8959961 -0.1068115
g Arrow_0
f 3/3/3 2/2/2 1/1/1
f 6/6/6 5/5/5 4/4/4
f 9/9/9 8/8/8 7/7/7
f 12/12/12 11/11/11 10/10/10
f 15/15/15 14/14/14 13/13/13
f 18/18/18 17/17/17 16/16/16
f 21/21/21 20/20/20 19/19/19
f 24/24/24 23/23/23 22/22/22
f 27/27/27 26/26/26 25/25/25
f 28/28/28 27/27/27 25/25/25
f 31/31/31 30/30/30 29/29/29
f 32/32/32 31/31/31 29/29/29
f 35/35/35 34/34/34 33/33/33
f 36/36/36 35/35/35 33/33/33
f 36/36/36 33/33/33 37/37/37
f 38/38/38 36/36/36 37/37/37
f 35/35/35 40/40/40 39/39/39
f 40/40/40 41/41/41 39/39/39
f 44/44/44 43/43/43 42/42/42
f 45/45/45 44/44/44 42/42/42
f 48/48/48 47/47/47 46/46/46
f 49/49/49 48/48/48 46/46/46
f 52/52/52 51/51/51 50/50/50
f 53/53/53 52/52/52 50/50/50
f 56/56/56 55/55/55 54/54/54
f 57/57/57 56/56/56 54/54/54
f 58/58/58 56/56/56 57/57/57
f 59/59/59 58/58/58 57/57/57
f 60/60/60 58/58/58 59/59/59
f 61/61/61 60/60/60 59/59/59
f 62/62/62 60/60/60 61/61/61
f 63/63/63 62/62/62 61/61/61
f 64/64/64 62/62/62 63/63/63
f 65/65/65 64/64/64 63/63/63
f 66/66/66 64/64/64 65/65/65
f 67/67/67 66/66/66 65/65/65
f 68/68/68 66/66/66 67/67/67
f 69/69/69 68/68/68 67/67/67
f 71/71/71 70/70/70 69/69/69
f 72/72/72 71/71/71 69/69/69
f 75/75/75 74/74/74 73/73/73
f 76/76/76 75/75/75 73/73/73
f 79/79/79 78/78/78 77/77/77
f 80/80/80 79/79/79 77/77/77
f 83/83/83 82/82/82 81/81/81
f 84/84/84 83/83/83 81/81/81
f 87/87/87 86/86/86 85/85/85
f 88/88/88 87/87/87 85/85/85
f 91/91/91 90/90/90 89/89/89
f 92/92/92 91/91/91 89/89/89
f 95/95/95 94/94/94 93/93/93
f 96/96/96 95/95/95 93/93/93
f 99/99/99 98/98/98 97/97/97
f 100/100/100 99/99/99 97/97/97
f 103/103/103 102/102/102 101/101/101
f 104/104/104 103/103/103 101/101/101
f 107/107/107 106/106/106 105/105/105
f 108/108/108 107/107/107 105/105/105
f 111/111/111 110/110/110 109/109/109
f 112/112/112 111/111/111 109/109/109
f 115/115/115 114/114/114 113/113/113
f 116/116/116 115/115/115 113/113/113
f 119/119/119 118/118/118 117/117/117
f 120/120/120 119/119/119 117/117/117
f 123/123/123 122/122/122 121/121/121
f 124/124/124 123/123/123 121/121/121
f 127/127/127 126/126/126 125/125/125
f 128/128/128 127/127/127 125/125/125
f 131/131/131 130/130/130 129/129/129
f 132/132/132 131/131/131 129/129/129
f 135/135/135 134/134/134 133/133/133
f 136/136/136 135/135/135 133/133/133
f 139/139/139 138/138/138 137/137/137
f 140/140/140 139/139/139 137/137/137
f 143/143/143 142/142/142 141/141/141
f 144/144/144 143/143/143 141/141/141
f 147/147/147 146/146/146 145/145/145
f 148/148/148 147/147/147 145/145/145
f 151/151/151 150/150/150 149/149/149
f 152/152/152 151/151/151 149/149/149
f 149/149/149 153/153/153 152/152/152
f 153/153/153 154/154/154 152/152/152
f 154/154/154 153/153/153 155/155/155
f 156/156/156 154/154/154 155/155/155
f 159/159/159 158/158/158 157/157/157
f 160/160/160 159/159/159 157/157/157
f 157/157/157 161/161/161 160/160/160
f 161/161/161 162/162/162 160/160/160
f 162/162/162 161/161/161 163/163/163
f 164/164/164 162/162/162 163/163/163
f 167/167/167 166/166/166 165/165/165
f 166/166/166 168/168/168 165/165/165
f 166/166/166 169/169/169 168/168/168
f 169/169/169 170/170/170 168/168/168
f 169/169/169 171/171/171 170/170/170
f 171/171/171 172/172/172 170/170/170
