g Arrow
v 0.03052378 0.01087634 0.6479361
v 0.03052378 0.01087634 0.6100324
v 0.03256553 -0.0007028956 0.6100324
v 0.03256553 -0.0007028956 0.6479361
v -0.0001827155 -0.0002999296 0.747772
v 0.03052377 -0.01228213 0.6100324
v -0.0001116645 -0.0007028956 0.747772
v 0.03052377 -0.01228213 0.6479362
v 0.02464485 -0.02246475 0.6100325
v -0.000182724 -0.001105899 0.747772
v 0.02464485 -0.02246475 0.6479362
v 0.0156378 -0.03002254 0.6100325
v -0.0003873108 -0.001460236 0.747772
v 0.0156378 -0.03002254 0.6479362
v 0.004589039 -0.0340439 0.6100324
v -0.0007007636 -0.001723267 0.747772
v 0.004589039 -0.0340439 0.6479361
v -0.007168802 -0.0340439 0.6100324
v -0.00108527 -0.001863203 0.747772
v -0.007168802 -0.0340439 0.6479362
v -0.01821757 -0.03002246 0.6100325
v -0.001494458 -0.001863203 0.747772
v -0.01821757 -0.03002254 0.6479361
v -0.02722461 -0.02246468 0.6100325
v -0.001878963 -0.001723267 0.747772
v -0.02722461 -0.02246468 0.6479362
v -0.03310352 -0.01228209 0.6100325
v -0.002192414 -0.001460236 0.747772
v -0.03310352 -0.01228209 0.6479362
v -0.03514527 -0.0007028956 0.6100324
v -0.002397007 -0.001105899 0.747772
v -0.03514527 -0.0007028956 0.6479361
v -0.03310352 0.01087634 0.6100324
v -0.002468062 -0.0007028956 0.747772
v -0.03310352 0.01087634 0.6479361
v -0.0272246 0.02105892 0.6100324
v -0.002397007 -0.0002999296 0.747772
v -0.0272246 0.02105892 0.6479361
v -0.01821757 0.02861671 0.6100325
v -0.002192417 5.440818E-05 0.747772
v -0.01821757 0.02861671 0.6479361
v -0.007168791 0.03263811 0.6100325
v -0.001878967 0.0003174382 0.747772
v -0.007168791 0.03263811 0.6479362
v 0.004589058 0.03263814 0.6100325
v -0.001494456 0.0004573744 0.747772
v 0.004589058 0.03263811 0.6479362
v 0.01563784 0.02861671 0.6100324
v -0.001085271 0.0004573744 0.747772
v 0.01563784 0.02861671 0.6479361
v 0.02464486 0.02105892 0.6100324
v -0.0007007609 0.0003174382 0.747772
v 0.02464486 0.02105892 0.6479361
v 0.03052378 0.01087634 0.6100324
v -0.0003873108 5.440818E-05 0.747772
v 0.03052378 0.01087634 0.6479361
v -0.0001827155 -0.0002999296 0.747772
v -0.007168791 0.03263811 0.6100325
v 0.01563784 0.02861671 0.6100324
v 0.004589058 0.03263814 0.6100325
v -0.01821757 0.02861671 0.6100325
v 0.02464486 0.02105892 0.6100324
v -0.0272246 0.02105892 0.6100324
v 0.03052378 0.01087634 0.6100324
v -0.03310352 0.01087634 0.6100324
v -0.03514527 -0.0007028956 0.6100324
v 0.03256553 -0.0007028956 0.6100324
v 0.03052377 -0.01228213 0.6100324
v -0.03310352 -0.01228209 0.6100325
v 0.02464485 -0.02246475 0.6100325
v -0.02722461 -0.02246468 0.6100325
v 0.0156378 -0.03002254 0.6100325
v -0.01821757 -0.03002246 0.6100325
v 0.004589039 -0.0340439 0.6100324
v -0.007168802 -0.0340439 0.6100324
v -0.001085271 0.0004573744 0.747772
v -0.001878967 0.0003174382 0.747772
v -0.001494456 0.0004573744 0.747772
v -0.0007007609 0.0003174382 0.747772
v -0.002192417 5.440818E-05 0.747772
v -0.0003873108 5.440818E-05 0.747772
v -0.002397007 -0.0002999296 0.747772
v -0.0001827155 -0.0002999296 0.747772
v -0.0001116645 -0.0007028956 0.747772
v -0.002468062 -0.0007028956 0.747772
v -0.002397007 -0.001105899 0.747772
v -0.000182724 -0.001105899 0.747772
v -0.002192414 -0.001460236 0.747772
v -0.0003873108 -0.001460236 0.747772
v -0.001878963 -0.001723267 0.747772
v -0.0007007636 -0.001723267 0.747772
v -0.001494458 -0.001863203 0.747772
v -0.00108527 -0.001863203 0.747772
v 0.002230009 0.02319443 -0.7278953
v -0.005588429 0.02367576 0.6285956
v -0.006344818 0.02319443 -0.7278953
v 0.003008689 0.02367576 0.6285956
v 0.01028771 0.02026166 -0.7278953
v 0.01108733 0.02073537 0.6285957
v 0.01685641 0.01474986 -0.7278953
v 0.0176731 0.01520925 0.6285957
v 0.02114382 0.007323832 -0.7278953
v 0.02197169 0.007763916 0.6285957
v 0.02263283 -0.001120699 -0.7278953
v 0.02346454 -0.0007025611 0.6285957
v 0.02114382 -0.009565265 -0.7278953
v 0.02197168 -0.009169117 0.6285956
v 0.0168564 -0.01699129 -0.7278952
v 0.01767309 -0.01661441 0.6285956
v 0.0102877 -0.02250308 -0.7278953
v 0.01108733 -0.02214056 0.6285956
v 0.002229998 -0.02543583 -0.7278953
v 0.00300868 -0.02508093 0.6285957
v -0.006344824 -0.02543583 -0.7278953
v -0.005588436 -0.02508093 0.6285957
v -0.01440252 -0.02250308 -0.7278953
v -0.01366707 -0.02214056 0.6285956
v -0.02097122 -0.01699129 -0.7278952
v -0.02025287 -0.01661441 0.6285956
v -0.02525862 -0.009565265 -0.7278953
v -0.02455142 -0.009169078 0.6285956
v -0.02674764 -0.001120699 -0.7278953
v -0.02604428 -0.0007025611 0.6285957
v -0.02525862 0.007323832 -0.7278953
v -0.02455142 0.007763916 0.6285957
v -0.02097121 0.01474986 -0.7278953
v -0.02025283 0.01520925 0.6285957
v -0.01440252 0.02026166 -0.7278953
v -0.01366707 0.02073537 0.6285957
v -0.006344818 0.02319443 -0.7278953
v -0.005588429 0.02367576 0.6285956
v -0.006344818 0.02319443 -0.7278953
v 0.01028771 0.02026166 -0.7278953
v 0.002230009 0.02319443 -0.7278953
v -0.01440252 0.02026166 -0.7278953
v 0.01685641 0.01474986 -0.7278953
v -0.02097121 0.01474986 -0.7278953
v 0.02114382 0.007323832 -0.7278953
v -0.02525862 0.007323832 -0.7278953
v 0.02263283 -0.001120699 -0.7278953
v -0.02674764 -0.001120699 -0.7278953
v -0.02525862 -0.009565265 -0.7278953
v 0.02114382 -0.009565265 -0.7278953
v 0.0168564 -0.01699129 -0.7278952
v -0.02097122 -0.01699129 -0.7278952
v 0.0102877 -0.02250308 -0.7278953
v -0.01440252 -0.02250308 -0.7278953
v 0.002229998 -0.02543583 -0.7278953
v -0.006344824 -0.02543583 -0.7278953
v -0.0161142 0.01946649 -0.4868569
v -0.04530497 0.04772187 -0.5086986
v -0.0431736 0.04135867 -0.7469494
v -0.01422318 0.01329735 -0.724992
v 0.01397982 -0.00992547 -0.4882807
v 0.0158721 -0.0160946 -0.7263827
v 0.04519714 -0.0465618 -0.7475837
v 0.04160438 -0.04058671 -0.5103801
v -0.01610393 -0.01140159 -0.4868767
v -0.04523585 -0.04174472 -0.5087254
v -0.04314924 -0.04772187 -0.7468323
v -0.01421166 -0.01757072 -0.7249789
v 0.01397024 0.01611054 -0.4882455
v 0.01587639 0.009941415 -0.7264002
v 0.04530497 0.03768664 -0.7478217
v 0.04158502 0.04404772 -0.5103674
vt 0.4599609 0.565918
vt 0.3742676 0.5532227
vt 0.3703613 0.574707
vt 0.4545898 0.5869141
vt 0.675293 0.6572266
vt 0.3659668 0.597168
vt 0.675293 0.6582031
vt 0.4504395 0.6069336
vt 0.362793 0.6206055
vt 0.6762695 0.659668
vt 0.4475098 0.6269531
vt 0.3608398 0.644043
vt 0.6767578 0.6621094
vt 0.4458008 0.6464844
vt 0.3601074 0.668457
vt 0.6772461 0.6650391
vt 0.4453125 0.6660156
vt 0.361084 0.6928711
vt 0.6772461 0.6674805
vt 0.4458008 0.6855469
vt 0.3637695 0.7167969
vt 0.6772461 0.6699219
vt 0.4477539 0.7045898
vt 0.3679199 0.7412109
vt 0.6777344 0.6723633
vt 0.4511719 0.7236328
vt 0.3737793 0.7651367
vt 0.6782227 0.6748047
vt 0.4555664 0.7426758
vt 0.3811035 0.7890625
vt 0.6782227 0.6772461
vt 0.4614258 0.7607422
vt 0.3901367 0.8120117
vt 0.6787109 0.6796875
vt 0.4685059 0.7788086
vt 0.4006348 0.8339844
vt 0.6791992 0.6821289
vt 0.4768066 0.7963867
vt 0.4123535 0.8554688
vt 0.6796875 0.684082
vt 0.4863281 0.8134766
vt 0.4257813 0.8759766
vt 0.6801758 0.6860352
vt 0.4970703 0.8300781
vt 0.4399414 0.8955078
vt 0.6806641 0.6884766
vt 0.5087891 0.8457031
vt 0.4550781 0.9130859
vt 0.6811523 0.6904297
vt 0.5219727 0.8613281
vt 0.4707031 0.9301758
vt 0.6811523 0.6923828
vt 0.5366211 0.8759766
vt 0.4855957 0.9462891
vt 0.6811523 0.6943359
vt 0.5517578 0.8901367
vt 0.6811523 0.6958008
vt 0.06964111 0.5917969
vt 0.09942627 0.5966797
vt 0.08496094 0.5917969
vt 0.05517578 0.5966797
vt 0.1112061 0.6069336
vt 0.04342651 0.6069336
vt 0.1188965 0.6201172
vt 0.03573608 0.6201172
vt 0.03305054 0.6352539
vt 0.121521 0.6352539
vt 0.1188965 0.6503906
vt 0.03573608 0.6503906
vt 0.1112061 0.6635742
vt 0.04342651 0.6635742
vt 0.09942627 0.6733398
vt 0.05517578 0.6733398
vt 0.08496094 0.6787109
vt 0.06964111 0.6787109
vt 0.07043457 0.6958008
vt 0.09454346 0.7001953
vt 0.08288574 0.6958008
vt 0.05880737 0.7001953
vt 0.1040649 0.7084961
vt 0.04928589 0.7084961
vt 0.1102295 0.7192383
vt 0.04309082 0.7192383
vt 0.04092407 0.7314453
vt 0.1124268 0.7314453
vt 0.1102295 0.7436523
vt 0.04309082 0.7436523
vt 0.1040649 0.7543945
vt 0.04928589 0.7543945
vt 0.09454346 0.762207
vt 0.05880737 0.762207
vt 0.08288574 0.7666016
vt 0.07043457 0.7666016
vt 0.9291992 0.07043457
vt 0.01585388 0.07342529
vt 0.9291992 0.07342529
vt 0.01585388 0.07043457
vt 0.9291992 0.06750488
vt 0.01585388 0.06750488
vt 0.9291992 0.06451416
vt 0.01585388 0.06451416
vt 0.9291992 0.06155396
vt 0.01585388 0.06155396
vt 0.9291992 0.05856323
vt 0.01585388 0.05856323
vt 0.9291992 0.05560303
vt 0.01585388 0.05560303
vt 0.9291992 0.0526123
vt 0.01585388 0.0526123
vt 0.9291992 0.0496521
vt 0.01585388 0.0496521
vt 0.9291992 0.04666138
vt 0.01585388 0.04666138
vt 0.9291992 0.04367065
vt 0.01585388 0.04367065
vt 0.9291992 0.04071045
vt 0.01585388 0.04071045
vt 0.9291992 0.03771973
vt 0.01585388 0.03771973
vt 0.9291992 0.03475952
vt 0.01585388 0.03475952
vt 0.9291992 0.0317688
vt 0.01585388 0.0317688
vt 0.9291992 0.02880859
vt 0.01585388 0.02880859
vt 0.9291992 0.02583313
vt 0.01585388 0.02583313
vt 0.9291992 0.02285767
vt 0.01585388 0.02285767
vt 0.9291992 0.01989746
vt 0.01585388 0.01989746
vt 0.02223206 0.1572266
vt 0.02862549 0.1934814
vt 0.02223206 0.1759033
vt 0.02862549 0.1396484
vt 0.04064941 0.2078857
vt 0.04064941 0.1253662
vt 0.05685425 0.2171631
vt 0.05685425 0.1160278
vt 0.07525635 0.220459
vt 0.07525635 0.1127319
vt 0.09368896 0.1160278
vt 0.09368896 0.2171631
vt 0.1098633 0.2078857
vt 0.1098633 0.1253662
vt 0.1218872 0.1934814
vt 0.1218872 0.1396484
vt 0.1282959 0.1759033
vt 0.1282959 0.1572266
vt 0.4589844 0.3852539
vt 0.3886719 0.2790527
vt 0.02702332 0.2790527
vt 0.09735107 0.3845215
vt 0.5415039 0.5102539
vt 0.902832 0.5131836
vt 0.9741211 0.407959
vt 0.612793 0.404541
vt 0.4592285 0.5170898
vt 0.3886719 0.4111328
vt 0.02702332 0.4118652
vt 0.09753418 0.5170898
vt 0.5419922 0.3776855
vt 0.9033203 0.3776855
vt 0.9736328 0.2722168
vt 0.6123047 0.2714844
vn 0.9316406 0.3391113 0.1289063
vn 0.9394531 0.342041 0
vn 1 -1.788139E-07 0
vn 0.9916992 -3.576279E-07 0.1289063
vn 0.9077148 0.3303223 0.2592773
vn 0.9394531 -0.342041 0
vn 0.9658203 -6.556511E-07 0.2592773
vn 0.9316406 -0.3391113 0.1289063
vn 0.7661133 -0.6425781 0
vn 0.9077148 -0.3303223 0.2592773
vn 0.7597656 -0.637207 0.1289063
vn 0.5 -0.8662109 -1.788139E-07
vn 0.7397461 -0.6206055 0.2592773
vn 0.4958496 -0.8588867 0.1289063
vn 0.1737061 -0.9848633 -1.788139E-07
vn 0.4829102 -0.8364258 0.2592773
vn 0.1722412 -0.9765625 0.1289063
vn -0.1737061 -0.9848633 -1.788139E-07
vn 0.1677246 -0.9511719 0.2592773
vn -0.1722412 -0.9765625 0.1289063
vn -0.5 -0.8662109 -1.192093E-07
vn -0.1677246 -0.9511719 0.2592773
vn -0.4958496 -0.8588867 0.1289063
vn -0.7661133 -0.6425781 0
vn -0.4829102 -0.8364258 0.2592773
vn -0.7597656 -0.637207 0.1289063
vn -0.9394531 -0.342041 0
vn -0.7397461 -0.6206055 0.2592773
vn -0.9316406 -0.3391113 0.1289063
vn -1 0 0
vn -0.9077148 -0.3303223 0.2592773
vn -0.9916992 0 0.1289063
vn -0.9394531 0.342041 0
vn -0.9658203 0 0.2592773
vn -0.9316406 0.3391113 0.1289063
vn -0.7661133 0.6425781 0
vn -0.9077148 0.3303223 0.2592773
vn -0.7597656 0.637207 0.1289063
vn -0.5 0.8662109 1.192093E-07
vn -0.7397461 0.6206055 0.2592773
vn -0.4958496 0.8588867 0.1289063
vn -0.1737061 0.9848633 1.788139E-07
vn -0.4829102 0.8364258 0.2592773
vn -0.1722412 0.9765625 0.1289063
vn 0.1737061 0.9848633 1.788139E-07
vn -0.1677246 0.9511719 0.2592773
vn 0.1722412 0.9765625 0.1289063
vn 0.5 0.8662109 1.192093E-07
vn 0.1677246 0.9511719 0.2592773
vn 0.4958496 0.8588867 0.1289063
vn 0.7661133 0.6425781 0
vn 0.4829102 0.8364258 0.2592773
vn 0.7597656 0.637207 0.1289063
vn 0.9394531 0.342041 0
vn 0.7397461 0.6206055 0.2592773
vn 0.9316406 0.3391113 0.1289063
vn 0.9077148 0.3303223 0.2592773
vn 0 0 -1
vn 0 0 -1
vn 0 0 -1
vn 0 0 -1
vn 0 0 -1
vn 0 0 -1
vn 0 0 -1
vn 0 0 -1
vn 0 0 -1
vn 0 0 -1
vn 0 0 -1
vn 0 0 -1
vn 0 0 -1
vn 0 0 -1
vn 0 0 -1
vn 0 0 -1
vn 0 0 -1
vn 0 0 -1
vn 0 0 1
vn 0 0 1
vn 0 0 1
vn 0 0 1
vn 0 0 1
vn 0 0 1
vn 0 0 1
vn 0 0 1
vn 0 0 1
vn 0 0 1
vn 0 0 1
vn 0 0 1
vn 0 0 1
vn 0 0 1
vn 0 0 1
vn 0 0 1
vn 0 0 1
vn 0 0 1
vn 0.1737061 0.9848633 0
vn -0.1737061 0.9848633 0
vn -0.1737061 0.9848633 0
vn 0.1737061 0.9848633 0
vn 0.5 0.8662109 0
vn 0.5 0.8662109 0
vn 0.7661133 0.6425781 0
vn 0.7661133 0.6425781 0
vn 0.9394531 0.342041 0
vn 0.9394531 0.342041 0
vn 1 -1.788139E-07 0
vn 1 -1.788139E-07 0
vn 0.9394531 -0.342041 0
vn 0.9394531 -0.342041 0
vn 0.7661133 -0.6425781 0
vn 0.7661133 -0.6425781 0
vn 0.5 -0.8662109 0
vn 0.5 -0.8662109 0
vn 0.1737061 -0.9848633 0
vn 0.1737061 -0.9848633 0
vn -0.1737061 -0.9848633 0
vn -0.1737061 -0.9848633 0
vn -0.5 -0.8662109 0
vn -0.5 -0.8662109 0
vn -0.7661133 -0.6425781 0
vn -0.7661133 -0.6425781 0
vn -0.9394531 -0.342041 0
vn -0.9394531 -0.342041 0
vn -1 0 0
vn -1 0 0
vn -0.9394531 0.342041 0
vn -0.9394531 0.342041 0
vn -0.7661133 0.6425781 0
vn -0.7661133 0.6425781 0
vn -0.5 0.8662109 0
vn -0.5 0.8662109 0
vn -0.1737061 0.9848633 0
vn -0.1737061 0.9848633 0
vn 0 0 -1
vn 0 0 -1
vn 0 0 -1
vn 0 0 -1
vn 0 0 -1
vn 0 0 -1
vn 0 0 -1
vn 0 0 -1
vn 0 0 -1
vn 0 0 -1
vn 0 0 -1
vn 0 0 -1
vn 0 0 -1
vn 0 0 -1
vn 0 0 -1
vn 0 0 -1
vn 0 0 -1
vn 0 0 -1
vn 0.7055664 0.7080078 -0.02137756
vn 0.7055664 0.7080078 -0.02137756
vn 0.7055664 0.7080078 -0.02137756
vn 0.7055664 0.7080078 -0.02137756
vn 0.7246094 0.6889648 -0.01561737
vn 0.7246094 0.6889648 -0.01561737
vn 0.7246094 0.6889648 -0.01561737
vn 0.7246094 0.6889648 -0.01561737
vn -0.7026367 0.7104492 -0.04049683
vn -0.7026367 0.7104492 -0.04049683
vn -0.7026367 0.7104492 -0.04049683
vn -0.7026367 0.7104492 -0.04049683
vn -0.7192383 0.6933594 -0.04525757
vn -0.7192383 0.6933594 -0.04525757
vn -0.7192383 0.6933594 -0.04525757
vn -0.7192383 0.6933594 -0.04525757
g Arrow_0
f 3/3/3 2/2/2 1/1/1
f 4/4/4 3/3/3 1/1/1
f 1/1/1 5/5/5 4/4/4
f 6/6/6 3/3/3 4/4/4
f 5/5/5 7/7/7 4/4/4
f 8/8/8 6/6/6 4/4/4
f 4/4/4 7/7/7 8/8/8
f 9/9/9 6/6/6 8/8/8
f 7/7/7 10/10/10 8/8/8
f 11/11/11 9/9/9 8/8/8
f 8/8/8 10/10/10 11/11/11
f 12/12/12 9/9/9 11/11/11
f 10/10/10 13/13/13 11/11/11
f 14/14/14 12/12/12 11/11/11
f 11/11/11 13/13/13 14/14/14
f 15/15/15 12/12/12 14/14/14
f 13/13/13 16/16/16 14/14/14
f 17/17/17 15/15/15 14/14/14
f 14/14/14 16/16/16 17/17/17
f 18/18/18 15/15/15 17/17/17
f 16/16/16 19/19/19 17/17/17
f 20/20/20 18/18/18 17/17/17
f 17/17/17 19/19/19 20/20/20
f 21/21/21 18/18/18 20/20/20
f 19/19/19 22/22/22 20/20/20
f 23/23/23 21/21/21 20/20/20
f 20/20/20 22/22/22 23/23/23
f 24/24/24 21/21/21 23/23/23
f 22/22/22 25/25/25 23/23/23
f 26/26/26 24/24/24 23/23/23
f 23/23/23 25/25/25 26/26/26
f 27/27/27 24/24/24 26/26/26
f 25/25/25 28/28/28 26/26/26
f 29/29/29 27/27/27 26/26/26
f 26/26/26 28/28/28 29/29/29
f 30/30/30 27/27/27 29/29/29
f 28/28/28 31/31/31 29/29/29
f 32/32/32 30/30/30 29/29/29
f 29/29/29 31/31/31 32/32/32
f 33/33/33 30/30/30 32/32/32
f 31/31/31 34/34/34 32/32/32
f 35/35/35 33/33/33 32/32/32
f 32/32/32 34/34/34 35/35/35
f 36/36/36 33/33/33 35/35/35
f 34/34/34 37/37/37 35/35/35
f 38/38/38 36/36/36 35/35/35
f 35/35/35 37/37/37 38/38/38
f 39/39/39 36/36/36 38/38/38
f 37/37/37 40/40/40 38/38/38
f 41/41/41 39/39/39 38/38/38
f 38/38/38 40/40/40 41/41/41
f 42/42/42 39/39/39 41/41/41
f 40/40/40 43/43/43 41/41/41
f 44/44/44 42/42/42 41/41/41
f 41/41/41 43/43/43 44/44/44
f 45/45/45 42/42/42 44/44/44
f 43/43/43 46/46/46 44/44/44
f 47/47/47 45/45/45 44/44/44
f 44/44/44 46/46/46 47/47/47
f 48/48/48 45/45/45 47/47/47
f 46/46/46 49/49/49 47/47/47
f 50/50/50 48/48/48 47/47/47
f 47/47/47 49/49/49 50/50/50
f 51/51/51 48/48/48 50/50/50
f 49/49/49 52/52/52 50/50/50
f 53/53/53 51/51/51 50/50/50
f 50/50/50 52/52/52 53/53/53
f 54/54/54 51/51/51 53/53/53
f 52/52/52 55/55/55 53/53/53
f 56/56/56 54/54/54 53/53/53
f 53/53/53 55/55/55 56/56/56
f 55/55/55 57/57/57 56/56/56
f 60/60/60 59/59/59 58/58/58
f 59/59/59 61/61/61 58/58/58
f 59/59/59 62/62/62 61/61/61
f 62/62/62 63/63/63 61/61/61
f 62/62/62 64/64/64 63/63/63
f 64/64/64 65/65/65 63/63/63
f 65/65/65 64/64/64 66/66/66
f 64/64/64 67/67/67 66/66/66
f 66/66/66 67/67/67 68/68/68
f 69/69/69 66/66/66 68/68/68
f 69/69/69 68/68/68 70/70/70
f 71/71/71 69/69/69 70/70/70
f 71/71/71 70/70/70 72/72/72
f 73/73/73 71/71/71 72/72/72
f 73/73/73 72/72/72 74/74/74
f 75/75/75 73/73/73 74/74/74
f 78/78/78 77/77/77 76/76/76
f 77/77/77 79/79/79 76/76/76
f 77/77/77 80/80/80 79/79/79
f 80/80/80 81/81/81 79/79/79
f 80/80/80 82/82/82 81/81/81
f 82/82/82 83/83/83 81/81/81
f 84/84/84 83/83/83 82/82/82
f 85/85/85 84/84/84 82/82/82
f 84/84/84 85/85/85 86/86/86
f 87/87/87 84/84/84 86/86/86
f 87/87/87 86/86/86 88/88/88
f 89/89/89 87/87/87 88/88/88
f 89/89/89 88/88/88 90/90/90
f 91/91/91 89/89/89 90/90/90
f 91/91/91 90/90/90 92/92/92
f 93/93/93 91/91/91 92/92/92
f 96/96/96 95/95/95 94/94/94
f 95/95/95 97/97/97 94/94/94
f 94/94/94 97/97/97 98/98/98
f 97/97/97 99/99/99 98/98/98
f 98/98/98 99/99/99 100/100/100
f 99/99/99 101/101/101 100/100/100
f 100/100/100 101/101/101 102/102/102
f 101/101/101 103/103/103 102/102/102
f 102/102/102 103/103/103 104/104/104
f 103/103/103 105/105/105 104/104/104
f 104/104/104 105/105/105 106/106/106
f 105/105/105 107/107/107 106/106/106
f 106/106/106 107/107/107 108/108/108
f 107/107/107 109/109/109 108/108/108
f 108/108/108 109/109/109 110/110/110
f 109/109/109 111/111/111 110/110/110
f 110/110/110 111/111/111 112/112/112
f 111/111/111 113/113/113 112/112/112
f 112/112/112 113/113/113 114/114/114
f 113/113/113 115/115/115 114/114/114
f 114/114/114 115/115/115 116/116/116
f 115/115/115 117/117/117 116/116/116
f 116/116/116 117/117/117 118/118/118
f 117/117/117 119/119/119 118/118/118
f 118/118/118 119/119/119 120/120/120
f 119/119/119 121/121/121 120/120/120
f 120/120/120 121/121/121 122/122/122
f 121/121/121 123/123/123 122/122/122
f 122/122/122 123/123/123 124/124/124
f 123/123/123 125/125/125 124/124/124
f 124/124/124 125/125/125 126/126/126
f 125/125/125 127/127/127 126/126/126
f 126/126/126 127/127/127 128/128/128
f 127/127/127 129/129/129 128/128/128
f 128/128/128 129/129/129 130/130/130
f 129/129/129 131/131/131 130/130/130
f 134/134/134 133/133/133 132/132/132
f 133/133/133 135/135/135 132/132/132
f 133/133/133 136/136/136 135/135/135
f 136/136/136 137/137/137 135/135/135
f 136/136/136 138/138/138 137/137/137
f 138/138/138 139/139/139 137/137/137
f 138/138/138 140/140/140 139/139/139
f 140/140/140 141/141/141 139/139/139
f 141/141/141 140/140/140 142/142/142
f 140/140/140 143/143/143 142/142/142
f 142/142/142 143/143/143 144/144/144
f 145/145/145 142/142/142 144/144/144
f 145/145/145 144/144/144 146/146/146
f 147/147/147 145/145/145 146/146/146
f 147/147/147 146/146/146 148/148/148
f 149/149/149 147/147/147 148/148/148
f 152/152/152 151/151/151 150/150/150
f 153/153/153 152/152/152 150/150/150
f 156/156/156 155/155/155 154/154/154
f 157/157/157 156/156/156 154/154/154
f 160/160/160 159/159/159 158/158/158
f 161/161/161 160/160/160 158/158/158
f 164/164/164 163/163/163 162/162/162
f 165/165/165 164/164/164 162/162/162
