g Block_fracturepart1
v -0.5530123 0.4185235 0.03042227
v -0.2437466 -0.2268502 -0.03637213
v -0.02465047 0.2210877 -0.5
v -0.05494642 0.2985356 -0.5
v -0.1180257 0.3833798 -0.4648563
v -0.2039341 0.4185235 -0.380012
v 0.4438807 0.3833798 -0.4648563
v 0.1668076 0.2985356 -0.5
v -0.02465047 0.2210877 -0.5
v -0.2437466 -0.2268502 -0.03637213
v 0.5530123 0.3987561 -0.4277347
v 0.1786637 -0.4185235 0.4314298
v 0.5530123 0.3987561 -0.4277347
v 0.1786637 -0.4185235 0.4314298
v 0.1757336 -0.3285787 0.5
v 0.2846364 0.2985356 0.5
v 0.3088773 0.3833798 0.4648563
v 0.3379324 0.4185235 0.380012
v 0.5435351 0.4185235 -0.380012
v 0.1757336 -0.3285787 0.5
v 0.1786637 -0.4185235 0.4314298
v -0.2437466 -0.2268502 -0.03637213
v -0.1687795 0.2985356 0.5
v -0.5530123 0.4185235 0.03042227
v -0.2392129 0.3833798 0.4648563
v -0.3160335 0.4185235 0.380012
v -0.2039341 0.4185235 -0.380012
v -0.1180257 0.3833798 -0.4648563
v 0.4438807 0.3833798 -0.4648563
v 0.5530123 0.3987561 -0.4277347
v 0.5435351 0.4185235 -0.380012
v -0.5530123 0.4185235 0.03042227
v 0.3379324 0.4185235 0.380012
v -0.3160335 0.4185235 0.380012
v -0.2392129 0.3833798 0.4648563
v 0.3088773 0.3833798 0.4648563
v 0.1757336 -0.3285787 0.5
v -0.1687795 0.2985356 0.5
v 0.2846364 0.2985356 0.5
v 0.3088773 0.3833798 0.4648563
v -0.2392129 0.3833798 0.4648563
v 0.1668076 0.2985356 -0.5
v 0.4438807 0.3833798 -0.4648563
v -0.1180257 0.3833798 -0.4648563
v -0.05494642 0.2985356 -0.5
v -0.02465047 0.2210877 -0.5
vt 0.7109375 0.5126953
vt 0.4387207 0.4846191
vt 0.6274414 0.2890625
vt 0.6601563 0.2890625
vt 0.6962891 0.3039551
vt 0.7109375 0.3395996
vt 0.7749023 0.3039551
vt 0.6582031 0.2890625
vt 0.5771484 0.2890625
vt 0.4848633 0.4846191
vt 0.8208008 0.3195801
vt 0.6630859 0.6821289
vt 0.7026367 0.3195801
vt 0.357666 0.6821289
vt 0.395752 0.7109375
vt 0.6601563 0.7109375
vt 0.6962891 0.6962891
vt 0.7109375 0.6601563
vt 0.7109375 0.3395996
vt 0.395752 0.7109375
vt 0.357666 0.6821289
vt 0.4387207 0.4846191
vt 0.6601563 0.7109375
vt 0.7109375 0.5126953
vt 0.6962891 0.6962891
vt 0.7109375 0.6601563
vt 0.46875 0.4162598
vt 0.4931641 0.4443359
vt 0.652832 0.4450684
vt 0.684082 0.4331055
vt 0.6806641 0.4174805
vt 0.3701172 0.2912598
vt 0.6235352 0.1865234
vt 0.4377441 0.1856689
vt 0.4597168 0.157959
vt 0.6157227 0.1588135
vt 0.581543 -0.06204224
vt 0.4799805 0.130249
vt 0.609375 0.1309814
vt 0.6157227 0.1588135
vt 0.4597168 0.157959
vt 0.5742188 0.4724121
vt 0.652832 0.4450684
vt 0.4931641 0.4443359
vt 0.5112305 0.472168
vt 0.5195313 0.4958496
vn -0.7299805 -0.2856445 -0.6210938
vn -0.7299805 -0.2856445 -0.6210938
vn -0.7299805 -0.2856445 -0.6210938
vn -0.7299805 -0.2856445 -0.6210938
vn -0.7299805 -0.2856445 -0.6210938
vn -0.7299805 -0.2856445 -0.6210938
vn 0.3044434 -0.7529297 -0.5834961
vn 0.3044434 -0.7529297 -0.5834961
vn 0.3044434 -0.7529297 -0.5834961
vn 0.3044434 -0.7529297 -0.5834961
vn 0.3044434 -0.7529297 -0.5834961
vn 0.3044434 -0.7529297 -0.5834961
vn 0.9521484 -0.1652832 0.2575684
vn 0.9521484 -0.1652832 0.2575684
vn 0.9521484 -0.1652832 0.2575684
vn 0.9521484 -0.1652832 0.2575684
vn 0.9521484 -0.1652832 0.2575684
vn 0.9521484 -0.1652832 0.2575684
vn 0.9521484 -0.1652832 0.2575684
vn -0.753418 -0.4140625 0.5107422
vn -0.753418 -0.4140625 0.5107422
vn -0.753418 -0.4140625 0.5107422
vn -0.753418 -0.4140625 0.5107422
vn -0.753418 -0.4140625 0.5107422
vn -0.753418 -0.4140625 0.5107422
vn -0.753418 -0.4140625 0.5107422
vn 0.0006561279 0.9824219 -0.1861572
vn 0.01419067 0.9311523 -0.3640137
vn 0.1027222 0.9262695 -0.3620605
vn 0.12323 0.9506836 -0.2854004
vn 0.1314697 0.9741211 -0.1845703
vn -0.06188965 0.9980469 0.01512909
vn 0.0958252 0.9780273 0.1853027
vn -0.01908875 0.9824219 0.1861572
vn -0.004970551 0.9316406 0.3640137
vn 0.081604 0.9282227 0.362793
vn 0.06817627 -0.1220093 0.9902344
vn 0.006843567 0.1861572 0.9824219
vn 0.08654785 0.1854248 0.9790039
vn 0.081604 0.362793 0.9282227
vn -0.004970551 0.3640137 0.9316406
vn 0.06591797 0.185791 -0.9804688
vn 0.1027222 0.3620605 -0.9262695
vn 0.01419067 0.3640137 -0.9311523
vn 0.02693176 0.1861572 -0.9819336
vn 0.03250122 0.1490479 -0.9882813
g Block_fracturepart1_0
f 3/3/3 2/2/2 1/1/1
f 1/1/1 4/4/4 3/3/3
f 1/1/1 5/5/5 4/4/4
f 1/1/1 6/6/6 5/5/5
f 9/9/9 8/8/8 7/7/7
f 7/7/7 10/10/10 9/9/9
f 7/7/7 11/11/11 10/10/10
f 11/11/11 12/12/12 10/10/10
f 15/15/15 14/14/14 13/13/13
f 13/13/13 16/16/16 15/15/15
f 13/13/13 17/17/17 16/16/16
f 13/13/13 18/18/18 17/17/17
f 13/13/13 19/19/19 18/18/18
f 22/22/22 21/21/21 20/20/20
f 20/20/20 23/23/23 22/22/22
f 23/23/23 24/24/24 22/22/22
f 23/23/23 25/25/25 24/24/24
f 25/25/25 26/26/26 24/24/24
f 29/29/29 28/28/28 27/27/27
f 27/27/27 30/30/30 29/29/29
f 27/27/27 31/31/31 30/30/30
f 31/31/31 27/27/27 32/32/32
f 32/32/32 33/33/33 31/31/31
f 32/32/32 34/34/34 33/33/33
f 34/34/34 35/35/35 33/33/33
f 35/35/35 36/36/36 33/33/33
f 39/39/39 38/38/38 37/37/37
f 38/38/38 39/39/39 40/40/40
f 41/41/41 38/38/38 40/40/40
f 44/44/44 43/43/43 42/42/42
f 45/45/45 44/44/44 42/42/42
f 45/45/45 42/42/42 46/46/46
