g Block_fracturepart5
v -0.3541331 -0.4493971 -0.4717026
v -0.3553246 -0.4466173 -0.4721641
v -0.3547289 -0.4492629 -0.4715684
v 0.3614926 0.5 0.01513622
v 0.4054661 -0.5 -0.03966079
v 0.2249912 -0.5 0.3577065
v 0.1857862 -0.4648563 0.4425508
v 0.1682055 -0.380012 0.4776945
v 0.1536997 0.380012 0.4776945
v 0.1680418 0.4648563 0.4425508
v 0.2059053 0.5 0.3577065
v -0.2262209 -0.5 -0.4023175
v 0.4054661 -0.5 -0.03966079
v 0.3614926 0.5 0.01513622
v -0.285478 0.5 -0.3562949
v -0.285478 -0.4863606 -0.4352457
v -0.3541331 -0.4493971 -0.4717026
v -0.3612648 0.4686081 -0.4023175
v -0.3553246 -0.4466173 -0.4721641
v -0.3742439 -0.380012 -0.4776945
v -0.3692078 0.4637418 -0.4072671
v -0.3946012 0.380012 -0.4285476
v -0.285478 -0.4863606 -0.4352457
v -0.3541331 -0.4493971 -0.4717026
v -0.3547289 -0.4492629 -0.4715684
v -0.3703223 -0.4648563 -0.4023175
v -0.285478 -0.5 -0.4023175
v -0.2262209 -0.5 -0.4023175
v 0.4054661 -0.5 -0.03966079
v -0.285478 -0.5 0.3577065
v 0.2249912 -0.5 0.3577065
v 0.1857862 -0.4648563 0.4425508
v -0.3703223 -0.4648563 0.3577065
v -0.285478 -0.4648563 0.4425508
v -0.3547289 -0.4492629 0.4269574
v -0.285478 -0.4648563 0.4425508
v -0.3547289 -0.4492629 0.4269574
v -0.3703223 -0.380012 0.4425508
v -0.285478 -0.380012 0.4776945
v 0.1682055 -0.380012 0.4776945
v 0.1857862 -0.4648563 0.4425508
v 0.1536997 0.380012 0.4776945
v -0.285478 0.380012 0.4776945
v 0.1680418 0.4648563 0.4425508
v -0.3703223 0.380012 0.4425508
v -0.285478 0.4648563 0.4425508
v -0.3547289 0.4492629 0.4269574
v -0.285478 0.4648563 0.4425508
v -0.3547289 0.4492629 0.4269574
v -0.3703223 0.4648563 0.3577065
v -0.285478 0.5 0.3577065
v 0.2059053 0.5 0.3577065
v 0.1680418 0.4648563 0.4425508
v 0.3614926 0.5 0.01513622
v -0.285478 0.5 -0.3562949
v -0.3612648 0.4686081 -0.4023175
v -0.3703223 0.4648563 -0.4023175
v -0.3692078 0.4637418 -0.4072671
v -0.3946012 0.380012 -0.4285476
v -0.3692078 0.4637418 -0.4072671
v -0.3703223 0.4648563 -0.4023175
v -0.4054661 0.380012 -0.4023175
v -0.3742439 -0.380012 -0.4776945
v -0.4054661 -0.380012 -0.4023175
v -0.3553246 -0.4466173 -0.4721641
v -0.3547289 -0.4492629 -0.4715684
v -0.3703223 -0.4648563 -0.4023175
v -0.3703223 -0.4648563 0.3577065
v -0.4054661 0.380012 0.3577065
v -0.3703223 0.4648563 0.3577065
v -0.4054661 -0.380012 0.3577065
v -0.3703223 0.380012 0.4425508
v -0.3547289 0.4492629 0.4269574
v -0.3703223 -0.380012 0.4425508
v -0.3547289 -0.4492629 0.4269574
vt 0.144043 0.7304688
vt 0.1436768 0.7294922
vt 0.1439209 0.7304688
vt 0.7109375 0.515625
vt 0.2890625 0.4926758
vt 0.2890625 0.6601563
vt 0.3039551 0.6962891
vt 0.3395996 0.7109375
vt 0.6601563 0.7109375
vt 0.6962891 0.6962891
vt 0.7109375 0.6601563
vt 0.07983398 0.7109375
vt 0.3464355 0.7109375
vt 0.3278809 0.2890625
vt 0.05484009 0.2890625
vt 0.05484009 0.7050781
vt 0.02587891 0.6894531
vt 0.02287292 0.3022461
vt 0.02537537 0.6884766
vt 0.01739502 0.6601563
vt 0.01951599 0.3044434
vt 0.008804321 0.3395996
vt 0.1644287 0.7480469
vt 0.144043 0.7304688
vt 0.1439209 0.7304688
vt 0.1381836 0.7558594
vt 0.1641846 0.7587891
vt 0.1811523 0.7592773
vt 0.3598633 0.871582
vt 0.15979 0.9931641
vt 0.3078613 0.9931641
vt 0.2958984 1.021484
vt 0.1333008 0.9926758
vt 0.1586914 1.021484
vt 0.1373291 1.015625
vt 0.1619873 -0.1303711
vt 0.140625 -0.1251221
vt 0.1367188 -0.1021118
vt 0.1629639 -0.1022949
vt 0.2946777 -0.1022949
vt 0.2993164 -0.1303711
vt 0.2929688 0.1292725
vt 0.1674805 0.12854
vt 0.2976074 0.1571045
vt 0.1411133 0.1324463
vt 0.168457 0.1563721
vt 0.145752 0.1589355
vt 0.168457 0.1563721
vt 0.145752 0.1589355
vt 0.1436768 0.1833496
vt 0.1691895 0.1842041
vt 0.3085938 0.1849365
vt 0.2976074 0.1571045
vt 0.3522949 0.2890625
vt 0.168335 0.4008789
vt 0.1455078 0.4155273
vt 0.1427002 0.4155273
vt 0.1429443 0.4172363
vt 0.118042 0.4250488
vt 0.1429443 0.4172363
vt 0.1427002 0.4155273
vt 0.1169434 0.4162598
vt -0.09863281 0.4433594
vt -0.09857178 0.418457
vt -0.1192627 0.4423828
vt -0.1200562 0.4423828
vt -0.1248779 0.4194336
vt -0.1269531 0.180542
vt 0.1182251 0.1824951
vt 0.1436768 0.1833496
vt -0.1008301 0.1815186
vt 0.12146 0.154541
vt 0.145752 0.1589355
vt -0.1009521 0.1531982
vt -0.1223145 0.1577148
vn -0.3239746 -0.3256836 -0.8881836
vn -0.3266602 -0.3193359 -0.8896484
vn -0.3251953 -0.3251953 -0.8876953
vn 0.9101563 0.01734924 0.4133301
vn 0.9101563 0.01734924 0.4133301
vn 0.9101563 0.01734924 0.4133301
vn 0.9101563 0.01734924 0.4133301
vn 0.9101563 0.01734924 0.4133301
vn 0.9101563 0.01734924 0.4133301
vn 0.9101563 0.01734924 0.4133301
vn 0.9101563 0.01734924 0.4133301
vn 0.496582 0.06921387 -0.8652344
vn 0.496582 0.06921387 -0.8652344
vn 0.496582 0.06921387 -0.8652344
vn 0.496582 0.06921387 -0.8652344
vn 0.496582 0.06921387 -0.8652344
vn 0.496582 0.06921387 -0.8652344
vn 0.496582 0.06921387 -0.8652344
vn 0.496582 0.06921387 -0.8652344
vn 0.496582 0.06921387 -0.8652344
vn 0.496582 0.06921387 -0.8652344
vn 0.496582 0.06921387 -0.8652344
vn -0.1767578 -0.9511719 -0.2521973
vn -0.3239746 -0.8881836 -0.3256836
vn -0.3251953 -0.8876953 -0.3251953
vn -0.3588867 -0.918457 -0.164917
vn -0.1829834 -0.9658203 -0.1829834
vn -0.1730957 -0.9677734 -0.1833496
vn -0.06524658 -0.9980469 -0.008628845
vn -0.1829834 -0.9658203 0.1829834
vn -0.09564209 -0.9780273 0.1853027
vn -0.09210205 -0.9272461 0.3623047
vn -0.3588867 -0.918457 0.164917
vn -0.164917 -0.918457 0.3588867
vn -0.3251953 -0.8876953 0.3251953
vn -0.164917 -0.3588867 0.918457
vn -0.3251953 -0.3251953 0.8876953
vn -0.3588867 -0.164917 0.918457
vn -0.1829834 -0.1829834 0.9658203
vn -0.1055298 -0.1851807 0.9770508
vn -0.09210205 -0.3623047 0.9272461
vn -0.1080322 0.1850586 0.9765625
vn -0.1829834 0.1829834 0.9658203
vn -0.09484863 0.3623047 0.9272461
vn -0.3588867 0.164917 0.918457
vn -0.164917 0.3588867 0.918457
vn -0.3251953 0.3251953 0.8876953
vn -0.164917 0.918457 0.3588867
vn -0.3251953 0.8876953 0.3251953
vn -0.3588867 0.918457 0.164917
vn -0.1829834 0.9658203 0.1829834
vn -0.09899902 0.9775391 0.1853027
vn -0.09484863 0.9272461 0.3623047
vn -0.07305908 0.9970703 0.01860046
vn -0.1837158 0.9697266 -0.161499
vn -0.3408203 0.925293 -0.1671143
vn -0.3588867 0.918457 -0.164917
vn -0.3569336 0.9174805 -0.1765137
vn -0.9545898 0.1781006 -0.2382813
vn -0.9174805 0.3569336 -0.1765137
vn -0.918457 0.3588867 -0.164917
vn -0.9658203 0.1829834 -0.1829834
vn -0.925293 -0.1672363 -0.3398438
vn -0.9658203 -0.1829834 -0.1829834
vn -0.8896484 -0.3193359 -0.3266602
vn -0.8876953 -0.3251953 -0.3251953
vn -0.918457 -0.3588867 -0.164917
vn -0.918457 -0.3588867 0.164917
vn -0.9658203 0.1829834 0.1829834
vn -0.918457 0.3588867 0.164917
vn -0.9658203 -0.1829834 0.1829834
vn -0.918457 0.164917 0.3588867
vn -0.8876953 0.3251953 0.3251953
vn -0.918457 -0.164917 0.3588867
vn -0.8876953 -0.3251953 0.3251953
g Block_fracturepart5_0
f 3/3/3 2/2/2 1/1/1
f 6/6/6 5/5/5 4/4/4
f 4/4/4 7/7/7 6/6/6
f 4/4/4 8/8/8 7/7/7
f 4/4/4 9/9/9 8/8/8
f 4/4/4 10/10/10 9/9/9
f 4/4/4 11/11/11 10/10/10
f 14/14/14 13/13/13 12/12/12
f 12/12/12 15/15/15 14/14/14
f 12/12/12 16/16/16 15/15/15
f 16/16/16 17/17/17 15/15/15
f 17/17/17 18/18/18 15/15/15
f 17/17/17 19/19/19 18/18/18
f 19/19/19 20/20/20 18/18/18
f 20/20/20 21/21/21 18/18/18
f 20/20/20 22/22/22 21/21/21
f 25/25/25 24/24/24 23/23/23
f 23/23/23 26/26/26 25/25/25
f 23/23/23 27/27/27 26/26/26
f 27/27/27 23/23/23 28/28/28
f 27/27/27 28/28/28 29/29/29
f 26/26/26 27/27/27 30/30/30
f 29/29/29 30/30/30 27/27/27
f 29/29/29 31/31/31 30/30/30
f 30/30/30 31/31/31 32/32/32
f 33/33/33 26/26/26 30/30/30
f 34/34/34 30/30/30 32/32/32
f 30/30/30 34/34/34 33/33/33
f 34/34/34 35/35/35 33/33/33
f 38/38/38 37/37/37 36/36/36
f 39/39/39 38/38/38 36/36/36
f 39/39/39 36/36/36 40/40/40
f 36/36/36 41/41/41 40/40/40
f 39/39/39 40/40/40 42/42/42
f 39/39/39 43/43/43 38/38/38
f 43/43/43 39/39/39 42/42/42
f 43/43/43 42/42/42 44/44/44
f 43/43/43 45/45/45 38/38/38
f 46/46/46 43/43/43 44/44/44
f 43/43/43 46/46/46 45/45/45
f 46/46/46 47/47/47 45/45/45
f 50/50/50 49/49/49 48/48/48
f 51/51/51 50/50/50 48/48/48
f 51/51/51 48/48/48 52/52/52
f 48/48/48 53/53/53 52/52/52
f 51/51/51 52/52/52 54/54/54
f 55/55/55 51/51/51 54/54/54
f 50/50/50 51/51/51 55/55/55
f 50/50/50 55/55/55 56/56/56
f 56/56/56 57/57/57 50/50/50
f 57/57/57 56/56/56 58/58/58
f 61/61/61 60/60/60 59/59/59
f 62/62/62 61/61/61 59/59/59
f 62/62/62 59/59/59 63/63/63
f 64/64/64 62/62/62 63/63/63
f 64/64/64 63/63/63 65/65/65
f 64/64/64 65/65/65 66/66/66
f 66/66/66 67/67/67 64/64/64
f 64/64/64 67/67/67 68/68/68
f 61/61/61 62/62/62 69/69/69
f 69/69/69 62/62/62 64/64/64
f 70/70/70 61/61/61 69/69/69
f 71/71/71 64/64/64 68/68/68
f 71/71/71 69/69/69 64/64/64
f 69/69/69 72/72/72 70/70/70
f 72/72/72 69/69/69 71/71/71
f 72/72/72 73/73/73 70/70/70
f 74/74/74 72/72/72 71/71/71
f 71/71/71 68/68/68 74/74/74
f 68/68/68 75/75/75 74/74/74
