g Block_fracturepart4
v 0.2935699 0.4901163 -0.4190866
v 0.1844383 0.47474 -0.4562083
v 0.3575477 0.47474 -0.4562083
v -0.06921797 -0.411885 0.4913519
v -0.004794947 -0.4549726 0.4735044
v -0.1128133 -0.4549726 0.4735044
v -0.503189 -0.13549 -0.02772404
v -0.6925918 -0.4901163 -0.02421832
v -0.7078201 -0.4901163 -0.3713639
v -0.6927567 -0.4549726 -0.4562083
v -0.648947 -0.3701283 -0.4913519
v -0.2840929 0.3124479 -0.4913519
v -0.503189 -0.13549 -0.02772404
v -0.2840929 0.3124479 -0.4913519
v -0.09263486 0.3898957 -0.4913519
v 0.1844383 0.47474 -0.4562083
v 0.2935699 0.4901163 -0.4190866
v -0.08077871 -0.3271633 0.4400779
v 0.6726763 0.1405944 -0.4562083
v 0.7078201 -0.01657682 -0.3713639
v 0.7078201 -0.3701283 -0.1211958
v 0.6726763 -0.4549726 -0.03479324
v 0.5878319 0.2802258 -0.4913519
v 0.5878319 -0.4901163 0.05373152
v 0.4844036 0.3898957 -0.4913519
v 0.1414312 -0.4901163 0.3886601
v 0.3575477 0.47474 -0.4562083
v 0.2935699 0.4901163 -0.4190866
v -0.08077871 -0.3271633 0.4400779
v -0.004794947 -0.4549726 0.4735044
v -0.06921797 -0.411885 0.4913519
v -0.08077871 -0.3271633 0.4400779
v -0.06921797 -0.411885 0.4913519
v -0.1128133 -0.4549726 0.4735044
v -0.503189 -0.13549 -0.02772404
v -0.2275402 -0.4901163 0.3886601
v -0.6925918 -0.4901163 -0.02421832
v -0.09263486 0.3898957 -0.4913519
v -0.2840929 0.3124479 -0.4913519
v -0.648947 -0.3701283 -0.4913519
v 0.4844036 0.3898957 -0.4913519
v 0.1844383 0.47474 -0.4562083
v 0.3575477 0.47474 -0.4562083
v 0.5878319 0.2802258 -0.4913519
v 0.5878319 -0.3701283 -0.4913519
v 0.6726763 0.1405944 -0.4562083
v 0.6726763 -0.3701283 -0.4562083
v 0.5878319 -0.4549726 -0.4562083
v -0.6927567 -0.4549726 -0.4562083
v 0.6570829 -0.4393792 -0.4406148
v 0.6726763 -0.3701283 -0.4562083
v 0.6570829 -0.4393792 -0.4406148
v 0.6726763 -0.4549726 -0.3713639
v 0.7078201 -0.3701283 -0.3713639
v 0.6726763 -0.4549726 -0.03479324
v 0.7078201 -0.3701283 -0.1211958
v 0.7078201 -0.01657682 -0.3713639
v 0.6726763 0.1405944 -0.4562083
v -0.004794947 -0.4549726 0.4735044
v -0.2275402 -0.4901163 0.3886601
v -0.1128133 -0.4549726 0.4735044
v 0.1414312 -0.4901163 0.3886601
v 0.5878319 -0.4901163 0.05373152
v -0.6925918 -0.4901163 -0.02421832
v -0.7078201 -0.4901163 -0.3713639
v 0.5878319 -0.4901163 -0.3713639
v -0.6927567 -0.4549726 -0.4562083
v 0.5878319 -0.4549726 -0.4562083
v 0.6726763 -0.4549726 -0.3713639
v 0.6726763 -0.4549726 -0.03479324
v 0.6570829 -0.4393792 -0.4406148
vt 0.684082 0.4331055
vt 0.652832 0.4450684
vt 0.7021484 0.4453125
vt 0.5849609 -0.1162109
vt 0.6044922 -0.1304932
vt 0.5727539 -0.1304932
vt 0.4387207 0.4846191
vt 0.2890625 0.486084
vt 0.2890625 0.3395996
vt 0.3039551 0.3039551
vt 0.3395996 0.2890625
vt 0.6274414 0.2890625
vt 0.4848633 0.4846191
vt 0.5771484 0.2890625
vt 0.6582031 0.2890625
vt 0.7749023 0.3039551
vt 0.8208008 0.3195801
vt 0.6630859 0.6821289
vt 0.980957 0.4448242
vt 0.9956055 0.5112305
vt 0.9956055 0.6601563
vt 0.980957 0.6962891
vt 0.9453125 0.3859863
vt 0.9453125 0.7109375
vt 0.9013672 0.3395996
vt 0.7568359 0.7109375
vt 0.8481445 0.3039551
vt 0.8208008 0.2973633
vt 0.6630859 0.6420898
vt 0.6953125 0.6962891
vt 0.6679688 0.6777344
vt 0.6630859 0.6420898
vt 0.6679688 0.6777344
vt 0.6494141 0.6962891
vt 0.4848633 0.5615234
vt 0.6010742 0.7109375
vt 0.4047852 0.7109375
vt 0.5742188 0.4724121
vt 0.5195313 0.4958496
vt 0.4143066 0.7041016
vt 0.7387695 0.4733887
vt 0.652832 0.4450684
vt 0.7021484 0.4453125
vt 0.7685547 0.5073242
vt 0.7685547 0.7055664
vt 0.7949219 0.5483398
vt 0.7944336 0.7080078
vt 0.7675781 0.7338867
vt 0.4018555 0.7319336
vt 0.7885742 0.7333984
vt 1.037109 0.4501953
vt 1.058594 0.4458008
vt 1.0625 0.4228516
vt 1.037109 0.421875
vt 1.0625 0.3168945
vt 1.036133 0.34375
vt 0.9350586 0.4208984
vt 0.887207 0.4487305
vt 0.6000977 1.021484
vt 0.5351563 0.9931641
vt 0.5688477 1.021484
vt 0.6420898 0.9931641
vt 0.7700195 0.8911133
vt 0.3996582 0.8666992
vt 0.3972168 0.7602539
vt 0.7680664 0.7617188
vt 0.4018555 0.7319336
vt 0.7675781 0.7338867
vt 0.7944336 0.7583008
vt 0.7958984 0.8623047
vt 0.7885742 0.7333984
vn 0.12323 0.9506836 -0.2854004
vn 0.1027222 0.9262695 -0.3620605
vn 0.1296387 0.9233398 -0.3608398
vn 0.07263184 -0.2741699 0.9589844
vn 0.07305908 -0.3630371 0.9287109
vn 0.05606079 -0.3632813 0.9301758
vn -0.8813477 0.4709473 0.03866577
vn -0.8813477 0.4709473 0.03866577
vn -0.8813477 0.4709473 0.03866577
vn -0.8813477 0.4709473 0.03866577
vn -0.8813477 0.4709473 0.03866577
vn -0.8813477 0.4709473 0.03866577
vn -0.3044434 0.7529297 0.5834961
vn -0.3044434 0.7529297 0.5834961
vn -0.3044434 0.7529297 0.5834961
vn -0.3044434 0.7529297 0.5834961
vn -0.3044434 0.7529297 0.5834961
vn -0.3044434 0.7529297 0.5834961
vn 0.5224609 0.4926758 0.6962891
vn 0.5224609 0.4926758 0.6962891
vn 0.5224609 0.4926758 0.6962891
vn 0.5224609 0.4926758 0.6962891
vn 0.5224609 0.4926758 0.6962891
vn 0.5224609 0.4926758 0.6962891
vn 0.5224609 0.4926758 0.6962891
vn 0.5224609 0.4926758 0.6962891
vn 0.5224609 0.4926758 0.6962891
vn 0.5224609 0.4926758 0.6962891
vn 0.5224609 0.4926758 0.6962891
vn 0.5224609 0.4926758 0.6962891
vn 0.5224609 0.4926758 0.6962891
vn -0.6240234 0.340332 0.703125
vn -0.6240234 0.340332 0.703125
vn -0.6240234 0.340332 0.703125
vn -0.6240234 0.340332 0.703125
vn -0.6240234 0.340332 0.703125
vn -0.6240234 0.340332 0.703125
vn 0.06591797 0.185791 -0.9804688
vn 0.03250122 0.1490479 -0.9882813
vn -0.03207397 -0.1860352 -0.9819336
vn 0.1656494 0.1835938 -0.96875
vn 0.1027222 0.3620605 -0.9262695
vn 0.1296387 0.3608398 -0.9233398
vn 0.1845703 0.1313477 -0.9741211
vn 0.1829834 -0.1829834 -0.9658203
vn 0.3632813 0.05740356 -0.9296875
vn 0.3588867 -0.164917 -0.918457
vn 0.164917 -0.3588867 -0.918457
vn -0.03570557 -0.3637695 -0.9306641
vn 0.3251953 -0.3251953 -0.8876953
vn 0.918457 -0.164917 -0.3588867
vn 0.8876953 -0.3251953 -0.3251953
vn 0.918457 -0.3588867 -0.164917
vn 0.9658203 -0.1829834 -0.1829834
vn 0.9311523 -0.3637695 -0.01908875
vn 0.9804688 -0.185791 -0.06347656
vn 0.9824219 -0.01293945 -0.1861572
vn 0.9296875 0.05740356 -0.3632813
vn 0.07305908 -0.9287109 0.3630371
vn 0.04223633 -0.9814453 0.1860352
vn 0.05606079 -0.9301758 0.3632813
vn 0.1068115 -0.9770508 0.1851807
vn 0.1861572 -0.9824219 0.02206421
vn -0.04043579 -0.9990234 -0.01634216
vn -0.04241943 -0.9814453 -0.1860352
vn 0.1829834 -0.9658203 -0.1829834
vn -0.03570557 -0.9306641 -0.3637695
vn 0.164917 -0.918457 -0.3588867
vn 0.3588867 -0.918457 -0.164917
vn 0.3637695 -0.9311523 -0.01908875
vn 0.3251953 -0.8876953 -0.3251953
g Block_fracturepart4_0
f 3/3/3 2/2/2 1/1/1
f 6/6/6 5/5/5 4/4/4
f 9/9/9 8/8/8 7/7/7
f 7/7/7 10/10/10 9/9/9
f 7/7/7 11/11/11 10/10/10
f 7/7/7 12/12/12 11/11/11
f 15/15/15 14/14/14 13/13/13
f 13/13/13 16/16/16 15/15/15
f 13/13/13 17/17/17 16/16/16
f 13/13/13 18/18/18 17/17/17
f 21/21/21 20/20/20 19/19/19
f 19/19/19 22/22/22 21/21/21
f 19/19/19 23/23/23 22/22/22
f 23/23/23 24/24/24 22/22/22
f 23/23/23 25/25/25 24/24/24
f 25/25/25 26/26/26 24/24/24
f 25/25/25 27/27/27 26/26/26
f 27/27/27 28/28/28 26/26/26
f 28/28/28 29/29/29 26/26/26
f 29/29/29 30/30/30 26/26/26
f 29/29/29 31/31/31 30/30/30
f 34/34/34 33/33/33 32/32/32
f 32/32/32 35/35/35 34/34/34
f 35/35/35 36/36/36 34/34/34
f 35/35/35 37/37/37 36/36/36
f 40/40/40 39/39/39 38/38/38
f 40/40/40 38/38/38 41/41/41
f 38/38/38 42/42/42 41/41/41
f 42/42/42 43/43/43 41/41/41
f 40/40/40 41/41/41 44/44/44
f 44/44/44 45/45/45 40/40/40
f 45/45/45 44/44/44 46/46/46
f 47/47/47 45/45/45 46/46/46
f 45/45/45 48/48/48 40/40/40
f 45/45/45 47/47/47 48/48/48
f 48/48/48 49/49/49 40/40/40
f 47/47/47 50/50/50 48/48/48
f 53/53/53 52/52/52 51/51/51
f 54/54/54 53/53/53 51/51/51
f 53/53/53 54/54/54 55/55/55
f 54/54/54 56/56/56 55/55/55
f 54/54/54 57/57/57 56/56/56
f 54/54/54 51/51/51 57/57/57
f 51/51/51 58/58/58 57/57/57
f 61/61/61 60/60/60 59/59/59
f 60/60/60 62/62/62 59/59/59
f 63/63/63 62/62/62 60/60/60
f 63/63/63 60/60/60 64/64/64
f 63/63/63 64/64/64 65/65/65
f 65/65/65 66/66/66 63/63/63
f 66/66/66 65/65/65 67/67/67
f 68/68/68 66/66/66 67/67/67
f 66/66/66 69/69/69 63/63/63
f 66/66/66 68/68/68 69/69/69
f 69/69/69 70/70/70 63/63/63
f 68/68/68 71/71/71 69/69/69
