g bow_back_
v -0.4807386 0.1254957 -2.477592
v -0.4587125 0.1368192 -2.521252
v 0.4516361 0.121462 -2.521252
v -0.4737934 0.109461 -2.477149
v -0.4516361 0.121462 -2.521252
v 0.4587125 0.1368192 -2.521252
v 0.4587125 0.1368192 -2.521252
v 0.4807386 0.1254957 -2.477592
v -0.4737934 0.109461 -2.477149
v 0.510734 0.06277929 -2.521252
v 0.4737934 0.109461 -2.477149
v 0.4516361 0.121462 -2.521252
v -0.5107339 -0.09557407 -2.521252
v -0.4737934 -0.1422558 -2.477149
v -0.4516361 -0.1542568 -2.521252
v 0.4587125 -0.169614 -2.521252
v 0.4807386 -0.1582905 -2.477592
v 0.5150043 -0.1128722 -2.521252
v -0.4587125 0.1368192 -2.521252
v -0.4807386 0.1254957 -2.477592
v -0.5150042 0.08007737 -2.521252
v -0.4516361 0.121462 -2.521252
v -0.4737934 0.109461 -2.477149
v -0.510734 0.06277929 -2.521252
v 0.4516361 -0.1542568 -2.521252
v 0.4737934 -0.1422558 -2.477149
v 0.5107339 -0.09557407 -2.521252
v -0.5150043 -0.1128722 -2.521252
v -0.4807386 -0.1582905 -2.477592
v -0.4587125 -0.169614 -2.521252
v 0.5150042 0.08007737 -2.521252
v 0.4807386 0.1254957 -2.477592
v 0.4587125 0.1368192 -2.521252
v 0.4516361 0.121462 -2.521252
v 0.4737934 0.109461 -2.477149
v -0.4807386 0.1254957 -2.477592
v -0.442334 0.1122558 -2.430584
v 0.4362726 0.09781784 -2.430584
v -0.4362725 -0.1306127 -2.430584
v -0.4737934 -0.1422558 -2.477149
v -0.5107339 -0.09557407 -2.521252
v -0.442334 0.1122558 -2.430584
v -0.5150042 0.08007737 -2.521252
v -0.4807386 0.1254957 -2.477592
v 0.4807386 -0.1582905 -2.477592
v 0.4587125 -0.169614 -2.521252
v -0.4516361 -0.1542568 -2.521252
v -0.4737934 -0.1422558 -2.477149
v 0.442334 -0.1450506 -2.430584
v -0.4362725 -0.1306127 -2.430584
v 0.5150043 -0.1128722 -2.521252
v 0.4807386 -0.1582905 -2.477592
v 0.442334 -0.1450506 -2.430584
v 0.4362726 0.09781784 -2.430584
v 0.4362726 0.09781784 -2.430584
v 0.510734 0.06277929 -2.521252
v 0.5150043 -0.1128722 -2.521252
v 0.4737934 0.109461 -2.477149
v 0.4587141 -0.1851187 -3.148313
v 0.5151337 -0.1284637 -3.148313
v 0.5106046 0.07677376 -3.148313
v 0.4516377 0.1355493 -3.148313
v -0.4516376 -0.1683441 -3.148313
v -0.458714 0.1523239 -3.148313
v -0.5106045 -0.1095685 -3.148313
v -0.5151336 0.09566893 -3.148313
v 0.4807386 0.1254957 -2.477592
v 0.442334 0.1122558 -2.430584
v -0.4737934 0.109461 -2.477149
v -0.4362726 0.09781784 -2.430584
v 0.5107339 -0.09557407 -2.521252
v 0.4737934 -0.1422558 -2.477149
v 0.4362725 -0.1306127 -2.430584
v 0.442334 0.1122558 -2.430584
v 0.5150042 0.08007737 -2.521252
v 0.4807386 0.1254957 -2.477592
v 0.4737934 -0.1422558 -2.477149
v 0.4516361 -0.1542568 -2.521252
v -0.4587125 -0.169614 -2.521252
v -0.4807386 -0.1582905 -2.477592
v -0.442334 -0.1450506 -2.430584
v 0.4362725 -0.1306127 -2.430584
v -0.442334 -0.1450506 -2.430584
v -0.4807386 -0.1582905 -2.477592
v -0.5150043 -0.1128722 -2.521252
v -0.4362726 0.09781784 -2.430584
v -0.5150043 -0.1128722 -2.521252
v -0.510734 0.06277929 -2.521252
v -0.4362726 0.09781784 -2.430584
v -0.4737934 0.109461 -2.477149
v 0.5106045 -0.1095685 -3.148313
v 0.5151336 0.09566893 -3.148313
v 0.458714 0.1523239 -3.148313
v 0.4516376 -0.1683441 -3.148313
v -0.4516377 0.1355493 -3.148313
v -0.4587141 -0.1851187 -3.148313
v -0.5106046 0.07677376 -3.148313
v -0.5151337 -0.1284637 -3.148313
v 0.4516377 0.1355493 -3.148313
v 0.5106046 0.07677376 -3.148313
v 0.510734 0.06277929 -2.521252
v 0.4516361 0.121462 -2.521252
v -0.4516376 -0.1683441 -3.148313
v -0.5106045 -0.1095685 -3.148313
v -0.5107339 -0.09557407 -2.521252
v -0.4516361 -0.1542568 -2.521252
v 0.4587125 -0.169614 -2.521252
v 0.5150043 -0.1128722 -2.521252
v 0.5151337 -0.1284637 -3.148313
v 0.4587141 -0.1851187 -3.148313
v -0.4587125 0.1368192 -2.521252
v -0.5150042 0.08007737 -2.521252
v -0.5151336 0.09566893 -3.148313
v -0.458714 0.1523239 -3.148313
v -0.5107339 -0.09557407 -2.521252
v -0.5106045 -0.1095685 -3.148313
v -0.5151336 0.09566893 -3.148313
v -0.5150042 0.08007737 -2.521252
v 0.442334 -0.1450506 -2.430584
v -0.4362725 -0.1306127 -2.430584
v -0.442334 0.1122558 -2.430584
v 0.4362726 0.09781784 -2.430584
v 0.4516377 0.1355493 -3.148313
v 0.4516361 0.121462 -2.521252
v -0.4587125 0.1368192 -2.521252
v -0.458714 0.1523239 -3.148313
v 0.5151337 -0.1284637 -3.148313
v 0.5150043 -0.1128722 -2.521252
v 0.510734 0.06277929 -2.521252
v 0.5106046 0.07677376 -3.148313
v -0.4516376 -0.1683441 -3.148313
v -0.4516361 -0.1542568 -2.521252
v 0.4587125 -0.169614 -2.521252
v 0.4587141 -0.1851187 -3.148313
v -0.510734 0.06277929 -2.521252
v -0.5106046 0.07677376 -3.148313
v -0.4516377 0.1355493 -3.148313
v -0.4516361 0.121462 -2.521252
v 0.5107339 -0.09557407 -2.521252
v 0.5106045 -0.1095685 -3.148313
v 0.4516376 -0.1683441 -3.148313
v 0.4516361 -0.1542568 -2.521252
v -0.5151337 -0.1284637 -3.148313
v -0.5150043 -0.1128722 -2.521252
v -0.4587125 -0.169614 -2.521252
v -0.4587141 -0.1851187 -3.148313
v 0.5151336 0.09566893 -3.148313
v 0.5150042 0.08007737 -2.521252
v 0.4587125 0.1368192 -2.521252
v 0.458714 0.1523239 -3.148313
v 0.5151336 0.09566893 -3.148313
v 0.5106045 -0.1095685 -3.148313
v 0.5107339 -0.09557407 -2.521252
v 0.5150042 0.08007737 -2.521252
v 0.442334 0.1122558 -2.430584
v 0.4362725 -0.1306127 -2.430584
v -0.442334 -0.1450506 -2.430584
v -0.4362726 0.09781784 -2.430584
v 0.4587125 0.1368192 -2.521252
v -0.4516361 0.121462 -2.521252
v -0.4516377 0.1355493 -3.148313
v 0.458714 0.1523239 -3.148313
v -0.510734 0.06277929 -2.521252
v -0.5150043 -0.1128722 -2.521252
v -0.5151337 -0.1284637 -3.148313
v -0.5106046 0.07677376 -3.148313
v -0.4587125 -0.169614 -2.521252
v 0.4516361 -0.1542568 -2.521252
v 0.4516376 -0.1683441 -3.148313
v -0.4587141 -0.1851187 -3.148313
vt 0.875 0.5356445
vt 0.8608398 0.5356445
vt 0.6391602 0.5356445
vt 0.625 0.5356445
vt 0.6391602 0.5356445
vt 0.8608398 0.5356445
vt 0.8608398 0.5356445
vt 0.875 0.5356445
vt 0.625 0.5356445
vt 0.5751953 0.5356445
vt 0.625 0.5356445
vt 0.6269531 0.5356445
vt 0.12146 0.5356445
vt 0.125 0.5356445
vt 0.1390381 0.5356445
vt 0.3608398 0.5356445
vt 0.375 0.5356445
vt 0.3745117 0.5361328
vt 0.6308594 0.2141113
vt 0.625 0.2141113
vt 0.5751953 0.2141113
vt 0.6269531 0.5356445
vt 0.625 0.5356445
vt 0.5751953 0.5356445
vt 0.1390381 0.5356445
vt 0.125 0.5356445
vt 0.12146 0.5356445
vt 0.3745117 0.5361328
vt 0.375 0.5356445
vt 0.3608398 0.5356445
vt 0.5751953 0.2141113
vt 0.625 0.2141113
vt 0.6308594 0.2141113
vt 0.6391602 0.5356445
vt 0.625 0.5356445
vt 0.875 0.5356445
vt 0.875 0.5356445
vt 0.625 0.5356445
vt 0.375 0.2141113
vt 0.375 0.2141113
vt 0.4245605 0.2141113
vt 0.625 0.2141113
vt 0.5751953 0.2141113
vt 0.625 0.2141113
vt 0.375 0.5356445
vt 0.3608398 0.5356445
vt 0.1390381 0.5356445
vt 0.125 0.5356445
vt 0.375 0.5356445
vt 0.125 0.5356445
vt 0.4245605 0.5356445
vt 0.375 0.5356445
vt 0.375 0.5356445
vt 0.625 0.5356445
vt 0.625 0.5356445
vt 0.5751953 0.5356445
vt 0.4245605 0.5356445
vt 0.625 0.5356445
vt 0.375 0.4858398
vt 0.4199219 0.5
vt 0.5800781 0.5
vt 0.625 0.4858398
vt 0.375 0.2641602
vt 0.625 0.2641602
vt 0.4199219 0.25
vt 0.5800781 0.25
vt 0.875 0.5356445
vt 0.875 0.5356445
vt 0.625 0.5356445
vt 0.625 0.5356445
vt 0.4245605 0.2141113
vt 0.375 0.2141113
vt 0.375 0.2141113
vt 0.625 0.2141113
vt 0.5751953 0.2141113
vt 0.625 0.2141113
vt 0.125 0.5356445
vt 0.1390381 0.5356445
vt 0.3608398 0.5356445
vt 0.375 0.5356445
vt 0.375 0.5356445
vt 0.125 0.5356445
vt 0.375 0.5356445
vt 0.375 0.5356445
vt 0.4245605 0.5356445
vt 0.625 0.5356445
vt 0.4245605 0.5356445
vt 0.5751953 0.5356445
vt 0.625 0.5356445
vt 0.625 0.5356445
vt 0.4199219 0.25
vt 0.5800781 0.25
vt 0.625 0.2641602
vt 0.375 0.2641602
vt 0.625 0.4858398
vt 0.375 0.4858398
vt 0.5800781 0.5
vt 0.4199219 0.5
vt 0.6391602 0.5
vt 0.5800781 0.5
vt 0.5751953 0.5356445
vt 0.6391602 0.5356445
vt 0.1390381 0.5
vt 0.125 0.5
vt 0.125 0.5356445
vt 0.1390381 0.5356445
vt 0.3608398 0.5356445
vt 0.4245605 0.5356445
vt 0.4199219 0.5
vt 0.3608398 0.5
vt 0.625 0.2141113
vt 0.5751953 0.2141113
vt 0.5800781 0.25
vt 0.625 0.25
vt 0.4245605 0.2141113
vt 0.4199219 0.25
vt 0.5800781 0.25
vt 0.5751953 0.2141113
vt 0.375 0.5356445
vt 0.375 0.2141113
vt 0.875 0.5356445
vt 0.625 0.5356445
vt 0.6391602 0.5
vt 0.6391602 0.5356445
vt 0.8608398 0.5356445
vt 0.8608398 0.5
vt 0.4199219 0.5
vt 0.4245605 0.5356445
vt 0.5751953 0.5356445
vt 0.5800781 0.5
vt 0.1390381 0.5
vt 0.1390381 0.5356445
vt 0.3608398 0.5356445
vt 0.3608398 0.5
vt 0.5751953 0.5356445
vt 0.5800781 0.5
vt 0.6391602 0.5
vt 0.6391602 0.5356445
vt 0.125 0.5356445
vt 0.125 0.5
vt 0.1390381 0.5
vt 0.1390381 0.5356445
vt 0.4199219 0.5
vt 0.4245605 0.5356445
vt 0.3608398 0.5356445
vt 0.3608398 0.5
vt 0.5800781 0.25
vt 0.5751953 0.2141113
vt 0.625 0.2141113
vt 0.625 0.25
vt 0.5800781 0.25
vt 0.4199219 0.25
vt 0.4245605 0.2141113
vt 0.5751953 0.2141113
vt 0.875 0.5356445
vt 0.375 0.2141113
vt 0.375 0.5356445
vt 0.625 0.5356445
vt 0.8608398 0.5356445
vt 0.6391602 0.5356445
vt 0.6391602 0.5
vt 0.8608398 0.5
vt 0.5751953 0.5356445
vt 0.4245605 0.5356445
vt 0.4199219 0.5
vt 0.5800781 0.5
vt 0.3608398 0.5356445
vt 0.1390381 0.5356445
vt 0.1390381 0.5
vt 0.3608398 0.5
vn 0.01629639 0.9658203 0.2587891
vn 0.01618958 0.9663086 0.2578125
vn 0.01620483 0.9667969 0.2558594
vn -0.01631165 0.9667969 0.2548828
vn -0.01620483 0.9667969 0.2558594
vn -0.01618958 0.9663086 0.2578125
vn -0.01618958 0.9663086 0.2578125
vn -0.01629639 0.9658203 0.2587891
vn -0.01631165 0.9667969 0.2548828
vn 0.703125 0.7075195 -0.07177734
vn 0.6958008 0.7006836 -0.1588135
vn 0.703125 0.7075195 -0.07177734
vn -0.703125 -0.7075195 -0.07177734
vn -0.6958008 -0.7006836 -0.1588135
vn -0.703125 -0.7075195 -0.07177734
vn 0.7075195 -0.7026367 -0.07800293
vn 0.6992188 -0.6938477 -0.1728516
vn 0.7075195 -0.7026367 -0.07800293
vn -0.7075195 0.7026367 -0.07800293
vn -0.6992188 0.6938477 -0.1728516
vn -0.7075195 0.7026367 -0.07800293
vn -0.703125 0.7075195 -0.07177734
vn -0.6958008 0.7006836 -0.1588135
vn -0.703125 0.7075195 -0.07177734
vn 0.703125 -0.7075195 -0.07177734
vn 0.6958008 -0.7006836 -0.1588135
vn 0.703125 -0.7075195 -0.07177734
vn -0.7075195 -0.7026367 -0.07800293
vn -0.6992188 -0.6938477 -0.1728516
vn -0.7075195 -0.7026367 -0.07800293
vn 0.7075195 0.7026367 -0.07800293
vn 0.6992188 0.6938477 -0.1728516
vn 0.7075195 0.7026367 -0.07800293
vn 0.01620483 0.9667969 0.2558594
vn 0.01631165 0.9667969 0.2548828
vn 0.01629639 0.9658203 0.2587891
vn 0.01618958 0.9663086 0.2578125
vn 0.01620483 0.9667969 0.2558594
vn -0.7763672 -0.01899719 0.6298828
vn -0.7763672 -0.01887512 0.6303711
vn -0.7763672 -0.01899719 0.6298828
vn -0.7768555 -0.01901245 0.6293945
vn -0.7768555 -0.01901245 0.6293945
vn -0.7768555 -0.01889038 0.6293945
vn -0.01629639 -0.9658203 0.2587891
vn -0.01618958 -0.9663086 0.2578125
vn -0.01620483 -0.9667969 0.2558594
vn -0.01631165 -0.9667969 0.2548828
vn -0.01618958 -0.9663086 0.2578125
vn -0.01620483 -0.9667969 0.2558594
vn 0.7768555 0.01901245 0.6293945
vn 0.7768555 0.01889038 0.6293945
vn 0.7768555 0.01901245 0.6293945
vn 0.7763672 0.01899719 0.6298828
vn 0.7763672 0.01899719 0.6298828
vn 0.7763672 0.01899719 0.6298828
vn 0.7768555 0.01901245 0.6293945
vn 0.7763672 0.01887512 0.6303711
vn 0 0 -1
vn 0 0 -1
vn 0 0 -1
vn 0 0 -1
vn 0 0 -1
vn 0 0 -1
vn 0 0 -1
vn 0 0 -1
vn -0.01629639 0.9658203 0.2587891
vn -0.01618958 0.9663086 0.2578125
vn -0.01631165 0.9667969 0.2548828
vn -0.01620483 0.9667969 0.2558594
vn 0.7763672 -0.01899719 0.6298828
vn 0.7763672 -0.01887512 0.6303711
vn 0.7763672 -0.01899719 0.6298828
vn 0.7768555 -0.01901245 0.6293945
vn 0.7768555 -0.01901245 0.6293945
vn 0.7768555 -0.01889038 0.6293945
vn 0.01631165 -0.9667969 0.2548828
vn 0.01620483 -0.9667969 0.2558594
vn 0.01618958 -0.9663086 0.2578125
vn 0.01629639 -0.9658203 0.2587891
vn 0.01618958 -0.9663086 0.2578125
vn 0.01620483 -0.9667969 0.2558594
vn -0.7768555 0.01901245 0.6293945
vn -0.7768555 0.01889038 0.6293945
vn -0.7768555 0.01901245 0.6293945
vn -0.7763672 0.01899719 0.6298828
vn -0.7768555 0.01901245 0.6293945
vn -0.7763672 0.01899719 0.6298828
vn -0.7763672 0.01899719 0.6298828
vn -0.7763672 0.01887512 0.6303711
vn 0 0 -1
vn 0 0 -1
vn 0 0 -1
vn 0 0 -1
vn 0 0 -1
vn 0 0 -1
vn 0 0 -1
vn 0 0 -1
vn 0.7050781 0.7089844 0.01579285
vn 0.7050781 0.7089844 0.01579285
vn 0.703125 0.7075195 -0.07177734
vn 0.703125 0.7075195 -0.07177734
vn -0.7050781 -0.7089844 0.01579285
vn -0.7050781 -0.7089844 0.01579285
vn -0.703125 -0.7075195 -0.07177734
vn -0.703125 -0.7075195 -0.07177734
vn 0.7075195 -0.7026367 -0.07800293
vn 0.7075195 -0.7026367 -0.07800293
vn 0.7089844 -0.7050781 0.01754761
vn 0.7089844 -0.7050781 0.01754761
vn -0.7075195 0.7026367 -0.07800293
vn -0.7075195 0.7026367 -0.07800293
vn -0.7089844 0.7050781 0.01754761
vn -0.7089844 0.7050781 0.01754761
vn -0.9995117 -0.0231781 -3.099442E-06
vn -0.9995117 -0.0231781 -3.099442E-06
vn -0.9995117 -0.0231781 -3.099442E-06
vn -0.9995117 -0.0231781 -3.099442E-06
vn 0 0 1
vn 0 0 1
vn 0 0 1
vn 0 0 1
vn 0.01763916 0.9995117 0.02359009
vn 0.01763916 0.9995117 0.02359009
vn 0.01763916 0.9995117 0.02359009
vn 0.01763916 0.9995117 0.02359009
vn 0.9995117 0.0231781 -3.099442E-06
vn 0.9995117 0.0231781 -3.099442E-06
vn 0.9995117 0.0231781 -3.099442E-06
vn 0.9995117 0.0231781 -3.099442E-06
vn -0.01763916 -0.9995117 0.02359009
vn -0.01763916 -0.9995117 0.02359009
vn -0.01763916 -0.9995117 0.02359009
vn -0.01763916 -0.9995117 0.02359009
vn -0.703125 0.7075195 -0.07177734
vn -0.7050781 0.7089844 0.01579285
vn -0.7050781 0.7089844 0.01579285
vn -0.703125 0.7075195 -0.07177734
vn 0.703125 -0.7075195 -0.07177734
vn 0.7050781 -0.7089844 0.01579285
vn 0.7050781 -0.7089844 0.01579285
vn 0.703125 -0.7075195 -0.07177734
vn -0.7089844 -0.7050781 0.01754761
vn -0.7075195 -0.7026367 -0.07800293
vn -0.7075195 -0.7026367 -0.07800293
vn -0.7089844 -0.7050781 0.01754761
vn 0.7089844 0.7050781 0.01754761
vn 0.7075195 0.7026367 -0.07800293
vn 0.7075195 0.7026367 -0.07800293
vn 0.7089844 0.7050781 0.01754761
vn 0.9995117 -0.0231781 -3.099442E-06
vn 0.9995117 -0.0231781 -3.099442E-06
vn 0.9995117 -0.0231781 -3.099442E-06
vn 0.9995117 -0.0231781 -3.099442E-06
vn 0 0 1
vn 0 0 1
vn 0 0 1
vn 0 0 1
vn -0.01763916 0.9995117 0.02359009
vn -0.01763916 0.9995117 0.02359009
vn -0.01763916 0.9995117 0.02359009
vn -0.01763916 0.9995117 0.02359009
vn -0.9995117 0.0231781 -3.099442E-06
vn -0.9995117 0.0231781 -3.099442E-06
vn -0.9995117 0.0231781 -3.099442E-06
vn -0.9995117 0.0231781 -3.099442E-06
vn 0.01763916 -0.9995117 0.02359009
vn 0.01763916 -0.9995117 0.02359009
vn 0.01763916 -0.9995117 0.02359009
vn 0.01763916 -0.9995117 0.02359009
g bow_back__0
f 3/3/3 2/2/2 1/1/1
f 6/6/6 5/5/5 4/4/4
f 9/9/9 8/8/8 7/7/7
f 12/12/12 11/11/11 10/10/10
f 15/15/15 14/14/14 13/13/13
f 18/18/18 17/17/17 16/16/16
f 21/21/21 20/20/20 19/19/19
f 24/24/24 23/23/23 22/22/22
f 27/27/27 26/26/26 25/25/25
f 30/30/30 29/29/29 28/28/28
f 33/33/33 32/32/32 31/31/31
f 36/36/36 35/35/35 34/34/34
f 36/36/36 37/37/37 35/35/35
f 37/37/37 38/38/38 35/35/35
f 41/41/41 40/40/40 39/39/39
f 39/39/39 42/42/42 41/41/41
f 42/42/42 43/43/43 41/41/41
f 42/42/42 44/44/44 43/43/43
f 47/47/47 46/46/46 45/45/45
f 45/45/45 48/48/48 47/47/47
f 45/45/45 49/49/49 48/48/48
f 49/49/49 50/50/50 48/48/48
f 53/53/53 52/52/52 51/51/51
f 51/51/51 54/54/54 53/53/53
f 57/57/57 56/56/56 55/55/55
f 56/56/56 58/58/58 55/55/55
f 61/61/61 60/60/60 59/59/59
f 59/59/59 62/62/62 61/61/61
f 59/59/59 63/63/63 62/62/62
f 63/63/63 64/64/64 62/62/62
f 63/63/63 65/65/65 64/64/64
f 65/65/65 66/66/66 64/64/64
f 69/69/69 68/68/68 67/67/67
f 69/69/69 70/70/70 68/68/68
f 73/73/73 72/72/72 71/71/71
f 71/71/71 74/74/74 73/73/73
f 71/71/71 75/75/75 74/74/74
f 75/75/75 76/76/76 74/74/74
f 79/79/79 78/78/78 77/77/77
f 77/77/77 80/80/80 79/79/79
f 77/77/77 81/81/81 80/80/80
f 77/77/77 82/82/82 81/81/81
f 85/85/85 84/84/84 83/83/83
f 83/83/83 86/86/86 85/85/85
f 89/89/89 88/88/88 87/87/87
f 89/89/89 90/90/90 88/88/88
f 93/93/93 92/92/92 91/91/91
f 91/91/91 94/94/94 93/93/93
f 94/94/94 95/95/95 93/93/93
f 94/94/94 96/96/96 95/95/95
f 96/96/96 97/97/97 95/95/95
f 96/96/96 98/98/98 97/97/97
f 101/101/101 100/100/100 99/99/99
f 102/102/102 101/101/101 99/99/99
f 105/105/105 104/104/104 103/103/103
f 106/106/106 105/105/105 103/103/103
f 109/109/109 108/108/108 107/107/107
f 110/110/110 109/109/109 107/107/107
f 113/113/113 112/112/112 111/111/111
f 114/114/114 113/113/113 111/111/111
f 117/117/117 116/116/116 115/115/115
f 118/118/118 117/117/117 115/115/115
f 121/121/121 120/120/120 119/119/119
f 122/122/122 121/121/121 119/119/119
f 125/125/125 124/124/124 123/123/123
f 126/126/126 125/125/125 123/123/123
f 129/129/129 128/128/128 127/127/127
f 130/130/130 129/129/129 127/127/127
f 133/133/133 132/132/132 131/131/131
f 134/134/134 133/133/133 131/131/131
f 137/137/137 136/136/136 135/135/135
f 138/138/138 137/137/137 135/135/135
f 141/141/141 140/140/140 139/139/139
f 142/142/142 141/141/141 139/139/139
f 145/145/145 144/144/144 143/143/143
f 146/146/146 145/145/145 143/143/143
f 149/149/149 148/148/148 147/147/147
f 150/150/150 149/149/149 147/147/147
f 153/153/153 152/152/152 151/151/151
f 154/154/154 153/153/153 151/151/151
f 157/157/157 156/156/156 155/155/155
f 158/158/158 157/157/157 155/155/155
f 161/161/161 160/160/160 159/159/159
f 162/162/162 161/161/161 159/159/159
f 165/165/165 164/164/164 163/163/163
f 166/166/166 165/165/165 163/163/163
f 169/169/169 168/168/168 167/167/167
f 170/170/170 169/169/169 167/167/167
