g fade
v -1 -1 0
v -1 1 0
v -0.9510567 1 0.3090171
v -0.9510567 -1 0.3090171
v -0.8090172 1 0.5877854
v -0.8090172 -1 0.5877854
v -0.5877854 1 0.8090171
v -0.5877854 -1 0.8090171
v -0.3090171 1 0.9510567
v -0.3090171 -1 0.9510567
v -2.980232E-08 1 1
v -2.980232E-08 -1 1
v 0.309017 1 0.9510566
v 0.309017 -1 0.9510566
v 0.5877852 1 0.809017
v 0.5877852 -1 0.809017
v 0.809017 1 0.5877853
v 0.809017 -1 0.5877853
v 0.9510565 1 0.309017
v 0.9510565 -1 0.309017
v 1 1 0
v 1 -1 0
vt 0 0.01269531
vt 5.304813E-06 0.9594727
vt 0.09997559 0.9594727
vt 0.09997559 0.01269531
vt 0.1999512 0.9594727
vt 0.1999512 0.01269531
vt 0.3000488 0.9594727
vt 0.3000488 0.01269531
vt 0.3999023 0.9594727
vt 0.3999023 0.01268768
vt 0.5 0.9594727
vt 0.5 0.01268768
vt 0.6000977 0.9594727
vt 0.6000977 0.01268768
vt 0.7001953 0.9594727
vt 0.7001953 0.01268768
vt 0.7998047 0.9594727
vt 0.7998047 0.01268768
vt 0.8999023 0.9594727
vt 0.8999023 0.01268768
vt 1 0.9594727
vt 1 0.01268005
vn -0.987793 0 0.1564941
vn -0.987793 0 0.1564941
vn -0.9511719 0 0.309082
vn -0.9511719 0 0.309082
vn -0.809082 0 0.5878906
vn -0.809082 0 0.5878906
vn -0.5878906 0 0.809082
vn -0.5878906 0 0.809082
vn -0.309082 0 0.9511719
vn -0.309082 0 0.9511719
vn 0 0 1
vn 0 0 1
vn 0.309082 0 0.9511719
vn 0.309082 0 0.9511719
vn 0.5878906 0 0.809082
vn 0.5878906 0 0.809082
vn 0.809082 0 0.5878906
vn 0.809082 0 0.5878906
vn 0.9511719 0 0.309082
vn 0.9511719 0 0.309082
vn 0.987793 0 0.1564941
vn 0.987793 0 0.1564941
g fade_0
f 3/3/3 2/2/2 1/1/1
f 4/4/4 3/3/3 1/1/1
f 5/5/5 3/3/3 4/4/4
f 6/6/6 5/5/5 4/4/4
f 7/7/7 5/5/5 6/6/6
f 8/8/8 7/7/7 6/6/6
f 9/9/9 7/7/7 8/8/8
f 10/10/10 9/9/9 8/8/8
f 11/11/11 9/9/9 10/10/10
f 12/12/12 11/11/11 10/10/10
f 13/13/13 11/11/11 12/12/12
f 14/14/14 13/13/13 12/12/12
f 15/15/15 13/13/13 14/14/14
f 16/16/16 15/15/15 14/14/14
f 17/17/17 15/15/15 16/16/16
f 18/18/18 17/17/17 16/16/16
f 19/19/19 17/17/17 18/18/18
f 20/20/20 19/19/19 18/18/18
f 21/21/21 19/19/19 20/20/20
f 22/22/22 21/21/21 20/20/20
