g Flat_Mountain
v 3.137933 0.5 -3.043813
v 2.525725 0.5 -5.326652
v 2.525725 -0.5 -5.326652
v 3.137933 -0.5 -3.043813
v 2.757842 -0.5 -0.1363653
v 2.757842 0.5 -0.1363653
v -3.13334 -0.5 -5.013822
v -3.13334 0.5 -5.013822
v -3.533849 0.5 -2.698774
v -3.533849 -0.5 -2.698774
v -2.321692 -0.5 -0.276996
v -2.321692 0.5 -0.276996
v -3.13334 0.5 -5.013822
v -3.13334 -0.5 -5.013822
v -0.8966793 -0.5 -6.201837
v -0.8966793 0.5 -6.201837
v 1.181619 0.5 -5.976155
v 1.181619 -0.5 -5.976155
v 2.525725 0.5 -5.326652
v 2.525725 -0.5 -5.326652
v -3.533849 0.5 -2.698774
v -3.13334 0.5 -5.013822
v -0.8966793 0.5 -6.201837
v -0.4175331 0.5 -2.824879
v -2.321692 0.5 -0.276996
v -0.4175331 0.5 0.1447532
v 1.262496 0.5 -2.822073
v 1.181619 0.5 -5.976155
v 1.262496 0.5 0.1520904
v 3.137933 0.5 -3.043813
v 2.525725 0.5 -5.326652
v 2.757842 0.5 -0.1363653
v -2.321692 -0.5 -0.276996
v -2.321692 0.5 -0.276996
v -0.4175331 0.5 0.1447532
v -0.4175331 -0.5 0.1447532
v 1.262496 -0.5 0.1520904
v 1.262496 0.5 0.1520904
v 2.757842 -0.5 -0.1363653
v 2.757842 0.5 -0.1363653
vt 0.06506348 0.8466797
vt 0.06506348 0.7763672
vt 0.03527832 0.7763672
vt 0.03527832 0.8466797
vt 0.03527832 0.934082
vt 0.06506348 0.934082
vt 0.9643555 0.1566162
vt 0.9941406 0.1566162
vt 0.9941406 0.08660889
vt 0.9643555 0.08660889
vt 0.9643555 0.005867004
vt 0.9941406 0.005870819
vt 0.9272461 0.7924805
vt 0.9570313 0.7924805
vt 0.9570313 0.7167969
vt 0.9272461 0.7167969
vt 0.9272461 0.6542969
vt 0.9570313 0.6542969
vt 0.9272461 0.6098633
vt 0.9570313 0.6098633
vt 0.1622314 0.9575195
vt 0.2321777 0.9536133
vt 0.2751465 0.8916016
vt 0.177002 0.8657227
vt 0.09484863 0.9130859
vt 0.08905029 0.8549805
vt 0.1828613 0.815918
vt 0.2758789 0.8291016
vt 0.0947876 0.8051758
vt 0.1960449 0.7612305
vt 0.2614746 0.7871094
vt 0.1086426 0.762207
vt 0.9643555 0.3305664
vt 0.9941406 0.3305664
vt 0.9941406 0.2724609
vt 0.9643555 0.2724609
vt 0.9643555 0.2224121
vt 0.9941406 0.2224121
vt 0.9643555 0.177002
vt 0.9941406 0.177002
vn 0.9990234 0 -0.04467773
vn 0.9658203 0 -0.2590332
vn 0.9658203 0 -0.2590332
vn 0.9990234 0 -0.04467773
vn 0.9916992 0 0.1296387
vn 0.9916992 0 0.1296387
vn -0.9853516 0 -0.1704102
vn -0.9853516 0 -0.1704102
vn -0.9858398 0 0.1689453
vn -0.9858398 0 0.1689453
vn -0.894043 0 0.4475098
vn -0.894043 0 0.4475098
vn -0.4689941 0 -0.8833008
vn -0.4689941 0 -0.8833008
vn -0.2176514 0 -0.9760742
vn -0.2176514 0 -0.9760742
vn 0.2478027 0 -0.96875
vn 0.2478027 0 -0.96875
vn 0.4350586 0 -0.9003906
vn 0.4350586 0 -0.9003906
vn 0 1 0
vn 0 1 0
vn 0 1 0
vn 0 1 0
vn 0 1 0
vn 0 1 0
vn 0 1 0
vn 0 1 0
vn 0 1 0
vn 0 1 0
vn 0 1 0
vn 0 1 0
vn -0.2163086 0 0.9765625
vn -0.2163086 0 0.9765625
vn -0.1188965 0 0.9926758
vn -0.1188965 0 0.9926758
vn 0.0881958 0 0.9960938
vn 0.0881958 0 0.9960938
vn 0.1894531 0 0.9819336
vn 0.1894531 0 0.9819336
g Flat_Mountain_0
f 3/3/3 2/2/2 1/1/1
f 4/4/4 3/3/3 1/1/1
f 4/4/4 1/1/1 5/5/5
f 1/1/1 6/6/6 5/5/5
f 9/9/9 8/8/8 7/7/7
f 10/10/10 9/9/9 7/7/7
f 10/10/10 11/11/11 9/9/9
f 11/11/11 12/12/12 9/9/9
f 15/15/15 14/14/14 13/13/13
f 16/16/16 15/15/15 13/13/13
f 16/16/16 17/17/17 15/15/15
f 17/17/17 18/18/18 15/15/15
f 17/17/17 19/19/19 18/18/18
f 19/19/19 20/20/20 18/18/18
f 23/23/23 22/22/22 21/21/21
f 24/24/24 23/23/23 21/21/21
f 24/24/24 21/21/21 25/25/25
f 26/26/26 24/24/24 25/25/25
f 24/24/24 27/27/27 23/23/23
f 24/24/24 26/26/26 27/27/27
f 27/27/27 28/28/28 23/23/23
f 26/26/26 29/29/29 27/27/27
f 27/27/27 30/30/30 28/28/28
f 27/27/27 29/29/29 30/30/30
f 30/30/30 31/31/31 28/28/28
f 29/29/29 32/32/32 30/30/30
f 35/35/35 34/34/34 33/33/33
f 36/36/36 35/35/35 33/33/33
f 36/36/36 37/37/37 35/35/35
f 37/37/37 38/38/38 35/35/35
f 37/37/37 39/39/39 38/38/38
f 39/39/39 40/40/40 38/38/38
