g Ground
v -7.555562 1.01242E-07 5.067603
v -5.041723 -1.085663E-07 7.564929
v -6.418379 -1.085663E-07 6.435659
v -5.49421 0.1059404 5.580589
v -5.914538 0.4287438 3.760953
v -3.557605 0.3492288 6.065931
v -8.401816 1.01242E-07 3.501463
v -3.471885 -3.662145E-09 8.409995
v -8.920595 0.00708881 1.796028
v -1.766624 1.01242E-07 8.928155
v -6.141671 0.3346312 1.940679
v -6.217294 0.359356 0.1857355
v -3.626502 0.2256864 1.920135
v -9.100449 0.02185068 0.02220277
v -8.924077 3.110504E-07 -1.757253
v -3.647619 0.3856922 3.9042
v -1.666282 0.3044616 3.951592
v -1.704773 0.3043058 6.332244
v 0.08500828 0.3724686 6.424082
v 0.00409641 -3.662145E-09 9.100689
v 1.774763 -3.662145E-09 8.926167
v -6.111272 0.4984371 -1.522941
v -5.68447 0.1756937 -3.25602
v -3.598545 0.7860947 -1.38538
v -8.439854 1.779709E-06 -3.470436
v -7.614687 1.989517E-06 -5.059941
v -3.605847 0.3930046 0.2233356
v -1.420334 0.3833233 0.1106476
v -1.547068 0.3010831 1.849727
v 0.14504 0.3796856 1.895689
v 0.1204929 0.2999076 3.981446
v 1.895957 0.3083106 3.919073
v 1.849616 0.3015743 6.28409
v 3.653054 0.4064724 5.969073
v 3.477859 -3.662145E-09 8.403716
v 5.047691 -1.085663E-07 7.564116
v 5.464404 0.08886933 5.457108
v 5.997749 0.2869261 3.628519
v 7.552997 -1.085663E-07 5.058941
v 6.423667 -1.085663E-07 6.434854
v 8.392026 -1.085663E-07 3.489053
v 8.909039 -1.085663E-07 1.78554
v 3.880319 0.7698809 3.829793
v 3.896359 0.242199 1.891966
v 6.304255 0.3672219 1.80451
v 6.356145 0.3514467 0.06273255
v 9.084562 -3.662145E-09 0.01369935
v 8.909937 -3.662145E-09 -1.757621
v 1.896047 0.686253 1.945357
v 1.882445 0.5521842 0.2257794
v 3.837357 0.312248 0.1619855
v 3.716114 0.6142763 -1.499882
v 6.193508 0.2920843 -1.662341
v 5.912196 0.5829654 -3.487267
v 8.39248 -1.085663E-07 -3.460763
v 7.554178 -3.662145E-09 -5.030671
v 0.1505576 0.5670075 0.172381
v 0.1429441 0.4416869 -1.407284
v 1.829526 0.6294839 -1.448244
v 1.741528 0.4447041 -3.440619
v 3.603606 0.7531569 -3.435217
v 3.50017 0.1938242 -5.734612
v 5.420574 0.07840786 -5.360991
v 5.057019 2.061462E-07 -7.536542
v 6.426058 -3.662145E-09 -6.406313
v 3.510263 8.355713E-07 -8.385449
v 1.807641 2.30423E-06 -8.933031
v 1.743204 0.418456 -6.085737
v 0.02168918 0.5479653 -6.165495
v -0.01167874 3.877792E-06 -9.145041
v -1.79209 2.30423E-06 -8.941242
v 0.05497532 0.5324672 -3.350429
v -1.517553 0.6048812 -3.118085
v -1.632964 0.1691002 -5.865483
v -3.321754 0.1319068 -5.470068
v -3.474462 1.01242E-07 -8.377897
v -5.043302 -3.662145E-09 -7.536984
v -1.403103 0.4559191 -1.376577
v -3.399129 0.5446979 -3.170283
v -5.228373 0.07346659 -5.134696
v -6.441121 7.306671E-07 -6.421945
vt 0.3046875 0.006034851
vt 0.40625 0.03726196
vt 0.3569336 0.01678467
vt 0.3474121 0.05322266
vt 0.2929688 0.06860352
vt 0.387207 0.0980835
vt 0.2512207 0.005867004
vt 0.4506836 0.06689453
vt 0.1988525 0.0163269
vt 0.4882813 0.1046753
vt 0.2419434 0.0880127
vt 0.1945801 0.1106567
vt 0.2770996 0.154541
vt 0.1495361 0.03662109
vt 0.1049194 0.06622314
vt 0.3288574 0.1258545
vt 0.3579102 0.1773682
vt 0.420166 0.1429443
vt 0.4477539 0.1888428
vt 0.5175781 0.1490479
vt 0.5380859 0.1983643
vt 0.151123 0.1378174
vt 0.1099243 0.1730957
vt 0.1895752 0.2021484
vt 0.06628418 0.1030884
vt 0.03555298 0.1472168
vt 0.2325439 0.178833
vt 0.2600098 0.2382813
vt 0.3041992 0.2103271
vt 0.3291016 0.2543945
vt 0.3837891 0.2237549
vt 0.4072266 0.2709961
vt 0.4689941 0.2373047
vt 0.4855957 0.2895508
vt 0.5483398 0.2507324
vt 0.5483398 0.3041992
vt 0.4987793 0.345459
vt 0.4570313 0.3852539
vt 0.5170898 0.40625
vt 0.5380859 0.3569336
vt 0.4875488 0.4506836
vt 0.449707 0.4885254
vt 0.4321289 0.3254395
vt 0.3813477 0.3552246
vt 0.4133301 0.4191895
vt 0.3681641 0.4450684
vt 0.4052734 0.5180664
vt 0.355957 0.5380859
vt 0.3552246 0.3005371
vt 0.3093262 0.3242188
vt 0.3354492 0.3774414
vt 0.2893066 0.3967285
vt 0.3205566 0.4648438
vt 0.2678223 0.4819336
vt 0.3034668 0.5483398
vt 0.2497559 0.5483398
vt 0.2836914 0.2792969
vt 0.2414551 0.3010254
vt 0.2641602 0.3461914
vt 0.2098389 0.3718262
vt 0.2370605 0.4206543
vt 0.1738281 0.4511719
vt 0.2103271 0.4970703
vt 0.1479492 0.5175781
vt 0.1971436 0.5380859
vt 0.1038818 0.4887695
vt 0.06542969 0.451416
vt 0.1402588 0.4091797
vt 0.1143188 0.3649902
vt 0.03427124 0.4060059
vt 0.01481628 0.355957
vt 0.1887207 0.3259277
vt 0.1729736 0.28125
vt 0.09790039 0.3164063
vt 0.08459473 0.2663574
vt 0.005859375 0.3034668
vt 0.005996704 0.25
vt 0.2208252 0.2600098
vt 0.1452637 0.2324219
vt 0.06677246 0.2114258
vt 0.01589966 0.1973877
vn -0.128418 0.9829102 0.1334229
vn -0.1051025 0.9882813 0.1091309
vn -0.05914307 0.996582 0.05953979
vn -0.08654785 0.9907227 0.1027832
vn -0.07263184 0.996582 0.0383606
vn -0.03662109 0.9956055 0.08447266
vn -0.1420898 0.9887695 0.04574585
vn -0.04678345 0.9907227 0.1271973
vn -0.1275635 0.9916992 0.01412964
vn -0.02328491 0.9912109 0.12854
vn -0.05831909 0.9980469 0.004508972
vn -0.08465576 0.9946289 0.05856323
vn 0.01054382 1 0.001536369
vn -0.1328125 0.9907227 0.02053833
vn -0.1298828 0.9907227 -0.04464722
vn 0.0008239746 1 -0.0003602505
vn -0.0003175735 1 -0.008453369
vn -0.008872986 0.9975586 0.06628418
vn 0.0008745193 0.9980469 0.06256104
vn 0.0007247925 0.9921875 0.1265869
vn 0.01982117 0.9912109 0.1313477
vn -0.1139526 0.9931641 -0.03024292
vn -0.09661865 0.9882813 -0.1194458
vn -0.02380371 0.9995117 0.0196991
vn -0.08624268 0.9916992 -0.09344482
vn -0.04309082 0.9980469 -0.04312134
vn -0.0003426075 0.9941406 0.1063843
vn -0.01033783 0.9970703 0.07751465
vn -0.02458191 0.9995117 0.0276947
vn -0.06732178 0.9960938 0.05496216
vn -0.02452087 0.9995117 0.02075195
vn -0.0567627 0.9980469 0.03390503
vn -0.01675415 0.996582 0.08306885
vn 0.03939819 0.9916992 0.1234741
vn 0.04586792 0.9897461 0.1347656
vn 0.1264648 0.9853516 0.1124268
vn 0.1453857 0.9814453 0.1233521
vn 0.1221924 0.9916992 0.03878784
vn 0.08630371 0.9921875 0.08740234
vn 0.04577637 0.9980469 0.04577637
vn 0.1200562 0.9907227 0.06628418
vn 0.1326904 0.9907227 0.02453613
vn 0.04516602 0.9985352 0.03018188
vn 0.04669189 0.9980469 -0.04055786
vn 0.07818604 0.9970703 -0.003749847
vn 0.07470703 0.9970703 0.01199341
vn 0.124939 0.9921875 -0.01229095
vn 0.1385498 0.9902344 0.003293991
vn -0.0006723404 1 0.01638794
vn 0.03463745 0.9990234 0.02313232
vn 0.06097412 0.9970703 0.040802
vn 0.04373169 0.996582 0.06896973
vn 0.1148071 0.9921875 0.04446411
vn 0.1293945 0.9892578 -0.07116699
vn 0.1634521 0.9858398 -0.03781128
vn 0.1342773 0.9755859 -0.1732178
vn -0.06866455 0.9975586 0.01647949
vn -0.0244751 0.9995117 0.002126694
vn -0.02378845 0.9995117 0.01631165
vn -0.007591248 0.9990234 -0.0397644
vn 0.03038025 0.996582 -0.07391357
vn 0.05157471 0.9897461 -0.131958
vn 0.08306885 0.9833984 -0.1602783
vn 0.05169678 0.9970703 -0.05651855
vn 0.03823853 0.9985352 -0.03811646
vn 0.08013916 0.9921875 -0.09307861
vn 0.06744385 0.987793 -0.1407471
vn 0.05252075 0.9936523 -0.09899902
vn -0.03044128 0.9951172 -0.09344482
vn -0.03927612 0.9897461 -0.1381836
vn -0.08178711 0.9931641 -0.08514404
vn -0.01596069 0.9995117 -0.01748657
vn -0.01832581 0.9980469 -0.06045532
vn -0.07415771 0.9926758 -0.09509277
vn -0.04867554 0.9941406 -0.09741211
vn -0.02671814 0.9985352 -0.0453186
vn -0.0296936 0.9990234 -0.03695679
vn 0.03829956 0.9980469 0.04690552
vn -0.05596924 0.9897461 -0.1300049
vn -0.06005859 0.9956055 -0.07128906
vn -0.02879333 0.9990234 -0.02989197
g Ground_0
f 3/3/3 2/2/2 1/1/1
f 2/2/2 4/4/4 1/1/1
f 1/1/1 4/4/4 5/5/5
f 6/6/6 4/4/4 2/2/2
f 5/5/5 4/4/4 6/6/6
f 7/7/7 1/1/1 5/5/5
f 8/8/8 6/6/6 2/2/2
f 7/7/7 5/5/5 9/9/9
f 8/8/8 10/10/10 6/6/6
f 5/5/5 11/11/11 9/9/9
f 9/9/9 11/11/11 12/12/12
f 13/13/13 11/11/11 5/5/5
f 12/12/12 11/11/11 13/13/13
f 14/14/14 9/9/9 12/12/12
f 14/14/14 12/12/12 15/15/15
f 16/16/16 5/5/5 6/6/6
f 16/16/16 13/13/13 5/5/5
f 16/16/16 6/6/6 17/17/17
f 16/16/16 17/17/17 13/13/13
f 10/10/10 18/18/18 6/6/6
f 6/6/6 18/18/18 17/17/17
f 19/19/19 18/18/18 10/10/10
f 17/17/17 18/18/18 19/19/19
f 20/20/20 19/19/19 10/10/10
f 20/20/20 21/21/21 19/19/19
f 12/12/12 22/22/22 15/15/15
f 15/15/15 22/22/22 23/23/23
f 24/24/24 22/22/22 12/12/12
f 23/23/23 22/22/22 24/24/24
f 25/25/25 15/15/15 23/23/23
f 25/25/25 23/23/23 26/26/26
f 27/27/27 12/12/12 13/13/13
f 27/27/27 24/24/24 12/12/12
f 27/27/27 13/13/13 28/28/28
f 27/27/27 28/28/28 24/24/24
f 17/17/17 29/29/29 13/13/13
f 13/13/13 29/29/29 28/28/28
f 30/30/30 29/29/29 17/17/17
f 28/28/28 29/29/29 30/30/30
f 31/31/31 17/17/17 19/19/19
f 31/31/31 30/30/30 17/17/17
f 31/31/31 19/19/19 32/32/32
f 31/31/31 32/32/32 30/30/30
f 19/19/19 33/33/33 32/32/32
f 32/32/32 33/33/33 34/34/34
f 21/21/21 33/33/33 19/19/19
f 34/34/34 33/33/33 21/21/21
f 35/35/35 34/34/34 21/21/21
f 35/35/35 36/36/36 34/34/34
f 36/36/36 37/37/37 34/34/34
f 34/34/34 37/37/37 38/38/38
f 39/39/39 37/37/37 36/36/36
f 38/38/38 37/37/37 39/39/39
f 40/40/40 39/39/39 36/36/36
f 41/41/41 38/38/38 39/39/39
f 41/41/41 42/42/42 38/38/38
f 43/43/43 32/32/32 34/34/34
f 43/43/43 34/34/34 38/38/38
f 43/43/43 44/44/44 32/32/32
f 43/43/43 38/38/38 44/44/44
f 42/42/42 45/45/45 38/38/38
f 38/38/38 45/45/45 44/44/44
f 46/46/46 45/45/45 42/42/42
f 44/44/44 45/45/45 46/46/46
f 47/47/47 46/46/46 42/42/42
f 47/47/47 48/48/48 46/46/46
f 44/44/44 49/49/49 32/32/32
f 50/50/50 49/49/49 44/44/44
f 32/32/32 49/49/49 30/30/30
f 30/30/30 49/49/49 50/50/50
f 51/51/51 44/44/44 46/46/46
f 51/51/51 50/50/50 44/44/44
f 51/51/51 46/46/46 52/52/52
f 51/51/51 52/52/52 50/50/50
f 48/48/48 53/53/53 46/46/46
f 46/46/46 53/53/53 52/52/52
f 54/54/54 53/53/53 48/48/48
f 52/52/52 53/53/53 54/54/54
f 55/55/55 54/54/54 48/48/48
f 55/55/55 56/56/56 54/54/54
f 57/57/57 30/30/30 50/50/50
f 57/57/57 50/50/50 58/58/58
f 57/57/57 28/28/28 30/30/30
f 57/57/57 58/58/58 28/28/28
f 52/52/52 59/59/59 50/50/50
f 50/50/50 59/59/59 58/58/58
f 60/60/60 59/59/59 52/52/52
f 58/58/58 59/59/59 60/60/60
f 61/61/61 52/52/52 54/54/54
f 61/61/61 60/60/60 52/52/52
f 61/61/61 54/54/54 62/62/62
f 61/61/61 62/62/62 60/60/60
f 56/56/56 63/63/63 54/54/54
f 54/54/54 63/63/63 62/62/62
f 64/64/64 63/63/63 56/56/56
f 62/62/62 63/63/63 64/64/64
f 65/65/65 64/64/64 56/56/56
f 66/66/66 62/62/62 64/64/64
f 66/66/66 67/67/67 62/62/62
f 67/67/67 68/68/68 62/62/62
f 62/62/62 68/68/68 60/60/60
f 69/69/69 68/68/68 67/67/67
f 60/60/60 68/68/68 69/69/69
f 70/70/70 69/69/69 67/67/67
f 70/70/70 71/71/71 69/69/69
f 72/72/72 58/58/58 60/60/60
f 72/72/72 60/60/60 69/69/69
f 72/72/72 73/73/73 58/58/58
f 72/72/72 69/69/69 73/73/73
f 71/71/71 74/74/74 69/69/69
f 69/69/69 74/74/74 73/73/73
f 75/75/75 74/74/74 71/71/71
f 73/73/73 74/74/74 75/75/75
f 76/76/76 75/75/75 71/71/71
f 76/76/76 77/77/77 75/75/75
f 73/73/73 78/78/78 58/58/58
f 58/58/58 78/78/78 28/28/28
f 28/28/28 78/78/78 24/24/24
f 24/24/24 78/78/78 73/73/73
f 79/79/79 24/24/24 73/73/73
f 79/79/79 73/73/73 75/75/75
f 79/79/79 23/23/23 24/24/24
f 79/79/79 75/75/75 23/23/23
f 75/75/75 80/80/80 23/23/23
f 77/77/77 80/80/80 75/75/75
f 23/23/23 80/80/80 26/26/26
f 26/26/26 80/80/80 77/77/77
f 81/81/81 26/26/26 77/77/77
