g lotus-leaf
v 0.01471044 0.02494737 0.1923114
v 0.04094674 0.01530155 -0.1224441
v 0.4152831 0.05286356 -0.04749531
v 0.4152831 0.05286356 -0.04749531
v 0.04094674 0.01530155 -0.1224441
v 0.1368079 0.03972651 -0.3758771
v -0.2964576 0.03773101 0.3549181
v -0.3566159 0.02494733 0.08067541
v 0.01471044 0.02494737 0.1923114
v -0.09645705 0.03773102 0.4196286
v 0.3411243 0.04040525 0.3220373
v 0.2389422 0.03897456 0.3970996
v 0.01471044 0.02494737 0.1923114
v 0.4152831 0.05286356 -0.04749531
v 0.1368079 0.03972651 -0.3758771
v 0.04094674 0.01530155 -0.1224441
v -0.3192132 0.04019558 -0.1945545
v -0.1250239 0.03972651 -0.3552544
v -0.2812434 0.01011334 0.3994775
v -0.0722234 0.01011335 0.4630222
v 0.03238691 0.01011339 0.2335565
v -0.393923 0.01011334 0.06945939
v 0.4152831 0.01011334 -0.04749531
v -0.3464102 0.01339761 -0.1999998
v 0.364406 0.01011334 0.332653
v 0.2226786 0.01011334 0.4367846
v 0.1368079 0.01011334 -0.3758771
v -0.1368083 0.01011334 -0.375877
v 0.3411243 0.04040525 0.3220373
v 0.364406 0.01011334 0.332653
v 0.2226786 0.01011334 0.4367846
v 0.2389422 0.03897456 0.3970996
v 0.4152831 0.05286356 -0.04749531
v 0.4152831 0.01011334 -0.04749531
v 0.364406 0.01011334 0.332653
v 0.3411243 0.04040525 0.3220373
v 0.1368079 0.03972651 -0.3758771
v 0.1368079 0.01011334 -0.3758771
v 0.4152831 0.01011334 -0.04749531
v 0.4152831 0.05286356 -0.04749531
v -0.1250239 0.03972651 -0.3552544
v -0.1368083 0.01011334 -0.375877
v 0.1368079 0.01011334 -0.3758771
v 0.1368079 0.03972651 -0.3758771
v -0.3192132 0.04019558 -0.1945545
v -0.3464102 0.01339761 -0.1999998
v -0.1368083 0.01011334 -0.375877
v -0.1250239 0.03972651 -0.3552544
v -0.3566159 0.02494733 0.08067541
v -0.393923 0.01011334 0.06945939
v -0.3464102 0.01339761 -0.1999998
v -0.3192132 0.04019558 -0.1945545
v -0.2964576 0.03773101 0.3549181
v -0.2812434 0.01011334 0.3994775
v -0.393923 0.01011334 0.06945939
v -0.3566159 0.02494733 0.08067541
v 0.01471044 0.02494737 0.1923114
v 0.03238691 0.01011339 0.2335565
v -0.0722234 0.01011335 0.4630222
v -0.09645705 0.03773102 0.4196286
v -0.09645705 0.03773102 0.4196286
v -0.0722234 0.01011335 0.4630222
v -0.2812434 0.01011334 0.3994775
v -0.2964576 0.03773101 0.3549181
v 0.2389422 0.03897456 0.3970996
v 0.2226786 0.01011334 0.4367846
v 0.03238691 0.01011339 0.2335565
v 0.01471044 0.02494737 0.1923114
v -0.3566159 0.02494733 0.08067541
v -0.3192132 0.04019558 -0.1945545
v 0.04094674 0.01530155 -0.1224441
v 0.01471044 0.02494737 0.1923114
vt 0.1678978 0.2271735
vt 0.3536766 0.253156
vt 0.3600711 0.08543388
vt 0.3600711 0.08543388
vt 0.3536766 0.253156
vt 0.483035 0.2457828
vt 0.06791151 0.3884047
vt 0.1938131 0.4539024
vt 0.1678978 0.2271735
vt 0.03620424 0.2885818
vt 0.1859573 0.03075928
vt 0.1297384 0.05892136
vt 0.1678978 0.2271735
vt 0.3600711 0.08543388
vt 0.483035 0.2457828
vt 0.3536766 0.253156
vt 0.3459741 0.4551883
vt 0.4535958 0.3717917
vt 0.0458784 0.5311753
vt 0.002367894 0.6389045
vt 0.1189926 0.7051319
vt 0.2260074 0.4870367
vt 0.2498244 0.9212096
vt 0.3665178 0.5249075
vt 0.05084847 0.8763398
vt 0.002367894 0.7963548
vt 0.4369054 0.7891767
vt 0.4498125 0.6442361
vt 0.1859573 0.03075928
vt 0.1826883 0.002367894
vt 0.09557148 0.05044315
vt 0.1297384 0.05892136
vt 0.3600711 0.08543388
vt 0.3794519 0.0587948
vt 0.1826883 0.002367894
vt 0.1859573 0.03075928
vt 0.483035 0.2457828
vt 0.5067453 0.2421897
vt 0.3794519 0.0587948
vt 0.3600711 0.08543388
vt 0.4535958 0.3717917
vt 0.4758805 0.3892949
vt 0.5067453 0.2421897
vt 0.483035 0.2457828
vt 0.3459741 0.4551883
vt 0.3503967 0.4823009
vt 0.4758805 0.3892949
vt 0.4535958 0.3717917
vt 0.1938131 0.4539024
vt 0.1938021 0.4823009
vt 0.3503967 0.4823009
vt 0.3459741 0.4551883
vt 0.06791151 0.3884047
vt 0.03398034 0.3917275
vt 0.1938021 0.4823009
vt 0.1938131 0.4539024
vt 0.1678978 0.2271735
vt 0.1413674 0.2083916
vt 0.002367894 0.2697271
vt 0.03620424 0.2885818
vt 0.03620424 0.2885818
vt 0.002367894 0.2697271
vt 0.03398034 0.3917275
vt 0.06791151 0.3884047
vt 0.1297384 0.05892136
vt 0.09557148 0.05044315
vt 0.1413674 0.2083916
vt 0.1678978 0.2271735
vt 0.1938131 0.4539024
vt 0.3459741 0.4551883
vt 0.3536766 0.253156
vt 0.1678978 0.2271735
vn -0.09219825 0.9950086 -0.03817763
vn -0.09219825 0.9950086 -0.03817763
vn -0.09219825 0.9950086 -0.03817763
vn -0.1103744 0.9924276 0.05389748
vn -0.1103744 0.9924276 0.05389748
vn -0.1103744 0.9924276 0.05389748
vn 0.01523486 0.998665 -0.04935817
vn 0.01523486 0.998665 -0.04935817
vn 0.01523486 0.998665 -0.04935817
vn 0.01523486 0.998665 -0.04935817
vn -0.05156148 0.998612 0.01074534
vn -0.05156148 0.998612 0.01074534
vn -0.05156148 0.998612 0.01074534
vn -0.05156148 0.998612 0.01074534
vn 0.03317639 0.9961731 0.08086061
vn 0.03317639 0.9961731 0.08086061
vn 0.03317639 0.9961731 0.08086061
vn 0.03317639 0.9961731 0.08086061
vn 1.211494E-07 -1 0
vn 1.211494E-07 -1 0
vn 1.211494E-07 -1 0
vn 1.211494E-07 -1 0
vn -1.268503E-07 -1 0
vn -0.004216337 -0.999966 0.007088712
vn -1.268503E-07 -1 0
vn -1.268503E-07 -1 0
vn -0.004216337 -0.999966 0.007088712
vn -0.004216337 -0.999966 0.007088712
vn 0.4697633 0.603558 0.6442361
vn 0.4697633 0.603558 0.6442361
vn 0.4697633 0.603558 0.6442361
vn 0.4697633 0.603558 0.6442361
vn 0.9333311 0.3208933 0.1609989
vn 0.9333311 0.3208933 0.1609989
vn 0.9333311 0.3208933 0.1609989
vn 0.9333311 0.3208933 0.1609989
vn 0.762683 0 -0.6467726
vn 0.762683 0 -0.6467726
vn 0.762683 0 -0.6467726
vn 0.762683 0 -0.6467726
vn -0.03626208 0.3350468 -0.9415034
vn -0.03626208 0.3350468 -0.9415034
vn -0.03626208 0.3350468 -0.9415034
vn -0.03626208 0.3350468 -0.9415034
vn -0.4975109 0.6228142 -0.603809
vn -0.4975109 0.6228142 -0.603809
vn -0.4975109 0.6228142 -0.603809
vn -0.4975109 0.6228142 -0.603809
vn -0.531579 0.8452784 -0.05411183
vn -0.531579 0.8452784 -0.05411183
vn -0.531579 0.8452784 -0.05411183
vn -0.531579 0.8452784 -0.05411183
vn -0.7880272 0.5775522 0.2131824
vn -0.7880272 0.5775522 0.2131824
vn -0.7880272 0.5775522 0.2131824
vn -0.7880272 0.5775522 0.2131824
vn 0.4705775 0.8598028 0.1982317
vn 0.4705775 0.8598028 0.1982317
vn 0.4705775 0.8598028 0.1982317
vn 0.4705775 0.8598028 0.1982317
vn -0.1819247 0.7939118 0.5801789
vn -0.1819247 0.7939118 0.5801789
vn -0.1819247 0.7939118 0.5801789
vn -0.1819247 0.7939118 0.5801789
vn -0.4500504 0.782479 0.4303271
vn -0.4500504 0.782479 0.4303271
vn -0.4500504 0.782479 0.4303271
vn -0.4500504 0.782479 0.4303271
vn 0.03079474 0.9994436 0.01281227
vn 0.03079474 0.9994436 0.01281227
vn 0.03079474 0.9994436 0.01281227
vn 0.03079474 0.9994436 0.01281227
g lotus-leaf_0
f 3/3/3 2/2/2 1/1/1
f 6/6/6 5/5/5 4/4/4
f 9/9/9 8/8/8 7/7/7
f 10/10/10 9/9/9 7/7/7
f 13/13/13 12/12/12 11/11/11
f 14/14/14 13/13/13 11/11/11
f 17/17/17 16/16/16 15/15/15
f 18/18/18 17/17/17 15/15/15
f 21/21/21 20/20/20 19/19/19
f 22/22/22 21/21/21 19/19/19
f 23/23/23 21/21/21 22/22/22
f 24/24/24 23/23/23 22/22/22
f 21/21/21 23/23/23 25/25/25
f 26/26/26 21/21/21 25/25/25
f 23/23/23 24/24/24 27/27/27
f 24/24/24 28/28/28 27/27/27
f 31/31/31 30/30/30 29/29/29
f 32/32/32 31/31/31 29/29/29
f 35/35/35 34/34/34 33/33/33
f 36/36/36 35/35/35 33/33/33
f 39/39/39 38/38/38 37/37/37
f 40/40/40 39/39/39 37/37/37
f 43/43/43 42/42/42 41/41/41
f 44/44/44 43/43/43 41/41/41
f 47/47/47 46/46/46 45/45/45
f 48/48/48 47/47/47 45/45/45
f 51/51/51 50/50/50 49/49/49
f 52/52/52 51/51/51 49/49/49
f 55/55/55 54/54/54 53/53/53
f 56/56/56 55/55/55 53/53/53
f 59/59/59 58/58/58 57/57/57
f 60/60/60 59/59/59 57/57/57
f 63/63/63 62/62/62 61/61/61
f 64/64/64 63/63/63 61/61/61
f 67/67/67 66/66/66 65/65/65
f 68/68/68 67/67/67 65/65/65
f 71/71/71 70/70/70 69/69/69
f 72/72/72 71/71/71 69/69/69
