g lunar-rover-base_FR
v -0.927413 0.4115949 0.6983653
v -0.927413 0.3872735 0.865284
v -0.927413 0.2800937 0.8841826
v -0.927413 0.190236 0.7373968
v -0.927413 0.04575422 1.134357
v -0.927413 0.2800937 1.159758
v -0.927413 0.190236 1.306544
v -0.927413 0.2101371 1.076387
v -0.927413 0.04575422 0.9095834
v -0.927413 0.2101371 0.9675537
v -0.927413 0.6062548 1.233189
v -0.927413 0.4815259 1.12424
v -0.927413 0.518749 1.02197
v -0.927413 0.6831318 1.02197
v -0.927413 0.6062547 0.8107522
v -0.927413 0.4815258 0.9197005
v -0.927413 0.3872735 0.865284
v -0.927413 0.4115949 0.6983653
v -0.927413 0.4115949 1.345575
v -0.927413 0.3872735 1.178657
v -0.927413 0.4815259 1.12424
v -0.927413 0.6062548 1.233189
v -0.927413 0.6831318 1.02197
v -0.927413 0.518749 1.02197
v -0.927413 0.4815258 0.9197005
v -0.927413 0.6062547 0.8107522
v -0.927413 0.190236 0.7373968
v -0.927413 0.2800937 0.8841826
v -0.927413 0.2101371 0.9675537
v -0.927413 0.04575422 0.9095834
v -0.927413 0.190236 1.306544
v -0.927413 0.2800937 1.159758
v -0.927413 0.3872735 1.178657
v -0.927413 0.4115949 1.345575
v -0.8237331 0.626694 1.251042
v -0.8237331 0.7100692 1.02197
v -0.7200533 0.6831318 1.02197
v -0.7200533 0.6062548 1.233189
v -0.823733 0.626694 0.7928988
v -0.823733 0.4155805 0.6710124
v -0.7200531 0.411595 0.6983653
v -0.7200531 0.6062547 0.8107522
v -0.823733 0.01881689 0.9000838
v -0.823733 0.01881689 1.143857
v -0.7200531 0.04575422 1.134357
v -0.7200531 0.04575422 0.9095834
v -0.8237331 0.4155805 1.372928
v -0.8237331 0.626694 1.251042
v -0.7200533 0.6062548 1.233189
v -0.7200533 0.411595 1.345575
v -0.8237331 0.7100692 1.02197
v -0.823733 0.626694 0.7928988
v -0.7200531 0.6062547 0.8107522
v -0.7200533 0.6831318 1.02197
v -0.823733 0.175511 0.713343
v -0.823733 0.01881689 0.9000838
v -0.7200531 0.04575422 0.9095834
v -0.7200531 0.190236 0.7373968
v -0.823733 0.175511 1.330598
v -0.8237331 0.4155805 1.372928
v -0.7200533 0.411595 1.345575
v -0.7200531 0.190236 1.306544
v -0.823733 0.4155805 0.6710124
v -0.823733 0.175511 0.713343
v -0.7200531 0.190236 0.7373968
v -0.7200531 0.411595 0.6983653
v -0.823733 0.01881689 1.143857
v -0.823733 0.175511 1.330598
v -0.7200531 0.190236 1.306544
v -0.7200531 0.04575422 1.134357
v -0.927413 0.04575422 1.134357
v -0.927413 0.190236 1.306544
v -0.823733 0.175511 1.330598
v -0.823733 0.01881689 1.143857
v -0.927413 0.4115949 0.6983653
v -0.927413 0.190236 0.7373968
v -0.823733 0.175511 0.713343
v -0.823733 0.4155805 0.6710124
v -0.927413 0.190236 1.306544
v -0.927413 0.4115949 1.345575
v -0.8237331 0.4155805 1.372928
v -0.823733 0.175511 1.330598
v -0.927413 0.190236 0.7373968
v -0.927413 0.04575422 0.9095834
v -0.823733 0.01881689 0.9000838
v -0.823733 0.175511 0.713343
v -0.927413 0.6831318 1.02197
v -0.927413 0.6062547 0.8107522
v -0.823733 0.626694 0.7928988
v -0.8237331 0.7100692 1.02197
v -0.927413 0.4115949 1.345575
v -0.927413 0.6062548 1.233189
v -0.8237331 0.626694 1.251042
v -0.8237331 0.4155805 1.372928
v -0.927413 0.04575422 0.9095834
v -0.927413 0.04575422 1.134357
v -0.823733 0.01881689 1.143857
v -0.823733 0.01881689 0.9000838
v -0.927413 0.6062547 0.8107522
v -0.927413 0.4115949 0.6983653
v -0.823733 0.4155805 0.6710124
v -0.823733 0.626694 0.7928988
v -0.927413 0.6062548 1.233189
v -0.927413 0.6831318 1.02197
v -0.8237331 0.7100692 1.02197
v -0.8237331 0.626694 1.251042
v -0.7200531 0.190236 0.7373968
v -0.7200531 0.04575422 0.9095834
v -0.7200531 0.04575422 1.134357
v -0.7200531 0.190236 1.306544
v -0.7200533 0.411595 1.345575
v -0.7200531 0.411595 0.6983653
v -0.7200531 0.6062547 0.8107522
v -0.7200533 0.6062548 1.233189
v -0.7200533 0.6831318 1.02197
v -0.927413 0.4815258 0.9197005
v -0.9064912 0.4406754 0.9553826
v -0.9064912 0.3793079 0.9199522
v -0.927413 0.3872735 0.865284
v -0.927413 0.2101371 0.9675537
v -0.9064912 0.2639747 0.9865398
v -0.9064912 0.2639747 1.057401
v -0.927413 0.2101371 1.076387
v -0.927413 0.3872735 1.178657
v -0.9064912 0.3793079 1.123989
v -0.9064912 0.4406754 1.088558
v -0.927413 0.4815259 1.12424
v -0.927413 0.518749 1.02197
v -0.9064912 0.4649113 1.02197
v -0.9064912 0.4406754 0.9553826
v -0.927413 0.4815258 0.9197005
v -0.927413 0.2800937 0.8841826
v -0.9064912 0.3095233 0.9322571
v -0.9064912 0.2639747 0.9865398
v -0.927413 0.2101371 0.9675537
v -0.927413 0.2800937 1.159758
v -0.9064912 0.3095233 1.111684
v -0.9064912 0.3793079 1.123989
v -0.927413 0.3872735 1.178657
v -0.927413 0.3872735 0.865284
v -0.9064912 0.3793079 0.9199522
v -0.9064912 0.3095233 0.9322571
v -0.927413 0.2800937 0.8841826
v -0.927413 0.2101371 1.076387
v -0.9064912 0.2639747 1.057401
v -0.9064912 0.3095233 1.111684
v -0.927413 0.2800937 1.159758
v -0.927413 0.4815259 1.12424
v -0.9064912 0.4406754 1.088558
v -0.9064912 0.4649113 1.02197
v -0.927413 0.518749 1.02197
v -0.9064912 0.4649113 1.02197
v -0.9064912 0.3793079 0.9199522
v -0.9064912 0.4406754 0.9553826
v -0.9064912 0.3095233 0.9322571
v -0.9064912 0.2639747 0.9865398
v -0.9064912 0.2639747 1.057401
v -0.9064912 0.3095233 1.111684
v -0.9064912 0.4406754 1.088558
v -0.9064912 0.3793079 1.123989
vt 0.5025616 0.4432038
vt 0.4862646 0.4621669
vt 0.4975923 0.477528
vt 0.5215625 0.4638708
vt 0.3726961 0.4796783
vt 0.4096362 0.4715762
vt 0.3888695 0.4543269
vt 0.4006478 0.4895886
vt 0.364146 0.5165897
vt 0.3989832 0.5106891
vt 0.4332116 0.4272008
vt 0.439042 0.4494619
vt 0.4556281 0.446221
vt 0.4570206 0.4252924
vt 0.4803918 0.4303487
vt 0.4716313 0.451622
vt 0.4862646 0.4621669
vt 0.5025616 0.4432038
vt 0.4096921 0.436918
vt 0.4231006 0.4579644
vt 0.439042 0.4494619
vt 0.4332116 0.4272008
vt 0.4570206 0.4252924
vt 0.4556281 0.446221
vt 0.4716313 0.451622
vt 0.4803918 0.4303487
vt 0.5215625 0.4638708
vt 0.4975923 0.477528
vt 0.5030568 0.4969704
vt 0.536854 0.496537
vt 0.3888695 0.4543269
vt 0.4096362 0.4715762
vt 0.4231006 0.4579644
vt 0.4096921 0.436918
vt 0.4297478 0.4148441
vt 0.4578725 0.4124644
vt 0.4587584 0.3990136
vt 0.4268316 0.4005731
vt 0.4854672 0.4185329
vt 0.5114441 0.4328336
vt 0.5204463 0.420138
vt 0.49022 0.404744
vt 0.3437275 0.5123563
vt 0.3583724 0.4728891
vt 0.3425697 0.4639338
vt 0.3250619 0.5026963
vt 0.4022868 0.425584
vt 0.4297478 0.4148441
vt 0.4268316 0.4005731
vt 0.3949235 0.4119487
vt 0.4578725 0.4124644
vt 0.4854672 0.4185329
vt 0.49022 0.404744
vt 0.4587584 0.3990136
vt 0.5339823 0.4556827
vt 0.5543472 0.4886302
vt 0.569386 0.4765922
vt 0.5468558 0.4447406
vt 0.3777199 0.4450725
vt 0.4022868 0.425584
vt 0.3949235 0.4119487
vt 0.3659923 0.4333608
vt 0.5114441 0.4328336
vt 0.5339823 0.4556827
vt 0.5468558 0.4447406
vt 0.5204463 0.420138
vt 0.3583724 0.4728891
vt 0.3777199 0.4450725
vt 0.3659923 0.4333608
vt 0.3425697 0.4639338
vt 0.3726961 0.4796783
vt 0.3888695 0.4543269
vt 0.3777199 0.4450725
vt 0.3583724 0.4728891
vt 0.5025616 0.4432038
vt 0.5215625 0.4638708
vt 0.5339823 0.4556827
vt 0.5114441 0.4328336
vt 0.3888695 0.4543269
vt 0.4096921 0.436918
vt 0.4022868 0.425584
vt 0.3777199 0.4450725
vt 0.5215625 0.4638708
vt 0.536854 0.496537
vt 0.5543472 0.4886302
vt 0.5339823 0.4556827
vt 0.4570206 0.4252924
vt 0.4803918 0.4303487
vt 0.4854672 0.4185329
vt 0.4578725 0.4124644
vt 0.4096921 0.436918
vt 0.4332116 0.4272008
vt 0.4297478 0.4148441
vt 0.4022868 0.425584
vt 0.364146 0.5165897
vt 0.3726961 0.4796783
vt 0.3583724 0.4728891
vt 0.3437275 0.5123563
vt 0.4803918 0.4303487
vt 0.5025616 0.4432038
vt 0.5114441 0.4328336
vt 0.4854672 0.4185329
vt 0.4332116 0.4272008
vt 0.4570206 0.4252924
vt 0.4578725 0.4124644
vt 0.4297478 0.4148441
vt 0.2867342 0.5211364
vt 0.3250619 0.5026963
vt 0.3425697 0.4639338
vt 0.3310653 0.4229863
vt 0.2959319 0.3990135
vt 0.2455204 0.5106257
vt 0.220705 0.4760823
vt 0.2536087 0.4032327
vt 0.2238993 0.4336695
vt 0.9408206 0.4566722
vt 0.9373627 0.4654634
vt 0.9460014 0.4726673
vt 0.9544683 0.4681993
vt 0.9485436 0.5011408
vt 0.9423172 0.4935632
vt 0.9316711 0.4973858
vt 0.9318361 0.5072312
vt 0.9060714 0.4857688
vt 0.9154381 0.4837587
vt 0.9174365 0.4726954
vt 0.909144 0.4681751
vt 0.9228891 0.4566722
vt 0.9261121 0.465547
vt 0.9373627 0.4654634
vt 0.9408206 0.4566722
vt 0.9574728 0.4857674
vt 0.9479501 0.4837601
vt 0.9423172 0.4935632
vt 0.9485436 0.5011408
vt 0.915052 0.5011931
vt 0.9210613 0.4935176
vt 0.9154381 0.4837587
vt 0.9060714 0.4857688
vt 0.9544683 0.4681993
vt 0.9460014 0.4726673
vt 0.9479501 0.4837601
vt 0.9574728 0.4857674
vt 0.9318361 0.5072312
vt 0.9316711 0.4973858
vt 0.9210613 0.4935176
vt 0.915052 0.5011931
vt 0.909144 0.4681751
vt 0.9174365 0.4726954
vt 0.9261121 0.465547
vt 0.9228891 0.4566722
vt 0.9261121 0.465547
vt 0.9460014 0.4726673
vt 0.9373627 0.4654634
vt 0.9479501 0.4837601
vt 0.9423172 0.4935632
vt 0.9316711 0.4973858
vt 0.9210613 0.4935176
vt 0.9174365 0.4726954
vt 0.9154381 0.4837587
vn -1 0 -2.788897E-07
vn -1 0 -2.788897E-07
vn -1 0 -2.788897E-07
vn -1 0 -2.788897E-07
vn -1 0 0
vn -1 0 0
vn -1 0 0
vn -1 0 0
vn -1 0 0
vn -1 0 0
vn -1 -3.625968E-07 -2.89163E-07
vn -1 -3.625968E-07 -2.89163E-07
vn -1 -3.625968E-07 -2.89163E-07
vn -1 -3.625968E-07 -2.89163E-07
vn -1 0 0
vn -1 0 0
vn -1 0 0
vn -1 0 0
vn -1 -1.901669E-07 -8.5505E-07
vn -1 -1.901669E-07 -8.5505E-07
vn -1 -1.901669E-07 -8.5505E-07
vn -1 -1.901669E-07 -8.5505E-07
vn -1 -2.44306E-07 1.445815E-07
vn -1 -2.44306E-07 1.445815E-07
vn -1 -2.44306E-07 1.445815E-07
vn -1 -2.44306E-07 1.445815E-07
vn -1 0 0
vn -1 0 0
vn -1 0 0
vn -1 0 0
vn -1 -1.426655E-07 0
vn -1 -1.426655E-07 0
vn -1 -1.426655E-07 0
vn -1 -1.426655E-07 0
vn 0.2371783 0.9128798 0.3322604
vn 0.2371783 0.9128798 0.3322604
vn 0.2371783 0.9128798 0.3322604
vn 0.2371783 0.9128798 0.3322604
vn 0.2404305 0.4853332 -0.8406218
vn 0.2404305 0.4853332 -0.8406218
vn 0.2404305 0.4853332 -0.8406218
vn 0.2404305 0.4853332 -0.8406218
vn 0.2514639 -0.9678667 0
vn 0.2514639 -0.9678667 0
vn 0.2514639 -0.9678667 0
vn 0.2514639 -0.9678667 0
vn 0.2404301 0.4853327 0.8406221
vn 0.2404301 0.4853327 0.8406221
vn 0.2404301 0.4853327 0.8406221
vn 0.2404301 0.4853327 0.8406221
vn 0.2371778 0.9128798 -0.332261
vn 0.2371778 0.9128798 -0.332261
vn 0.2371778 0.9128798 -0.332261
vn 0.2371778 0.9128798 -0.332261
vn 0.2497495 -0.7417688 -0.622418
vn 0.2497495 -0.7417688 -0.622418
vn 0.2497495 -0.7417688 -0.622418
vn 0.2497495 -0.7417688 -0.622418
vn 0.2453977 -0.1683386 0.9546947
vn 0.2453977 -0.1683386 0.9546947
vn 0.2453977 -0.1683386 0.9546947
vn 0.2453977 -0.1683386 0.9546947
vn 0.2453977 -0.1683382 -0.9546949
vn 0.2453977 -0.1683382 -0.9546949
vn 0.2453977 -0.1683382 -0.9546949
vn 0.2453977 -0.1683382 -0.9546949
vn 0.2497491 -0.7417691 0.6224177
vn 0.2497491 -0.7417691 0.6224177
vn 0.2497491 -0.7417691 0.6224177
vn 0.2497491 -0.7417691 0.6224177
vn -0.2497492 -0.7417692 0.6224177
vn -0.2497492 -0.7417692 0.6224177
vn -0.2497492 -0.7417692 0.6224177
vn -0.2497492 -0.7417692 0.6224177
vn -0.2453977 -0.1683383 -0.9546949
vn -0.2453977 -0.1683383 -0.9546949
vn -0.2453977 -0.1683383 -0.9546949
vn -0.2453977 -0.1683383 -0.9546949
vn -0.2453977 -0.1683386 0.9546947
vn -0.2453977 -0.1683386 0.9546947
vn -0.2453977 -0.1683386 0.9546947
vn -0.2453977 -0.1683386 0.9546947
vn -0.2497497 -0.7417688 -0.622418
vn -0.2497497 -0.7417688 -0.622418
vn -0.2497497 -0.7417688 -0.622418
vn -0.2497497 -0.7417688 -0.622418
vn -0.2371778 0.9128798 -0.3322609
vn -0.2371778 0.9128798 -0.3322609
vn -0.2371778 0.9128798 -0.3322609
vn -0.2371778 0.9128798 -0.3322609
vn -0.2404301 0.4853326 0.8406221
vn -0.2404301 0.4853326 0.8406221
vn -0.2404301 0.4853326 0.8406221
vn -0.2404301 0.4853326 0.8406221
vn -0.251464 -0.9678667 0
vn -0.251464 -0.9678667 0
vn -0.251464 -0.9678667 0
vn -0.251464 -0.9678667 0
vn -0.2404304 0.4853333 -0.8406217
vn -0.2404304 0.4853333 -0.8406217
vn -0.2404304 0.4853333 -0.8406217
vn -0.2404304 0.4853333 -0.8406217
vn -0.2371783 0.9128798 0.3322606
vn -0.2371783 0.9128798 0.3322606
vn -0.2371783 0.9128798 0.3322606
vn -0.2371783 0.9128798 0.3322606
vn 1 1.362202E-07 2.26624E-07
vn 1 1.362202E-07 2.26624E-07
vn 1 1.362202E-07 2.26624E-07
vn 1 1.362202E-07 2.26624E-07
vn 1 1.362202E-07 2.26624E-07
vn 1 1.362202E-07 2.26624E-07
vn 1 1.362202E-07 2.26624E-07
vn 1 1.362202E-07 2.26624E-07
vn 1 1.362202E-07 2.26624E-07
vn -0.9260239 -0.1887325 0.3268942
vn -0.9260239 -0.1887325 0.3268942
vn -0.9260239 -0.1887325 0.3268942
vn -0.9260239 -0.1887325 0.3268942
vn -0.9320926 0.3622201 0
vn -0.9320926 0.3622201 0
vn -0.9320926 0.3622201 0
vn -0.9320926 0.3622201 0
vn -0.9260238 -0.1887322 -0.3268944
vn -0.9260238 -0.1887322 -0.3268944
vn -0.9260238 -0.1887322 -0.3268944
vn -0.9260238 -0.1887322 -0.3268944
vn -0.9240965 -0.3591125 0.1307058
vn -0.9240965 -0.3591125 0.1307058
vn -0.9240965 -0.3591125 0.1307058
vn -0.9240965 -0.3591125 0.1307058
vn -0.9311947 0.2792406 0.2343099
vn -0.9311947 0.2792406 0.2343099
vn -0.9311947 0.2792406 0.2343099
vn -0.9311947 0.2792406 0.2343099
vn -0.9288425 0.06433255 -0.3648466
vn -0.9288425 0.06433255 -0.3648466
vn -0.9288425 0.06433255 -0.3648466
vn -0.9288425 0.06433255 -0.3648466
vn -0.9288423 0.06433226 0.3648471
vn -0.9288423 0.06433226 0.3648471
vn -0.9288423 0.06433226 0.3648471
vn -0.9288423 0.06433226 0.3648471
vn -0.9311946 0.2792403 -0.2343107
vn -0.9311946 0.2792403 -0.2343107
vn -0.9311946 0.2792403 -0.2343107
vn -0.9311946 0.2792403 -0.2343107
vn -0.9240963 -0.3591125 -0.1307068
vn -0.9240963 -0.3591125 -0.1307068
vn -0.9240963 -0.3591125 -0.1307068
vn -0.9240963 -0.3591125 -0.1307068
vn -1 0 0
vn -1 0 0
vn -1 0 0
vn -1 0 0
vn -1 0 0
vn -1 0 0
vn -1 0 0
vn -1 0 0
vn -1 0 0
g lunar-rover-base_FR_0
f 3/3/3 2/2/2 1/1/1
f 4/4/4 3/3/3 1/1/1
f 7/7/7 6/6/6 5/5/5
f 6/6/6 8/8/8 5/5/5
f 5/5/5 8/8/8 9/9/9
f 8/8/8 10/10/10 9/9/9
f 13/13/13 12/12/12 11/11/11
f 14/14/14 13/13/13 11/11/11
f 17/17/17 16/16/16 15/15/15
f 18/18/18 17/17/17 15/15/15
f 21/21/21 20/20/20 19/19/19
f 22/22/22 21/21/21 19/19/19
f 25/25/25 24/24/24 23/23/23
f 26/26/26 25/25/25 23/23/23
f 29/29/29 28/28/28 27/27/27
f 30/30/30 29/29/29 27/27/27
f 33/33/33 32/32/32 31/31/31
f 34/34/34 33/33/33 31/31/31
f 37/37/37 36/36/36 35/35/35
f 38/38/38 37/37/37 35/35/35
f 41/41/41 40/40/40 39/39/39
f 42/42/42 41/41/41 39/39/39
f 45/45/45 44/44/44 43/43/43
f 46/46/46 45/45/45 43/43/43
f 49/49/49 48/48/48 47/47/47
f 50/50/50 49/49/49 47/47/47
f 53/53/53 52/52/52 51/51/51
f 54/54/54 53/53/53 51/51/51
f 57/57/57 56/56/56 55/55/55
f 58/58/58 57/57/57 55/55/55
f 61/61/61 60/60/60 59/59/59
f 62/62/62 61/61/61 59/59/59
f 65/65/65 64/64/64 63/63/63
f 66/66/66 65/65/65 63/63/63
f 69/69/69 68/68/68 67/67/67
f 70/70/70 69/69/69 67/67/67
f 73/73/73 72/72/72 71/71/71
f 74/74/74 73/73/73 71/71/71
f 77/77/77 76/76/76 75/75/75
f 78/78/78 77/77/77 75/75/75
f 81/81/81 80/80/80 79/79/79
f 82/82/82 81/81/81 79/79/79
f 85/85/85 84/84/84 83/83/83
f 86/86/86 85/85/85 83/83/83
f 89/89/89 88/88/88 87/87/87
f 90/90/90 89/89/89 87/87/87
f 93/93/93 92/92/92 91/91/91
f 94/94/94 93/93/93 91/91/91
f 97/97/97 96/96/96 95/95/95
f 98/98/98 97/97/97 95/95/95
f 101/101/101 100/100/100 99/99/99
f 102/102/102 101/101/101 99/99/99
f 105/105/105 104/104/104 103/103/103
f 106/106/106 105/105/105 103/103/103
f 109/109/109 108/108/108 107/107/107
f 107/107/107 110/110/110 109/109/109
f 107/107/107 111/111/111 110/110/110
f 107/107/107 112/112/112 111/111/111
f 112/112/112 113/113/113 111/111/111
f 113/113/113 114/114/114 111/111/111
f 113/113/113 115/115/115 114/114/114
g lunar-rover-base_FR_1
f 118/118/118 117/117/117 116/116/116
f 119/119/119 118/118/118 116/116/116
f 122/122/122 121/121/121 120/120/120
f 123/123/123 122/122/122 120/120/120
f 126/126/126 125/125/125 124/124/124
f 127/127/127 126/126/126 124/124/124
f 130/130/130 129/129/129 128/128/128
f 131/131/131 130/130/130 128/128/128
f 134/134/134 133/133/133 132/132/132
f 135/135/135 134/134/134 132/132/132
f 138/138/138 137/137/137 136/136/136
f 139/139/139 138/138/138 136/136/136
f 142/142/142 141/141/141 140/140/140
f 143/143/143 142/142/142 140/140/140
f 146/146/146 145/145/145 144/144/144
f 147/147/147 146/146/146 144/144/144
f 150/150/150 149/149/149 148/148/148
f 151/151/151 150/150/150 148/148/148
f 154/154/154 153/153/153 152/152/152
f 153/153/153 155/155/155 152/152/152
f 152/152/152 155/155/155 156/156/156
f 152/152/152 156/156/156 157/157/157
f 157/157/157 158/158/158 152/152/152
f 152/152/152 158/158/158 159/159/159
f 158/158/158 160/160/160 159/159/159
