g m_PartyHat01
v 0.6860196 -0.1743016 -1.6562
v 5.494509E-08 4.967507 4.709579E-08
v 0 -0.1743016 -1.792659
v 1.267599 -0.1743016 -1.2676
v 1.6562 -0.1743016 -0.6860206
v 1.792659 -0.1743016 -1.96074E-08
v 1.6562 -0.1743016 0.6860206
v 1.267599 -0.1743016 1.2676
v 0.68602 -0.1743016 1.6562
v -2.482741E-07 -0.1743016 1.792659
v -0.6860204 -0.1743016 1.6562
v -1.267599 -0.1743016 1.267599
v -1.6562 -0.1743016 0.6860205
v -1.792659 -0.1743016 7.187224E-08
v -1.6562 -0.1743016 -0.6860203
v -1.267599 -0.1743016 -1.267599
v -0.6860203 -0.1743016 -1.6562
v 0 -0.1743016 -1.792659
v 1.162656 -0.1743016 -1.162657
v 0.6292245 -0.1743016 -1.519084
v 5.494509E-08 3.408271 4.709579E-08
v 1.519084 -0.1743016 -0.6292256
v 0 -0.1743016 -1.644245
v 1.644245 -0.1743016 -1.96074E-08
v -0.6292252 -0.1743016 -1.519084
v 1.519084 -0.1743016 0.6292255
v -1.162657 -0.1743016 -1.162657
v 1.162656 -0.1743016 1.162657
v -1.519084 -0.1743016 -0.6292252
v 0.6292249 -0.1743016 1.519084
v -1.644245 -0.1743016 7.187224E-08
v -2.482741E-07 -0.1743016 1.644245
v -1.519084 -0.1743016 0.6292254
v -0.6292253 -0.1743016 1.519084
v -1.162657 -0.1743016 1.162657
v 1.162656 -0.1743016 -1.162657
v 0.6860196 -0.1743016 -1.6562
v 0.6292245 -0.1743016 -1.519084
v 1.267599 -0.1743016 -1.2676
v 0 -0.1743016 -1.792659
v 1.519084 -0.1743016 -0.6292256
v 0 -0.1743016 -1.644245
v 1.6562 -0.1743016 -0.6860206
v -0.6860203 -0.1743016 -1.6562
v 1.644245 -0.1743016 -1.96074E-08
v -0.6292252 -0.1743016 -1.519084
v 1.792659 -0.1743016 -1.96074E-08
v -1.267599 -0.1743016 -1.267599
v 1.519084 -0.1743016 0.6292255
v -1.162657 -0.1743016 -1.162657
v 1.6562 -0.1743016 0.6860206
v -1.6562 -0.1743016 -0.6860203
v 1.162656 -0.1743016 1.162657
v -1.519084 -0.1743016 -0.6292252
v 1.267599 -0.1743016 1.2676
v -1.792659 -0.1743016 7.187224E-08
v 0.6292249 -0.1743016 1.519084
v -1.644245 -0.1743016 7.187224E-08
v 0.68602 -0.1743016 1.6562
v -1.6562 -0.1743016 0.6860205
v -2.482741E-07 -0.1743016 1.644245
v -1.519084 -0.1743016 0.6292254
v -2.482741E-07 -0.1743016 1.792659
v -1.267599 -0.1743016 1.267599
v -0.6292253 -0.1743016 1.519084
v -1.162657 -0.1743016 1.162657
v -0.6860204 -0.1743016 1.6562
vt 0.169213 0.1020626
vt 0.5482672 0.4920345
vt 0.2223289 0.05669048
vt 0.1223513 0.1538693
vt 0.08251693 0.2112555
vt 0.05036735 0.2732745
vt 0.02643307 0.338903
vt 0.01110884 0.4070582
vt 0.004647487 0.4766153
vt 0.007155681 0.5464268
vt 0.01859214 0.6153411
vt 0.03876814 0.6822205
vt 0.0673505 0.7459621
vt 0.1038679 0.805514
vt 0.1477178 0.8598935
vt 0.1981766 0.9082035
vt 0.2544117 0.9496467
vt 0.3154954 0.9835397
vt 0.971975 0.32044
vt 0.9716378 0.2252382
vt 0.7320685 0.2732162
vt 0.9353245 0.4084497
vt 0.9351043 0.137172
vt 0.8681128 0.4762519
vt 0.8673022 0.06996011
vt 0.7800463 0.5127854
vt 0.7792925 0.03330963
vt 0.6848446 0.5131227
vt 0.6840907 0.03364678
vt 0.5968348 0.4764722
vt 0.5960243 0.07018026
vt 0.5290327 0.4092604
vt 0.5288124 0.1379824
vt 0.4924992 0.321194
vt 0.4921619 0.2259922
vt 0.971975 0.32044
vt 0.9929209 0.221124
vt 0.9716378 0.2252382
vt 0.9929209 0.3245584
vt 0.9532576 0.1251766
vt 0.9353245 0.4084497
vt 0.9351043 0.137172
vt 0.9536966 0.4206585
vt 0.8795109 0.05158817
vt 0.8681128 0.4762519
vt 0.8673022 0.06996011
vt 0.8801081 0.4944051
vt 0.7834109 0.01236366
vt 0.7800463 0.5127854
vt 0.7792925 0.03330963
vt 0.7841606 0.5340686
vt 0.6799765 0.01236364
vt 0.6848446 0.5131227
vt 0.6840907 0.03364678
vt 0.6807262 0.5340686
vt 0.5840288 0.05202698
vt 0.5968348 0.4764722
vt 0.5960243 0.07018026
vt 0.584626 0.4948442
vt 0.5104403 0.1257737
vt 0.5290327 0.4092604
vt 0.5288124 0.1379824
vt 0.5108794 0.4212558
vt 0.471216 0.2218738
vt 0.4924992 0.321194
vt 0.4921619 0.2259922
vt 0.471216 0.3253082
vn 0.3613527 0.329209 -0.8723792
vn -3.582944E-07 1 6.270152E-07
vn -1.408964E-07 0.3292091 -0.9442571
vn 0.6676903 0.3292088 -0.6676909
vn 0.8723792 0.3292091 -0.3613531
vn 0.9442571 0.3292091 0
vn 0.8723792 0.329209 0.3613529
vn 0.6676906 0.3292087 0.6676907
vn 0.3613528 0.329209 0.8723792
vn -2.012806E-07 0.3292092 0.9442571
vn -0.3613531 0.329209 0.8723792
vn -0.6676906 0.3292086 0.6676906
vn -0.8723792 0.329209 0.361353
vn -0.9442571 0.3292091 0
vn -0.8723792 0.329209 -0.361353
vn -0.6676906 0.3292088 -0.6676907
vn -0.361353 0.329209 -0.8723792
vn -1.408964E-07 0.3292091 -0.9442571
vn -0.642654 -0.4171225 0.6426543
vn -0.3478017 -0.4171225 0.8396682
vn 0 -1 2.924339E-07
vn -0.839668 -0.4171226 0.3478021
vn 1.525119E-07 -0.4171226 0.9088503
vn -0.9088503 -0.4171226 0
vn 0.347802 -0.4171227 0.8396682
vn -0.839668 -0.4171226 -0.347802
vn 0.6426542 -0.4171226 0.6426542
vn -0.6426541 -0.4171227 -0.6426543
vn 0.8396682 -0.4171227 0.3478019
vn -0.3478018 -0.4171226 -0.8396682
vn 0.9088502 -0.4171226 0
vn 0 -0.4171226 -0.9088502
vn 0.839668 -0.4171226 -0.347802
vn 0.347802 -0.4171226 -0.839668
vn 0.6426542 -0.4171225 -0.6426541
vn 0 -1 0
vn 0 -1 0
vn 0 -1 0
vn 0 -1 0
vn 0 -1 0
vn 0 -1 0
vn 0 -1 0
vn 0 -1 0
vn 0 -1 0
vn 0 -1 0
vn 0 -1 0
vn 0 -1 0
vn 0 -1 0
vn 0 -1 0
vn 0 -1 0
vn 0 -1 0
vn 0 -1 0
vn 0 -1 0
vn 0 -1 0
vn 0 -1 0
vn 0 -1 0
vn 0 -1 0
vn 0 -1 0
vn 0 -1 0
vn 0 -1 0
vn 0 -1 0
vn 0 -1 0
vn 0 -1 0
vn 0 -1 0
vn 0 -1 0
vn 0 -1 0
vn 0 -1 0
g m_PartyHat01_0
f 3/3/3 2/2/2 1/1/1
f 1/1/1 2/2/2 4/4/4
f 4/4/4 2/2/2 5/5/5
f 5/5/5 2/2/2 6/6/6
f 6/6/6 2/2/2 7/7/7
f 7/7/7 2/2/2 8/8/8
f 8/8/8 2/2/2 9/9/9
f 9/9/9 2/2/2 10/10/10
f 10/10/10 2/2/2 11/11/11
f 11/11/11 2/2/2 12/12/12
f 12/12/12 2/2/2 13/13/13
f 13/13/13 2/2/2 14/14/14
f 14/14/14 2/2/2 15/15/15
f 15/15/15 2/2/2 16/16/16
f 16/16/16 2/2/2 17/17/17
f 17/17/17 2/2/2 18/18/18
f 21/21/21 20/20/20 19/19/19
f 21/21/21 19/19/19 22/22/22
f 21/21/21 23/23/23 20/20/20
f 21/21/21 22/22/22 24/24/24
f 21/21/21 25/25/25 23/23/23
f 21/21/21 24/24/24 26/26/26
f 21/21/21 27/27/27 25/25/25
f 21/21/21 26/26/26 28/28/28
f 21/21/21 29/29/29 27/27/27
f 21/21/21 28/28/28 30/30/30
f 21/21/21 31/31/31 29/29/29
f 21/21/21 30/30/30 32/32/32
f 21/21/21 33/33/33 31/31/31
f 21/21/21 32/32/32 34/34/34
f 21/21/21 35/35/35 33/33/33
f 21/21/21 34/34/34 35/35/35
f 38/38/38 37/37/37 36/36/36
f 37/37/37 39/39/39 36/36/36
f 40/40/40 37/37/37 38/38/38
f 36/36/36 39/39/39 41/41/41
f 42/42/42 40/40/40 38/38/38
f 39/39/39 43/43/43 41/41/41
f 44/44/44 40/40/40 42/42/42
f 41/41/41 43/43/43 45/45/45
f 46/46/46 44/44/44 42/42/42
f 43/43/43 47/47/47 45/45/45
f 48/48/48 44/44/44 46/46/46
f 45/45/45 47/47/47 49/49/49
f 50/50/50 48/48/48 46/46/46
f 47/47/47 51/51/51 49/49/49
f 52/52/52 48/48/48 50/50/50
f 49/49/49 51/51/51 53/53/53
f 54/54/54 52/52/52 50/50/50
f 51/51/51 55/55/55 53/53/53
f 56/56/56 52/52/52 54/54/54
f 53/53/53 55/55/55 57/57/57
f 58/58/58 56/56/56 54/54/54
f 55/55/55 59/59/59 57/57/57
f 60/60/60 56/56/56 58/58/58
f 57/57/57 59/59/59 61/61/61
f 62/62/62 60/60/60 58/58/58
f 59/59/59 63/63/63 61/61/61
f 64/64/64 60/60/60 62/62/62
f 61/61/61 63/63/63 65/65/65
f 66/66/66 64/64/64 62/62/62
f 63/63/63 67/67/67 65/65/65
f 67/67/67 64/64/64 66/66/66
f 65/65/65 67/67/67 66/66/66
