g Magnet
v -0.012 0.002576016 -0.04840328
v -0.012 -0.003217481 -0.02440328
v -0.012 -0.003217481 -0.04840328
v -0.012 0.002576016 -0.02440328
v -0.012 0.006135615 -0.04565965
v -0.012 0.005272066 -0.02228076
v -0.012 0.009695214 -0.04291603
v -0.012 0.007968116 -0.02015825
v -0.012 0.008721743 -0.01583303
v -0.012 0.01265572 -0.03187782
v -0.012 0.01561624 -0.0208396
v -0.012 0.009475369 -0.01150781
v -0.012 0.009547911 -0.005771925
v -0.012 0.01597942 -0.0108735
v -0.012 0.0163426 -0.0009073985
v -0.012 0.009620451 -3.604353E-05
v -0.012 0.01595058 0.009170805
v -0.012 0.009466354 0.004379392
v -0.012 0.01555856 0.01924901
v -0.012 0.009312256 0.008794826
v -0.012 0.00844804 0.01524228
v -0.012 0.01312884 0.03074577
v -0.012 0.01069911 0.04224253
v -0.012 0.007583825 0.02168973
v -0.012 0.005095719 0.0230813
v -0.012 0.006653363 0.0453577
v -0.012 0.002607613 0.04847287
v -0.012 0.002607613 0.02447287
v -0.01224954 -0.003111941 0.0242309
v -0.01224954 -0.003111941 0.04823089
v 0.012 -0.01439478 -0.04773609
v 0.012 -0.01439478 -0.02440329
v 0.012 -0.006971272 -0.02440329
v 0.012 -0.006971272 -0.04773609
v -0.012 -0.01439478 -0.02440329
v 0.012 -0.01439478 -0.02440329
v 0.012 -0.01439478 -0.04773609
v -0.012 -0.01439478 -0.04773609
v -0.012 -0.01439478 -0.04773609
v 0.012 -0.01439478 -0.04773609
v 0.012 -0.006971272 -0.04773609
v -0.012 -0.006971272 -0.04773609
v 0.012 -0.006971272 -0.02440329
v 0.012 -0.01439478 -0.02440329
v -0.012 -0.01439478 -0.02440329
v -0.012 -0.006971272 -0.02440329
v 0.012 -0.01443246 0.04780567
v 0.012 -0.006994963 0.04780567
v 0.012 -0.006994963 0.02447287
v 0.012 -0.01443246 0.02447287
v -0.012 -0.01443246 0.02447287
v -0.012 -0.01443246 0.04780567
v 0.012 -0.01443246 0.04780567
v 0.012 -0.01443246 0.02447287
v -0.012 -0.01443246 0.02447287
v 0.012 -0.01443246 0.02447287
v 0.012 -0.006994963 0.02447287
v -0.012 -0.006994963 0.02447287
v 0.012 -0.006994963 0.04780567
v 0.012 -0.01443246 0.04780567
v -0.012 -0.01443246 0.04780567
v -0.012 -0.006994963 0.04780567
v 0.0105864 -0.007067939 0.04641154
v 0.012 -0.006994963 0.04780567
v -0.012 -0.006994963 0.04780567
v -0.0105864 -0.007067939 0.04641154
v 0.012 -0.006994963 0.02447287
v 0.0105864 -0.007067939 0.02588647
v -0.0105864 -0.007067939 0.02588647
v -0.012 -0.006994963 0.02447287
v 0.012 -0.006994963 0.02447287
v 0.012 -0.006994963 0.04780567
v 0.0105864 -0.007067939 0.04641154
v 0.0105864 -0.007067939 0.02588647
v -0.012 -0.006994963 0.02447287
v -0.012 -0.006994963 0.04780567
v -0.012 -0.01443246 0.04780567
v -0.012 -0.01443246 0.02447287
v 0.012 -0.006971272 -0.02440329
v -0.012 -0.006971272 -0.02440329
v -0.0106674 -0.006971144 -0.02573588
v 0.0106674 -0.006971144 -0.02573588
v -0.012 -0.006971272 -0.04773609
v -0.012 -0.006971272 -0.02440329
v -0.0106674 -0.006971144 -0.04642184
v 0.012 -0.006971272 -0.04773609
v 0.012 -0.006971272 -0.02440329
v 0.0106674 -0.006971144 -0.04642184
v -0.012 -0.006971272 -0.04773609
v 0.012 -0.006971272 -0.04773609
v -0.012 -0.006971272 -0.04773609
v -0.012 -0.006971272 -0.02440329
v -0.012 -0.01439478 -0.02440329
v -0.012 -0.01439478 -0.04773609
v 0.0105864 -0.007067939 0.04641154
v 0.01 -0.003115493 0.04647287
v 0.01 -0.003115493 0.02647287
v 0.0105864 -0.007067939 0.02588647
v 0.0105864 -0.007067939 0.02588647
v 0.01 -0.003115493 0.02647287
v -0.01 -0.003115493 0.02647287
v -0.0105864 -0.007067939 0.02588647
v -0.0105864 -0.007067939 0.04641154
v -0.01 -0.003115493 0.04647287
v 0.01 -0.003115493 0.04647287
v 0.0105864 -0.007067939 0.04641154
v -0.0105864 -0.007067939 0.04641154
v -0.0105864 -0.007067939 0.02588647
v -0.01 -0.003115493 0.02647287
v -0.01 -0.003115493 0.04647287
v 0.0106674 -0.006971144 -0.02573588
v 0.01 -0.003217481 -0.02640328
v 0.01 -0.003217481 -0.04640328
v 0.0106674 -0.006971144 -0.04642184
v 0.0106674 -0.006971144 -0.04642184
v 0.01 -0.003217481 -0.04640328
v -0.01 -0.003217481 -0.04640328
v -0.0106674 -0.006971144 -0.04642184
v -0.0106674 -0.006971144 -0.02573588
v -0.01 -0.003217481 -0.02640328
v 0.01 -0.003217481 -0.02640328
v 0.0106674 -0.006971144 -0.02573588
v -0.01 -0.003217481 -0.02640328
v -0.0106674 -0.006971144 -0.02573588
v -0.0106674 -0.006971144 -0.04642184
v -0.01 -0.003217481 -0.04640328
v 0.01 -0.003115493 0.04647287
v -0.01224954 -0.003111941 0.04823089
v 0.01175046 -0.003111941 0.04823089
v -0.01 -0.003115493 0.04647287
v 0.01175046 -0.003111941 0.0242309
v 0.01175046 -0.003111941 0.04823089
v 0.01 -0.003115493 0.02647287
v -0.01 -0.003115493 0.02647287
v -0.01224954 -0.003111941 0.04823089
v -0.01224954 -0.003111941 0.0242309
v 0.01175046 -0.003111941 0.0242309
v -0.01224954 -0.003111941 0.0242309
v 0.01 -0.003217481 -0.02640328
v -0.012 -0.003217481 -0.02440328
v 0.012 -0.003217481 -0.02440328
v -0.01 -0.003217481 -0.02640328
v 0.01 -0.003217481 -0.04640328
v 0.012 -0.003217481 -0.02440328
v 0.012 -0.003217481 -0.04840328
v -0.01 -0.003217481 -0.04640328
v -0.012 -0.003217481 -0.02440328
v -0.012 -0.003217481 -0.04840328
v 0.012 -0.003217481 -0.04840328
v -0.012 -0.003217481 -0.04840328
v 0.012 0.002607613 0.04847287
v 0.01175046 -0.003111941 0.0242309
v 0.01175046 -0.003111941 0.04823089
v 0.012 0.002607613 0.02447287
v 0.012 0.005095719 0.0230813
v 0.012 0.006653363 0.0453577
v 0.012 0.01069911 0.04224253
v 0.012 0.007583825 0.02168973
v 0.012 0.00844804 0.01524228
v 0.012 0.01312884 0.03074577
v 0.012 0.01555856 0.01924901
v 0.012 0.009312256 0.008794826
v 0.012 0.009466354 0.004379392
v 0.012 0.01595058 0.009170806
v 0.012 0.0163426 -0.0009073985
v 0.012 0.009620451 -3.604353E-05
v 0.012 0.009547911 -0.005771925
v 0.012 0.01597942 -0.0108735
v 0.012 0.01561624 -0.0208396
v 0.012 0.009475369 -0.01150781
v 0.012 0.01265572 -0.03187782
v 0.012 0.008721743 -0.01583303
v 0.012 0.009695214 -0.04291603
v 0.012 0.007968116 -0.02015825
v 0.012 0.006135615 -0.04565965
v 0.012 0.005272066 -0.02228076
v 0.012 0.002576016 -0.04840328
v 0.012 0.002576016 -0.02440328
v 0.012 -0.003217481 -0.02440328
v 0.012 -0.003217481 -0.04840328
v -0.01224954 -0.003111941 0.0242309
v 0.01175046 -0.003111941 0.0242309
v 0.012 0.002607613 0.02447287
v -0.012 0.002607613 0.02447287
v 0.012 0.005095719 0.0230813
v -0.012 0.005095719 0.0230813
v -0.012 0.007583825 0.02168973
v 0.012 0.007583825 0.02168973
v 0.012 0.00844804 0.01524228
v -0.012 0.00844804 0.01524228
v -0.012 0.009312256 0.008794826
v 0.012 0.009312256 0.008794826
v 0.012 0.009466354 0.004379392
v -0.012 0.009466354 0.004379392
v -0.012 0.009620451 -3.604353E-05
v 0.012 0.009620451 -3.604353E-05
v 0.012 0.009547911 -0.005771925
v -0.012 0.009547911 -0.005771925
v -0.012 0.009475369 -0.01150781
v 0.012 0.009475369 -0.01150781
v 0.012 0.008721743 -0.01583303
v -0.012 0.008721743 -0.01583303
v -0.012 0.007968116 -0.02015825
v 0.012 0.007968116 -0.02015825
v 0.012 0.005272066 -0.02228076
v -0.012 0.005272066 -0.02228076
v -0.012 0.002576016 -0.02440328
v 0.012 0.002576016 -0.02440328
v -0.012 -0.003217481 -0.02440328
v 0.012 -0.003217481 -0.02440328
v 0.01175046 -0.003111941 0.04823089
v -0.01224954 -0.003111941 0.04823089
v -0.012 0.002607613 0.04847287
v 0.012 0.002607613 0.04847287
v -0.012 0.006653363 0.0453577
v 0.012 0.006653363 0.0453577
v 0.012 0.01069911 0.04224253
v -0.012 0.01069911 0.04224253
v -0.012 0.01312884 0.03074577
v 0.012 0.01312884 0.03074577
v 0.012 0.01555856 0.01924901
v -0.012 0.01555856 0.01924901
v -0.012 0.01595058 0.009170805
v 0.012 0.01595058 0.009170806
v 0.012 0.0163426 -0.0009073985
v -0.012 0.0163426 -0.0009073985
v -0.012 0.01597942 -0.0108735
v 0.012 0.01597942 -0.0108735
v 0.012 0.01561624 -0.0208396
v -0.012 0.01561624 -0.0208396
v -0.012 0.01265572 -0.03187782
v 0.012 0.01265572 -0.03187782
v -0.012 0.009695214 -0.04291603
v 0.012 0.009695214 -0.04291603
v -0.012 0.006135615 -0.04565965
v 0.012 0.006135615 -0.04565965
v 0.012 0.002576016 -0.04840328
v -0.012 0.002576016 -0.04840328
v -0.012 -0.003217481 -0.04840328
v 0.012 -0.003217481 -0.04840328
v -0.012 -0.006994963 0.02447287
v -0.0105864 -0.007067939 0.02588647
v -0.0105864 -0.007067939 0.04641154
v -0.012 -0.006994963 0.04780567
vn -1 0 0
vn -0.7070313 -0.7070313 0
vn -0.7070313 -0.7070313 0
vn -1 0 0
vn -1 0 0
vn -1 0 0
vn -1 0 0
vn -1 0 0
vn -1 0 0
vn -1 0 0
vn -1 0 0
vn -1 0 0
vn -1 0 0
vn -1 0 0
vn -1 0 0
vn -1 0 0
vn -1 0 0
vn -1 0 0
vn -1 0 0
vn -1 0 0
vn -1 0 0
vn -1 0 0
vn -1 0 0
vn -1 0 0
vn -1 0 0
vn -1 0 0
vn -1 0.02180481 0
vn -1 0.02180481 0
vn -0.7226563 -0.690918 0
vn -0.7226563 -0.690918 0
vn 1 0 0
vn 1 0 0
vn 0.7070313 0.7070313 0
vn 0.7070313 0.7070313 0
vn 0 -1 0
vn 0 -1 0
vn 0 -1 0
vn 0 -1 0
vn 0 0 -1
vn 0 0 -1
vn 0 0.7070313 -0.7070313
vn 0 0.7070313 -0.7070313
vn 0 0.7070313 0.7070313
vn 0 0 1
vn 0 0 1
vn 0 0.7070313 0.7070313
vn 1 0 0
vn 0.6884766 0.7250977 0
vn 0.6884766 0.7250977 0
vn 1 0 0
vn 0 -1 0
vn 0 -1 0
vn 0 -1 0
vn 0 -1 0
vn 0 0 -1
vn 0 0 -1
vn 0 0.7250977 -0.6884766
vn 0 0.7250977 -0.6884766
vn 0 0.7255859 0.6884766
vn 0 0 1
vn 0 0 1
vn 0 0.7255859 0.6884766
vn 0 0.9985352 -0.05227661
vn 0 0.7255859 0.6884766
vn 0 0.7255859 0.6884766
vn 0 0.9985352 -0.05227661
vn 0 0.7250977 -0.6884766
vn 0 0.9985352 0.05154419
vn 0 0.9985352 0.05154419
vn 0 0.7250977 -0.6884766
vn 0.6884766 0.7250977 0
vn 0.6884766 0.7250977 0
vn -0.05154419 0.9985352 0
vn -0.05154419 0.9985352 0
vn -0.6884766 0.7250977 0
vn -0.6884766 0.7250977 0
vn -1 0 0
vn -1 0 0
vn 0 0.7070313 0.7070313
vn 0 0.7070313 0.7070313
vn 0 1 9.572506E-05
vn 0 1 9.572506E-05
vn -0.7070313 0.7070313 0
vn -0.7070313 0.7070313 0
vn 0 1 -9.703636E-05
vn 0.7070313 0.7070313 0
vn 0.7070313 0.7070313 0
vn 0 1 -9.703636E-05
vn 0 0.7070313 -0.7070313
vn 0 0.7070313 -0.7070313
vn -0.7070313 0.7070313 0
vn -0.7070313 0.7070313 0
vn -1 0 0
vn -1 0 0
vn 0.9892578 0.1467285 0
vn 0.9892578 0.1467285 0
vn 0.9892578 0.1467285 0
vn 0.9892578 0.1467285 0
vn 0 0.1467285 -0.9892578
vn 0 0.1467285 -0.9892578
vn 0 0.1467285 -0.9892578
vn 0 0.1467285 -0.9892578
vn 0 -0.01551056 1
vn 0 -0.01551056 1
vn 0 -0.01551056 1
vn 0 -0.01551056 1
vn -0.9892578 0.1467285 0
vn -0.9892578 0.1467285 0
vn -0.9892578 0.1467285 0
vn -0.9892578 0.1467285 0
vn 0.984375 0.1750488 0
vn 0.984375 0.1750488 0
vn 0.984375 0.1750488 0
vn 0.984375 0.1750488 0
vn 0 0.004943848 -1
vn 0 0.004943848 -1
vn 0 0.004943848 -1
vn 0 0.004943848 -1
vn 0 0.1750488 0.984375
vn 0 0.1750488 0.984375
vn 0 0.1750488 0.984375
vn 0 0.1750488 0.984375
vn -0.984375 0.1750488 0
vn -0.984375 0.1750488 0
vn -0.984375 0.1750488 0
vn -0.984375 0.1750488 0
vn 0 -1 0.002019882
vn 0 -0.7211914 0.6928711
vn 0 -0.7211914 0.6928711
vn 0 -1 0.002019882
vn 0.6923828 -0.7216797 0
vn 0.6923828 -0.7216797 0
vn 0 -1 -0.001584053
vn 0 -1 -0.001584053
vn -0.7226563 -0.690918 0
vn -0.7226563 -0.690918 0
vn 0 -0.6914063 -0.7226563
vn 0 -0.6914063 -0.7226563
vn 0 -1 0
vn 0 -0.7070313 0.7070313
vn 0 -0.7070313 0.7070313
vn 0 -1 0
vn 0 -1 0
vn 0.7070313 -0.7070313 0
vn 0.7070313 -0.7070313 0
vn 0 -1 0
vn -0.7070313 -0.7070313 0
vn -0.7070313 -0.7070313 0
vn 0 -0.7070313 -0.7070313
vn 0 -0.7070313 -0.7070313
vn 1 -0.02180481 0
vn 0.6923828 -0.7216797 0
vn 0.6923828 -0.7216797 0
vn 1 -0.02180481 0
vn 1 0 0
vn 1 0 0
vn 1 0 0
vn 1 0 0
vn 1 0 0
vn 1 0 0
vn 1 0 0
vn 1 0 0
vn 1 0 0
vn 1 0 0
vn 1 0 0
vn 1 0 0
vn 1 0 0
vn 1 0 0
vn 1 0 0
vn 1 0 0
vn 1 0 0
vn 1 0 0
vn 1 0 0
vn 1 0 0
vn 1 0 0
vn 1 0 0
vn 1 0 0
vn 1 0 0
vn 0.7070313 -0.7070313 0
vn 0.7070313 -0.7070313 0
vn 0 -0.6914063 -0.7226563
vn 0 -0.6914063 -0.7226563
vn 0 -0.2316895 -0.9726563
vn 0 -0.2316895 -0.9726563
vn 0 -0.4880371 -0.8725586
vn 0 -0.4880371 -0.8725586
vn 0 -0.8271484 -0.5620117
vn 0 -0.8271484 -0.5620117
vn 0 -0.9912109 -0.1328125
vn 0 -0.9912109 -0.1328125
vn 0 -0.996582 -0.08398438
vn 0 -0.996582 -0.08398438
vn 0 -0.9995117 -0.03488159
vn 0 -0.9995117 -0.03488159
vn 0 -1 -0.01111603
vn 0 -1 -0.01111603
vn 0 -1 0.01264954
vn 0 -1 0.01264954
vn 0 -0.9956055 0.09246826
vn 0 -0.9956055 0.09246826
vn 0 -0.9853516 0.1716309
vn 0 -0.9853516 0.1716309
vn 0 -0.8583984 0.5126953
vn 0 -0.8583984 0.5126953
vn 0 -0.6186523 0.7856445
vn 0 -0.6186523 0.7856445
vn 0 -0.3273926 0.9448242
vn 0 -0.3273926 0.9448242
vn 0 -0.7070313 0.7070313
vn 0 -0.7070313 0.7070313
vn 0 -0.7211914 0.6928711
vn 0 -0.7211914 0.6928711
vn 0 0.3022461 0.953125
vn 0 0.3022461 0.953125
vn 0 0.6098633 0.7924805
vn 0 0.6098633 0.7924805
vn 0 0.8466797 0.5322266
vn 0 0.8466797 0.5322266
vn 0 0.9785156 0.2067871
vn 0 0.9785156 0.2067871
vn 0 0.9921875 0.123291
vn 0 0.9921875 0.123291
vn 0 0.9990234 0.03887939
vn 0 0.9990234 0.03887939
vn 0 1 0.001226425
vn 0 1 0.001226425
vn 0 0.9995117 -0.03640747
vn 0 0.9995117 -0.03640747
vn 0 0.9887695 -0.1486816
vn 0 0.9887695 -0.1486816
vn 0 0.9658203 -0.2590332
vn 0 0.9658203 -0.2590332
vn 0 0.8320313 -0.5546875
vn 0 0.8320313 -0.5546875
vn 0 0.6103516 -0.7919922
vn 0 0.6103516 -0.7919922
vn 0 0.3225098 -0.9467773
vn 0 0.3225098 -0.9467773
vn 0 -0.7070313 -0.7070313
vn 0 -0.7070313 -0.7070313
vn -0.6884766 0.7250977 0
vn 0.05154419 0.9985352 0
vn 0.05154419 0.9985352 0
vn -0.6884766 0.7250977 0
g Magnet_0
f 3/3/3 2/2/2 1/1/1
f 2/2/2 4/4/4 1/1/1
f 1/1/1 4/4/4 5/5/5
f 4/4/4 6/6/6 5/5/5
f 7/7/7 5/5/5 6/6/6
f 8/8/8 7/7/7 6/6/6
f 8/8/8 9/9/9 7/7/7
f 9/9/9 10/10/10 7/7/7
f 10/10/10 9/9/9 11/11/11
f 9/9/9 12/12/12 11/11/11
f 12/12/12 13/13/13 11/11/11
f 13/13/13 14/14/14 11/11/11
f 14/14/14 13/13/13 15/15/15
f 13/13/13 16/16/16 15/15/15
f 17/17/17 15/15/15 16/16/16
f 18/18/18 17/17/17 16/16/16
f 17/17/17 18/18/18 19/19/19
f 18/18/18 20/20/20 19/19/19
f 20/20/20 21/21/21 19/19/19
f 21/21/21 22/22/22 19/19/19
f 22/22/22 21/21/21 23/23/23
f 21/21/21 24/24/24 23/23/23
f 24/24/24 25/25/25 23/23/23
f 25/25/25 26/26/26 23/23/23
f 26/26/26 25/25/25 27/27/27
f 25/25/25 28/28/28 27/27/27
f 27/27/27 28/28/28 29/29/29
f 30/30/30 27/27/27 29/29/29
f 33/33/33 32/32/32 31/31/31
f 34/34/34 33/33/33 31/31/31
f 37/37/37 36/36/36 35/35/35
f 38/38/38 37/37/37 35/35/35
f 41/41/41 40/40/40 39/39/39
f 42/42/42 41/41/41 39/39/39
f 45/45/45 44/44/44 43/43/43
f 46/46/46 45/45/45 43/43/43
f 49/49/49 48/48/48 47/47/47
f 50/50/50 49/49/49 47/47/47
f 53/53/53 52/52/52 51/51/51
f 54/54/54 53/53/53 51/51/51
f 57/57/57 56/56/56 55/55/55
f 58/58/58 57/57/57 55/55/55
f 61/61/61 60/60/60 59/59/59
f 62/62/62 61/61/61 59/59/59
f 65/65/65 64/64/64 63/63/63
f 66/66/66 65/65/65 63/63/63
f 69/69/69 68/68/68 67/67/67
f 70/70/70 69/69/69 67/67/67
f 73/73/73 72/72/72 71/71/71
f 74/74/74 73/73/73 71/71/71
f 77/77/77 76/76/76 75/75/75
f 78/78/78 77/77/77 75/75/75
f 81/81/81 80/80/80 79/79/79
f 82/82/82 81/81/81 79/79/79
f 84/84/84 81/81/81 83/83/83
f 81/81/81 85/85/85 83/83/83
f 82/82/82 87/87/87 86/86/86
f 88/88/88 82/82/82 86/86/86
f 85/85/85 88/88/88 89/89/89
f 88/88/88 90/90/90 89/89/89
f 93/93/93 92/92/92 91/91/91
f 94/94/94 93/93/93 91/91/91
f 97/97/97 96/96/96 95/95/95
f 98/98/98 97/97/97 95/95/95
f 101/101/101 100/100/100 99/99/99
f 102/102/102 101/101/101 99/99/99
f 105/105/105 104/104/104 103/103/103
f 106/106/106 105/105/105 103/103/103
f 109/109/109 108/108/108 107/107/107
f 110/110/110 109/109/109 107/107/107
f 113/113/113 112/112/112 111/111/111
f 114/114/114 113/113/113 111/111/111
f 117/117/117 116/116/116 115/115/115
f 118/118/118 117/117/117 115/115/115
f 121/121/121 120/120/120 119/119/119
f 122/122/122 121/121/121 119/119/119
f 125/125/125 124/124/124 123/123/123
f 126/126/126 125/125/125 123/123/123
f 129/129/129 128/128/128 127/127/127
f 128/128/128 130/130/130 127/127/127
f 132/132/132 127/127/127 131/131/131
f 127/127/127 133/133/133 131/131/131
f 130/130/130 135/135/135 134/134/134
f 135/135/135 136/136/136 134/134/134
f 137/137/137 133/133/133 134/134/134
f 138/138/138 137/137/137 134/134/134
f 141/141/141 140/140/140 139/139/139
f 140/140/140 142/142/142 139/139/139
f 144/144/144 139/139/139 143/143/143
f 145/145/145 144/144/144 143/143/143
f 142/142/142 147/147/147 146/146/146
f 147/147/147 148/148/148 146/146/146
f 149/149/149 143/143/143 146/146/146
f 150/150/150 149/149/149 146/146/146
f 153/153/153 152/152/152 151/151/151
f 152/152/152 154/154/154 151/151/151
f 154/154/154 155/155/155 151/151/151
f 155/155/155 156/156/156 151/151/151
f 156/156/156 155/155/155 157/157/157
f 155/155/155 158/158/158 157/157/157
f 158/158/158 159/159/159 157/157/157
f 159/159/159 160/160/160 157/157/157
f 160/160/160 159/159/159 161/161/161
f 159/159/159 162/162/162 161/161/161
f 162/162/162 163/163/163 161/161/161
f 163/163/163 164/164/164 161/161/161
f 165/165/165 164/164/164 163/163/163
f 166/166/166 165/165/165 163/163/163
f 166/166/166 167/167/167 165/165/165
f 167/167/167 168/168/168 165/165/165
f 168/168/168 167/167/167 169/169/169
f 167/167/167 170/170/170 169/169/169
f 171/171/171 169/169/169 170/170/170
f 172/172/172 171/171/171 170/170/170
f 171/171/171 172/172/172 173/173/173
f 172/172/172 174/174/174 173/173/173
f 173/173/173 174/174/174 175/175/175
f 174/174/174 176/176/176 175/175/175
f 177/177/177 175/175/175 176/176/176
f 178/178/178 177/177/177 176/176/176
f 178/178/178 179/179/179 177/177/177
f 179/179/179 180/180/180 177/177/177
f 183/183/183 182/182/182 181/181/181
f 184/184/184 183/183/183 181/181/181
f 185/185/185 183/183/183 184/184/184
f 186/186/186 185/185/185 184/184/184
f 185/185/185 186/186/186 187/187/187
f 188/188/188 185/185/185 187/187/187
f 189/189/189 188/188/188 187/187/187
f 190/190/190 189/189/189 187/187/187
f 189/189/189 190/190/190 191/191/191
f 192/192/192 189/189/189 191/191/191
f 193/193/193 192/192/192 191/191/191
f 194/194/194 193/193/193 191/191/191
f 193/193/193 194/194/194 195/195/195
f 196/196/196 193/193/193 195/195/195
f 197/197/197 196/196/196 195/195/195
f 198/198/198 197/197/197 195/195/195
f 197/197/197 198/198/198 199/199/199
f 200/200/200 197/197/197 199/199/199
f 201/201/201 200/200/200 199/199/199
f 202/202/202 201/201/201 199/199/199
f 201/201/201 202/202/202 203/203/203
f 204/204/204 201/201/201 203/203/203
f 205/205/205 204/204/204 203/203/203
f 206/206/206 205/205/205 203/203/203
f 205/205/205 206/206/206 207/207/207
f 208/208/208 205/205/205 207/207/207
f 207/207/207 209/209/209 208/208/208
f 209/209/209 210/210/210 208/208/208
f 213/213/213 212/212/212 211/211/211
f 214/214/214 213/213/213 211/211/211
f 215/215/215 213/213/213 214/214/214
f 216/216/216 215/215/215 214/214/214
f 215/215/215 216/216/216 217/217/217
f 218/218/218 215/215/215 217/217/217
f 219/219/219 218/218/218 217/217/217
f 220/220/220 219/219/219 217/217/217
f 219/219/219 220/220/220 221/221/221
f 222/222/222 219/219/219 221/221/221
f 223/223/223 222/222/222 221/221/221
f 224/224/224 223/223/223 221/221/221
f 223/223/223 224/224/224 225/225/225
f 226/226/226 223/223/223 225/225/225
f 227/227/227 226/226/226 225/225/225
f 228/228/228 227/227/227 225/225/225
f 227/227/227 228/228/228 229/229/229
f 230/230/230 227/227/227 229/229/229
f 231/231/231 230/230/230 229/229/229
f 232/232/232 231/231/231 229/229/229
f 233/233/233 231/231/231 232/232/232
f 234/234/234 233/233/233 232/232/232
f 235/235/235 233/233/233 234/234/234
f 236/236/236 235/235/235 234/234/234
f 235/235/235 236/236/236 237/237/237
f 238/238/238 235/235/235 237/237/237
f 238/238/238 237/237/237 239/239/239
f 237/237/237 240/240/240 239/239/239
f 243/243/243 242/242/242 241/241/241
f 244/244/244 243/243/243 241/241/241
