g map_island
v 0.08402868 1 0.2028632
v -4.033574E-17 1 0.2195775
v 0 1 0
v 0.1230171 0.9797345 0.2969895
v -5.905108E-17 0.9797345 0.3214591
v -0.08402868 1 0.2028632
v 0 1 0
v 0.2273059 0.9797345 0.2273059
v 0.1552648 1 0.1552648
v 0 1 0
v 0.1560698 0.9220232 0.3767859
v 0.2883795 0.9220232 0.2883795
v -0.1230171 0.9797345 0.2969895
v -7.491719E-17 0.9220232 0.4078301
v -0.1552648 1 0.1552648
v 0 1 0
v 0.2969895 0.9797345 0.1230171
v 0.3767859 0.9220232 0.1560698
v 0.2028632 1 0.08402868
v 0 1 0
v 0.3214591 0.9797345 0
v 0.2195775 1 0
v 0 1 0
v 0.4078301 0.9220232 0
v 0.4655414 0.8356521 0
v 0.4301042 0.8356521 0.178155
v 0.4858069 0.7337706 0
v 0.3291875 0.8356521 0.3291875
v 0.4488271 0.7337706 0.1859103
v 0.178155 0.8356521 0.4301042
v 0.3435174 0.7337706 0.3435174
v 0.4858069 -20.65826 2.067706E-25
v 0.4488271 -20.65826 0.1859103
v 0.4488271 -20.65826 -0.1859103
v 0.4488271 0.7337706 -0.1859103
v 0.3435174 -20.65826 0.3435174
v 0.3435174 -20.65826 -0.3435174
v 0.1859103 0.7337706 0.4488271
v 0.1859103 -20.65826 0.4488271
v -8.551857E-17 0.8356521 0.4655414
v -8.924128E-17 0.7337706 0.4858069
v -8.924128E-17 -20.65826 0.4858069
v -0.1560698 0.9220232 0.3767859
v -0.178155 0.8356521 0.4301042
v -0.1859103 0.7337706 0.4488271
v -0.1859103 -20.65826 0.4488271
v -0.2273059 0.9797345 0.2273059
v -0.2883795 0.9220232 0.2883795
v -0.3291875 0.8356521 0.3291875
v -0.3435174 0.7337706 0.3435174
v -0.3435174 -20.65826 0.3435174
v -0.2028632 1 0.08402868
v 0 1 0
v -0.2969895 0.9797345 0.1230171
v -0.3767859 0.9220232 0.1560698
v -0.4301042 0.8356521 0.178155
v -0.4488271 0.7337706 0.1859103
v -0.4488271 -20.65826 0.1859103
v -0.2195775 1 -2.689049E-17
v 0 1 0
v -0.3214591 0.9797345 -3.936739E-17
v -0.4078301 0.9220232 -4.994479E-17
v -0.4655414 0.8356521 -5.701238E-17
v -0.4858069 0.7337706 -5.949419E-17
v -0.4858069 -20.65826 -5.949419E-17
v -0.2028632 1 -0.08402868
v 0 1 0
v -0.2969895 0.9797345 -0.1230171
v -0.3767859 0.9220232 -0.1560698
v -0.4301042 0.8356521 -0.178155
v -0.4488271 0.7337706 -0.1859103
v -0.4488271 -20.65826 -0.1859103
v -0.1552648 1 -0.1552648
v 0 1 0
v -0.2273059 0.9797345 -0.2273059
v -0.2883795 0.9220232 -0.2883795
v -0.3291875 0.8356521 -0.3291875
v -0.3435174 0.7337706 -0.3435174
v -0.3435174 -20.65826 -0.3435174
v -0.08402868 1 -0.2028632
v 0 1 0
v -0.1230171 0.9797345 -0.2969895
v -0.1560698 0.9220232 -0.3767859
v -0.178155 0.8356521 -0.4301042
v -0.1859103 0.7337706 -0.4488271
v -0.1859103 -20.65826 -0.4488271
v 1.344525E-17 1 -0.2195775
v 0 1 0
v 1.968369E-17 0.9797345 -0.3214591
v 2.497239E-17 0.9220232 -0.4078301
v 2.850619E-17 0.8356521 -0.4655414
v 2.97471E-17 0.7337706 -0.4858069
v 2.97471E-17 -20.65826 -0.4858069
v 0.08402868 1 -0.2028632
v 0 1 0
v 0.1230171 0.9797345 -0.2969895
v 0.1560698 0.9220232 -0.3767859
v 0.178155 0.8356521 -0.4301042
v 0.1859103 0.7337706 -0.4488271
v 0.1859103 -20.65826 -0.4488271
v 0.1552648 1 -0.1552648
v 0 1 0
v 0.2273059 0.9797345 -0.2273059
v 0.2883795 0.9220232 -0.2883795
v 0.3291875 0.8356521 -0.3291875
v 0.3435174 0.7337706 -0.3435174
v 0.2028632 1 -0.08402868
v 0 1 0
v 0.2969895 0.9797345 -0.1230171
v 0.4301042 0.8356521 -0.178155
v 0.3767859 0.9220232 -0.1560698
v 0.2195775 1 0
v 0 1 0
v 0.3214591 0.9797345 0
v 0.4078301 0.9220232 0
v 0.4655414 0.8356521 0
v 0.4858069 0.7337706 0
vt 0.8125 0.9199219
vt 0.75 0.9199219
vt 0.78125 1
vt 0.8125 0.8818359
vt 0.75 0.8818359
vt 0.6875 0.9199219
vt 0.71875 1
vt 0.875 0.8818359
vt 0.875 0.9199219
vt 0.84375 1
vt 0.8125 0.84375
vt 0.875 0.84375
vt 0.6875 0.8818359
vt 0.75 0.84375
vt 0.625 0.9199219
vt 0.65625 1
vt 0.9375 0.8818359
vt 0.9375 0.84375
vt 0.9375 0.9199219
vt 0.90625 1
vt 1 0.8818359
vt 1 0.9199219
vt 0.96875 1
vt 1 0.84375
vt 1 0.8061523
vt 0.9375 0.8061523
vt 1 0.7680664
vt 0.875 0.8061523
vt 0.9375 0.7680664
vt 0.8125 0.8061523
vt 0.875 0.7680664
vt 0 0.7680664
vt 0.9375 0.7680664
vt 0.0625 0.7680664
vt 0.0625 0.7680664
vt 0.875 0.7680664
vt 0.125 0.7680664
vt 0.8125 0.7680664
vt 0.8125 0.7680664
vt 0.75 0.8061523
vt 0.75 0.7680664
vt 0.75 0.7680664
vt 0.6875 0.84375
vt 0.6875 0.8061523
vt 0.6875 0.7680664
vt 0.6875 0.7680664
vt 0.625 0.8818359
vt 0.625 0.84375
vt 0.625 0.8061523
vt 0.625 0.7680664
vt 0.625 0.7680664
vt 0.5625 0.9199219
vt 0.59375 1
vt 0.5625 0.8818359
vt 0.5625 0.84375
vt 0.5625 0.8061523
vt 0.5625 0.7680664
vt 0.5625 0.7680664
vt 0.5 0.9199219
vt 0.53125 1
vt 0.5 0.8818359
vt 0.5 0.84375
vt 0.5 0.8061523
vt 0.5 0.7680664
vt 0.5 0.7680664
vt 0.4375 0.9199219
vt 0.46875 1
vt 0.4375 0.8818359
vt 0.4375 0.84375
vt 0.4375 0.8061523
vt 0.4375 0.7680664
vt 0.4375 0.7680664
vt 0.375 0.9199219
vt 0.40625 1
vt 0.375 0.8818359
vt 0.375 0.84375
vt 0.375 0.8061523
vt 0.375 0.7680664
vt 0.375 0.7680664
vt 0.3125 0.9199219
vt 0.34375 1
vt 0.3125 0.8818359
vt 0.3125 0.84375
vt 0.3125 0.8061523
vt 0.3125 0.7680664
vt 0.3125 0.7680664
vt 0.25 0.9199219
vt 0.28125 1
vt 0.25 0.8818359
vt 0.25 0.84375
vt 0.25 0.8061523
vt 0.25 0.7680664
vt 0.25 0.7680664
vt 0.1875 0.9199219
vt 0.21875 1
vt 0.1875 0.8818359
vt 0.1875 0.84375
vt 0.1875 0.8061523
vt 0.1875 0.7680664
vt 0.1875 0.7680664
vt 0.125 0.9199219
vt 0.15625 1
vt 0.125 0.8818359
vt 0.125 0.84375
vt 0.125 0.8061523
vt 0.125 0.7680664
vt 0.0625 0.9199219
vt 0.09375 1
vt 0.0625 0.8818359
vt 0.0625 0.8061523
vt 0.0625 0.84375
vt 0 0.9199219
vt 0.03125 1
vt 0 0.8818359
vt 0 0.84375
vt 0 0.8061523
vt 0 0.7680664
vn 0.0375061 0.9951172 0.09051514
vn 0 0.9951172 0.09796143
vn 0 1 0
vn 0.1462402 0.9243164 0.3530273
vn 0 0.9243164 0.3820801
vn -0.0375061 0.9951172 0.09051514
vn 0 1 0
vn 0.2702637 0.9243164 0.2702637
vn 0.0692749 0.9951172 0.0692749
vn 0 1 0
vn 0.2705078 0.7075195 0.652832
vn 0.4995117 0.7075195 0.4995117
vn -0.1462402 0.9243164 0.3530273
vn 0 0.7075195 0.706543
vn -0.0692749 0.9951172 0.0692749
vn 0 1 0
vn 0.3530273 0.9243164 0.1462402
vn 0.652832 0.7075195 0.2705078
vn 0.09051514 0.9951172 0.0375061
vn 0 1 0
vn 0.3820801 0.9243164 0
vn 0.09796143 0.9951172 0
vn 0 1 0
vn 0.706543 0.7075195 0
vn 0.9238281 0.3830566 0
vn 0.8535156 0.3830566 0.3535156
vn 0.9951172 0.09802246 0
vn 0.6533203 0.3830566 0.6533203
vn 0.9194336 0.09802246 0.3808594
vn 0.3535156 0.3830566 0.8535156
vn 0.7036133 0.09802246 0.7036133
vn 1 0 0
vn 0.9238281 0 0.3825684
vn 0.9238281 0 -0.3825684
vn 0.9194336 0.09802246 -0.3808594
vn 0.7070313 0 0.7070313
vn 0.7070313 0 -0.7070313
vn 0.3808594 0.09802246 0.9194336
vn 0.3825684 0 0.9238281
vn 0 0.3830566 0.9238281
vn 0 0.09802246 0.9951172
vn 0 0 1
vn -0.2705078 0.7075195 0.652832
vn -0.3535156 0.3830566 0.8535156
vn -0.3808594 0.09802246 0.9194336
vn -0.3825684 0 0.9238281
vn -0.2702637 0.9243164 0.2702637
vn -0.4995117 0.7075195 0.4995117
vn -0.6533203 0.3830566 0.6533203
vn -0.7036133 0.09802246 0.7036133
vn -0.7070313 0 0.7070313
vn -0.09051514 0.9951172 0.0375061
vn 0 1 0
vn -0.3530273 0.9243164 0.1462402
vn -0.652832 0.7075195 0.2705078
vn -0.8535156 0.3830566 0.3535156
vn -0.9194336 0.09802246 0.3808594
vn -0.9238281 0 0.3825684
vn -0.09796143 0.9951172 0
vn 0 1 0
vn -0.3820801 0.9243164 0
vn -0.706543 0.7075195 0
vn -0.9238281 0.3830566 0
vn -0.9951172 0.09802246 0
vn -1 0 0
vn -0.09051514 0.9951172 -0.0375061
vn 0 1 0
vn -0.3530273 0.9243164 -0.1462402
vn -0.652832 0.7075195 -0.2705078
vn -0.8535156 0.3830566 -0.3535156
vn -0.9194336 0.09802246 -0.3808594
vn -0.9238281 0 -0.3825684
vn -0.0692749 0.9951172 -0.0692749
vn 0 1 0
vn -0.2702637 0.9243164 -0.2702637
vn -0.4995117 0.7075195 -0.4995117
vn -0.6533203 0.3830566 -0.6533203
vn -0.7036133 0.09802246 -0.7036133
vn -0.7070313 0 -0.7070313
vn -0.0375061 0.9951172 -0.09051514
vn 0 1 0
vn -0.1462402 0.9243164 -0.3530273
vn -0.2705078 0.7075195 -0.652832
vn -0.3535156 0.3830566 -0.8535156
vn -0.3808594 0.09802246 -0.9194336
vn -0.3825684 0 -0.9238281
vn 0 0.9951172 -0.09796143
vn 0 1 0
vn 0 0.9243164 -0.3820801
vn 0 0.7075195 -0.706543
vn 0 0.3830566 -0.9238281
vn 0 0.09802246 -0.9951172
vn 0 0 -1
vn 0.0375061 0.9951172 -0.09051514
vn 0 1 0
vn 0.1462402 0.9243164 -0.3530273
vn 0.2705078 0.7075195 -0.652832
vn 0.3535156 0.3830566 -0.8535156
vn 0.3808594 0.09802246 -0.9194336
vn 0.3825684 0 -0.9238281
vn 0.0692749 0.9951172 -0.0692749
vn 0 1 0
vn 0.2702637 0.9243164 -0.2702637
vn 0.4995117 0.7075195 -0.4995117
vn 0.6533203 0.3830566 -0.6533203
vn 0.7036133 0.09802246 -0.7036133
vn 0.09051514 0.9951172 -0.0375061
vn 0 1 0
vn 0.3530273 0.9243164 -0.1462402
vn 0.8535156 0.3830566 -0.3535156
vn 0.652832 0.7075195 -0.2705078
vn 0.09796143 0.9951172 0
vn 0 1 0
vn 0.3820801 0.9243164 0
vn 0.706543 0.7075195 0
vn 0.9238281 0.3830566 0
vn 0.9951172 0.09802246 0
g map_island_0
f 3/3/3 2/2/2 1/1/1
f 1/1/1 2/2/2 4/4/4
f 2/2/2 5/5/5 4/4/4
f 2/2/2 6/6/6 5/5/5
f 7/7/7 6/6/6 2/2/2
f 1/1/1 4/4/4 8/8/8
f 9/9/9 1/1/1 8/8/8
f 10/10/10 1/1/1 9/9/9
f 4/4/4 5/5/5 11/11/11
f 8/8/8 4/4/4 12/12/12
f 4/4/4 11/11/11 12/12/12
f 6/6/6 13/13/13 5/5/5
f 5/5/5 14/14/14 11/11/11
f 5/5/5 13/13/13 14/14/14
f 6/6/6 15/15/15 13/13/13
f 16/16/16 15/15/15 6/6/6
f 9/9/9 8/8/8 17/17/17
f 8/8/8 12/12/12 18/18/18
f 17/17/17 8/8/8 18/18/18
f 19/19/19 9/9/9 17/17/17
f 20/20/20 9/9/9 19/19/19
f 19/19/19 17/17/17 21/21/21
f 22/22/22 19/19/19 21/21/21
f 23/23/23 19/19/19 22/22/22
f 21/21/21 17/17/17 24/24/24
f 17/17/17 18/18/18 24/24/24
f 24/24/24 18/18/18 25/25/25
f 18/18/18 26/26/26 25/25/25
f 18/18/18 12/12/12 26/26/26
f 25/25/25 26/26/26 27/27/27
f 12/12/12 28/28/28 26/26/26
f 12/12/12 11/11/11 28/28/28
f 26/26/26 29/29/29 27/27/27
f 26/26/26 28/28/28 29/29/29
f 11/11/11 30/30/30 28/28/28
f 11/11/11 14/14/14 30/30/30
f 28/28/28 31/31/31 29/29/29
f 28/28/28 30/30/30 31/31/31
f 32/32/32 27/27/27 29/29/29
f 33/33/33 32/32/32 29/29/29
f 33/33/33 29/29/29 31/31/31
f 32/32/32 34/34/34 27/27/27
f 34/34/34 35/35/35 27/27/27
f 36/36/36 33/33/33 31/31/31
f 34/34/34 37/37/37 35/35/35
f 36/36/36 31/31/31 38/38/38
f 30/30/30 38/38/38 31/31/31
f 39/39/39 36/36/36 38/38/38
f 14/14/14 40/40/40 30/30/30
f 30/30/30 40/40/40 38/38/38
f 39/39/39 38/38/38 41/41/41
f 40/40/40 41/41/41 38/38/38
f 42/42/42 39/39/39 41/41/41
f 14/14/14 43/43/43 40/40/40
f 13/13/13 43/43/43 14/14/14
f 40/40/40 44/44/44 41/41/41
f 43/43/43 44/44/44 40/40/40
f 42/42/42 41/41/41 45/45/45
f 44/44/44 45/45/45 41/41/41
f 46/46/46 42/42/42 45/45/45
f 13/13/13 47/47/47 43/43/43
f 15/15/15 47/47/47 13/13/13
f 43/43/43 48/48/48 44/44/44
f 47/47/47 48/48/48 43/43/43
f 44/44/44 49/49/49 45/45/45
f 48/48/48 49/49/49 44/44/44
f 46/46/46 45/45/45 50/50/50
f 49/49/49 50/50/50 45/45/45
f 51/51/51 46/46/46 50/50/50
f 15/15/15 52/52/52 47/47/47
f 53/53/53 52/52/52 15/15/15
f 47/47/47 54/54/54 48/48/48
f 52/52/52 54/54/54 47/47/47
f 48/48/48 55/55/55 49/49/49
f 54/54/54 55/55/55 48/48/48
f 49/49/49 56/56/56 50/50/50
f 55/55/55 56/56/56 49/49/49
f 51/51/51 50/50/50 57/57/57
f 56/56/56 57/57/57 50/50/50
f 58/58/58 51/51/51 57/57/57
f 52/52/52 59/59/59 54/54/54
f 60/60/60 59/59/59 52/52/52
f 54/54/54 61/61/61 55/55/55
f 59/59/59 61/61/61 54/54/54
f 55/55/55 62/62/62 56/56/56
f 61/61/61 62/62/62 55/55/55
f 56/56/56 63/63/63 57/57/57
f 62/62/62 63/63/63 56/56/56
f 58/58/58 57/57/57 64/64/64
f 63/63/63 64/64/64 57/57/57
f 65/65/65 58/58/58 64/64/64
f 59/59/59 66/66/66 61/61/61
f 67/67/67 66/66/66 59/59/59
f 61/61/61 68/68/68 62/62/62
f 66/66/66 68/68/68 61/61/61
f 62/62/62 69/69/69 63/63/63
f 68/68/68 69/69/69 62/62/62
f 63/63/63 70/70/70 64/64/64
f 69/69/69 70/70/70 63/63/63
f 65/65/65 64/64/64 71/71/71
f 70/70/70 71/71/71 64/64/64
f 72/72/72 65/65/65 71/71/71
f 66/66/66 73/73/73 68/68/68
f 74/74/74 73/73/73 66/66/66
f 68/68/68 75/75/75 69/69/69
f 73/73/73 75/75/75 68/68/68
f 69/69/69 76/76/76 70/70/70
f 75/75/75 76/76/76 69/69/69
f 70/70/70 77/77/77 71/71/71
f 76/76/76 77/77/77 70/70/70
f 72/72/72 71/71/71 78/78/78
f 77/77/77 78/78/78 71/71/71
f 79/79/79 72/72/72 78/78/78
f 73/73/73 80/80/80 75/75/75
f 81/81/81 80/80/80 73/73/73
f 75/75/75 82/82/82 76/76/76
f 80/80/80 82/82/82 75/75/75
f 76/76/76 83/83/83 77/77/77
f 82/82/82 83/83/83 76/76/76
f 77/77/77 84/84/84 78/78/78
f 83/83/83 84/84/84 77/77/77
f 79/79/79 78/78/78 85/85/85
f 84/84/84 85/85/85 78/78/78
f 86/86/86 79/79/79 85/85/85
f 80/80/80 87/87/87 82/82/82
f 88/88/88 87/87/87 80/80/80
f 82/82/82 89/89/89 83/83/83
f 87/87/87 89/89/89 82/82/82
f 83/83/83 90/90/90 84/84/84
f 89/89/89 90/90/90 83/83/83
f 84/84/84 91/91/91 85/85/85
f 90/90/90 91/91/91 84/84/84
f 86/86/86 85/85/85 92/92/92
f 91/91/91 92/92/92 85/85/85
f 93/93/93 86/86/86 92/92/92
f 87/87/87 94/94/94 89/89/89
f 95/95/95 94/94/94 87/87/87
f 89/89/89 96/96/96 90/90/90
f 94/94/94 96/96/96 89/89/89
f 90/90/90 97/97/97 91/91/91
f 96/96/96 97/97/97 90/90/90
f 91/91/91 98/98/98 92/92/92
f 97/97/97 98/98/98 91/91/91
f 93/93/93 92/92/92 99/99/99
f 98/98/98 99/99/99 92/92/92
f 100/100/100 93/93/93 99/99/99
f 94/94/94 101/101/101 96/96/96
f 102/102/102 101/101/101 94/94/94
f 96/96/96 103/103/103 97/97/97
f 101/101/101 103/103/103 96/96/96
f 97/97/97 104/104/104 98/98/98
f 103/103/103 104/104/104 97/97/97
f 98/98/98 105/105/105 99/99/99
f 104/104/104 105/105/105 98/98/98
f 100/100/100 99/99/99 106/106/106
f 105/105/105 106/106/106 99/99/99
f 37/37/37 100/100/100 106/106/106
f 37/37/37 106/106/106 35/35/35
f 101/101/101 107/107/107 103/103/103
f 108/108/108 107/107/107 101/101/101
f 103/103/103 109/109/109 104/104/104
f 107/107/107 109/109/109 103/103/103
f 105/105/105 110/110/110 106/106/106
f 110/110/110 35/35/35 106/106/106
f 104/104/104 111/111/111 105/105/105
f 109/109/109 111/111/111 104/104/104
f 111/111/111 110/110/110 105/105/105
f 107/107/107 112/112/112 109/109/109
f 113/113/113 112/112/112 107/107/107
f 112/112/112 114/114/114 109/109/109
f 109/109/109 114/114/114 111/111/111
f 114/114/114 115/115/115 111/111/111
f 111/111/111 115/115/115 110/110/110
f 115/115/115 116/116/116 110/110/110
f 110/110/110 116/116/116 35/35/35
f 116/116/116 117/117/117 35/35/35
