g MeteorIcon
v -0.002432337 -0.1505376 -0.1834517
v -0.002432313 -0.07330807 -0.1027291
v -0.002432315 -0.09767745 -0.08842882
v -0.002432294 -0.05609185 -0.005808732
v -0.002432294 -0.002698055 -0.03437253
v -0.002432301 -0.02039338 0.08341251
v -0.002432301 0.07013076 0.02687292
v -0.002432322 0.0006776752 0.1834516
v -0.002432337 0.023084 0.1431951
v -0.002432337 0.04551487 0.1185678
v -0.002432337 0.07311935 0.0999226
v -0.002432337 0.1043414 0.08831073
v -0.002432322 0.1505375 0.08576325
v 0.002432295 -0.1505376 -0.1834517
v 0.002432317 -0.09767747 -0.08842888
v 0.002432317 -0.07330809 -0.1027292
v 0.002432337 -0.05609185 -0.005808713
v 0.002432337 -0.002698084 -0.03437259
v 0.002432331 -0.02039331 0.08341262
v 0.002432331 0.07013077 0.02687294
v 0.00243231 0.0006777515 0.1834517
v 0.002432295 0.02308407 0.1431952
v 0.002432295 0.04551494 0.1185679
v 0.002432295 0.07311943 0.09992271
v 0.002432295 0.1043415 0.08831085
v 0.00243231 0.1505376 0.08576336
v 0.002432295 -0.1505376 -0.1834517
v -0.002432337 -0.1505376 -0.1834517
v -0.002432315 -0.09767745 -0.08842882
v 0.002432317 -0.09767747 -0.08842888
v -0.002432294 -0.05609185 -0.005808732
v 0.002432337 -0.05609185 -0.005808713
v -0.002432301 -0.02039338 0.08341251
v 0.002432331 -0.02039331 0.08341262
v -0.002432322 0.0006776752 0.1834516
v 0.00243231 0.0006777515 0.1834517
v 0.002432317 -0.07330809 -0.1027292
v -0.002432337 -0.1505376 -0.1834517
v 0.002432295 -0.1505376 -0.1834517
v -0.002432313 -0.07330807 -0.1027291
v 0.002432337 -0.002698084 -0.03437259
v -0.002432294 -0.002698055 -0.03437253
v 0.002432331 0.07013077 0.02687294
v -0.002432301 0.07013076 0.02687292
v 0.00243231 0.1505376 0.08576336
v -0.002432322 0.1505375 0.08576325
v 0.002432295 0.1043415 0.08831085
v -0.002432322 0.1505375 0.08576325
v 0.00243231 0.1505376 0.08576336
v -0.002432337 0.1043414 0.08831073
v 0.002432295 0.07311943 0.09992271
v -0.002432337 0.07311935 0.0999226
v 0.002432295 0.04551494 0.1185679
v -0.002432337 0.04551487 0.1185678
v 0.002432295 0.02308407 0.1431952
v -0.002432337 0.023084 0.1431951
v 0.00243231 0.0006777515 0.1834517
v -0.002432322 0.0006776752 0.1834516
vt 0.1439209 0.5537109
vt 0.1429443 0.5522461
vt 0.1428223 0.5541992
vt 0.1405029 0.5556641
vt 0.1402588 0.550293
vt 0.1379395 0.5571289
vt 0.1378174 0.5483398
vt 0.1356201 0.5605469
vt 0.1358643 0.5571289
vt 0.1361084 0.5541992
vt 0.1361084 0.5512695
vt 0.1359863 0.5483398
vt 0.1357422 0.5449219
vt 0.145874 0.5507813
vt 0.1425781 0.5498047
vt 0.1424561 0.5522461
vt 0.1396484 0.5483398
vt 0.1395264 0.5541992
vt 0.1367188 0.5463867
vt 0.1365967 0.5566406
vt 0.1337891 0.5424805
vt 0.1343994 0.546875
vt 0.1346436 0.5498047
vt 0.1346436 0.5532227
vt 0.1343994 0.5561523
vt 0.133667 0.5600586
vt 0.1439209 0.5537109
vt 0.1439209 0.5537109
vt 0.1428223 0.5541992
vt 0.1429443 0.5546875
vt 0.1405029 0.5556641
vt 0.1405029 0.5561523
vt 0.1379395 0.5571289
vt 0.1379395 0.5576172
vt 0.1356201 0.5605469
vt 0.1356201 0.5605469
vt 0.1429443 0.5517578
vt 0.1439209 0.5537109
vt 0.1439209 0.5537109
vt 0.1429443 0.5522461
vt 0.1403809 0.5498047
vt 0.1402588 0.550293
vt 0.1379395 0.5478516
vt 0.1378174 0.5483398
vt 0.1357422 0.5444336
vt 0.1357422 0.5449219
vt 0.1358643 0.5483398
vt 0.1357422 0.5449219
vt 0.1357422 0.5444336
vt 0.1359863 0.5483398
vt 0.1359863 0.5512695
vt 0.1361084 0.5512695
vt 0.1359863 0.5541992
vt 0.1361084 0.5541992
vt 0.1357422 0.5571289
vt 0.1358643 0.5571289
vt 0.1356201 0.5605469
vt 0.1356201 0.5605469
vn -1 1.788139E-07 1.192093E-07
vn -1 1.192093E-07 1.788139E-07
vn -1 1.192093E-07 1.788139E-07
vn -1 0 0
vn -1 0 0
vn -1 -1.788139E-07 -2.980232E-07
vn -1 -1.788139E-07 -2.980232E-07
vn -1 -2.980232E-07 -4.172325E-07
vn -1 -2.980232E-07 -4.172325E-07
vn -1 -2.980232E-07 -4.172325E-07
vn -1 -2.980232E-07 -4.172325E-07
vn -1 -2.980232E-07 -4.172325E-07
vn -1 -2.980232E-07 -4.172325E-07
vn 1 0 -1.788139E-07
vn 1 0 -1.788139E-07
vn 1 0 -1.788139E-07
vn 1 0 0
vn 1 0 0
vn 1 1.788139E-07 2.980232E-07
vn 1 1.788139E-07 2.980232E-07
vn 1 2.980232E-07 4.172325E-07
vn 1 2.980232E-07 4.172325E-07
vn 1 2.980232E-07 4.172325E-07
vn 1 2.980232E-07 4.172325E-07
vn 1 2.980232E-07 4.172325E-07
vn 1 2.980232E-07 4.172325E-07
vn 5.960464E-07 -0.8740234 0.486084
vn 5.960464E-07 -0.8740234 0.486084
vn 9.536743E-07 -0.8828125 0.4694824
vn 9.536743E-07 -0.8828125 0.4694824
vn 1.490116E-06 -0.9121094 0.4101563
vn 1.490116E-06 -0.9121094 0.4101563
vn 6.258488E-06 -0.9580078 0.2873535
vn 6.258488E-06 -0.9580078 0.2873535
vn 1.060963E-05 -0.9785156 0.2060547
vn 1.060963E-05 -0.9785156 0.2060547
vn -6.258488E-06 0.7099609 -0.7041016
vn -5.00679E-06 0.7226563 -0.6914063
vn -5.00679E-06 0.7226563 -0.6914063
vn -6.258488E-06 0.7099609 -0.7041016
vn -5.364418E-06 0.6704102 -0.7421875
vn -5.364418E-06 0.6704102 -0.7421875
vn 1.788139E-06 0.6171875 -0.7871094
vn 1.788139E-06 0.6171875 -0.7871094
vn 6.377697E-06 0.5908203 -0.8066406
vn 6.377697E-06 0.5908203 -0.8066406
vn -2.592802E-05 0.1799316 0.9838867
vn -2.372265E-05 0.05505371 0.9985352
vn -2.372265E-05 0.05505371 0.9985352
vn -2.592802E-05 0.1799316 0.9838867
vn -2.866983E-05 0.4572754 0.8891602
vn -2.866983E-05 0.4572754 0.8891602
vn -2.82526E-05 0.6542969 0.7563477
vn -2.82526E-05 0.6542969 0.7563477
vn -2.640486E-05 0.8227539 0.5683594
vn -2.640486E-05 0.8227539 0.5683594
vn -2.545118E-05 0.8735352 0.4863281
vn -2.545118E-05 0.8735352 0.4863281
g MeteorIcon_0
f 3/3/3 2/2/2 1/1/1
f 3/3/3 4/4/4 2/2/2
f 4/4/4 5/5/5 2/2/2
f 4/4/4 6/6/6 5/5/5
f 6/6/6 7/7/7 5/5/5
f 7/7/7 6/6/6 8/8/8
f 8/8/8 9/9/9 7/7/7
f 9/9/9 10/10/10 7/7/7
f 10/10/10 11/11/11 7/7/7
f 11/11/11 12/12/12 7/7/7
f 12/12/12 13/13/13 7/7/7
f 16/16/16 15/15/15 14/14/14
f 17/17/17 15/15/15 16/16/16
f 18/18/18 17/17/17 16/16/16
f 19/19/19 17/17/17 18/18/18
f 20/20/20 19/19/19 18/18/18
f 21/21/21 19/19/19 20/20/20
f 20/20/20 22/22/22 21/21/21
f 20/20/20 23/23/23 22/22/22
f 20/20/20 24/24/24 23/23/23
f 20/20/20 25/25/25 24/24/24
f 20/20/20 26/26/26 25/25/25
f 29/29/29 28/28/28 27/27/27
f 30/30/30 29/29/29 27/27/27
f 31/31/31 29/29/29 30/30/30
f 32/32/32 31/31/31 30/30/30
f 33/33/33 31/31/31 32/32/32
f 34/34/34 33/33/33 32/32/32
f 35/35/35 33/33/33 34/34/34
f 36/36/36 35/35/35 34/34/34
f 39/39/39 38/38/38 37/37/37
f 38/38/38 40/40/40 37/37/37
f 37/37/37 40/40/40 41/41/41
f 40/40/40 42/42/42 41/41/41
f 41/41/41 42/42/42 43/43/43
f 42/42/42 44/44/44 43/43/43
f 43/43/43 44/44/44 45/45/45
f 44/44/44 46/46/46 45/45/45
f 49/49/49 48/48/48 47/47/47
f 48/48/48 50/50/50 47/47/47
f 47/47/47 50/50/50 51/51/51
f 50/50/50 52/52/52 51/51/51
f 51/51/51 52/52/52 53/53/53
f 52/52/52 54/54/54 53/53/53
f 53/53/53 54/54/54 55/55/55
f 54/54/54 56/56/56 55/55/55
f 55/55/55 56/56/56 57/57/57
f 56/56/56 58/58/58 57/57/57
