g Meteor_sh_3
v -0.3543474 0.4870821 -0.3034676
v -0.3731661 0.4968638 -0.2580353
v -0.3833734 0.4870821 -0.3092412
v -0.2301958 0.2703095 -0.6031957
v -0.3543474 0.4870821 -0.3034676
v -0.0007939339 0.2703095 -0.449914
v 0.1524876 -0.05411389 -0.6031953
v -0.1472404 -0.05411389 -0.8034674
v -0.4502011 0.2703095 -0.6469575
v 0.2004767 -0.3953034 -0.6511844
v -0.129273 -0.290152 -0.8468443
v 0.4230855 -0.4367973 -0.3325972
v 0.3110546 -0.4367973 -0.5002635
v 0.4155035 -0.4780554 -0.3294566
v 0.3527594 -0.05411389 -0.3034672
v 0.1524875 0.2703095 -0.220512
v -0.230196 0.4870821 -0.2205122
v -0.1472407 0.4870821 -0.09636071
v -0.3261157 0.5255942 -0.02226839
v -0.3431485 0.5188563 -0.1075598
v -0.3431485 0.5188563 -0.1075598
v -0.3731661 0.4968638 -0.2580353
v -0.2301958 0.2703095 -0.6031957
v -0.3833734 0.4870821 -0.3092412
v -0.3261157 0.5255942 -0.02226839
v -0.1472407 0.4870821 -0.09636071
v -0.3116479 0.5255791 0.05008569
v -0.1181107 0.4870821 0.05008569
v 0.2063126 0.2703095 0.05008569
v 0.1524875 0.2703095 -0.220512
v 0.4230853 -0.05411389 0.05008569
v 0.3527594 -0.05411389 -0.3034672
v 0.4992058 -0.4367973 0.05008569
v 0.4230855 -0.4367973 -0.3325972
v 0.4818473 -0.5240645 0.05008569
v 0.4155035 -0.4780554 -0.3294566
v 0.3527591 -0.05411389 0.403639
v 0.4062881 -0.3453949 0.4258115
v 0.4992058 -0.4367973 0.05008569
v 0.4535649 -0.4367973 0.2795381
v 0.1524873 0.2703095 0.3206837
v 0.1524872 -0.05411389 0.7033671
v 0.1680691 -0.1648969 0.718949
v 0.4062881 -0.3453949 0.4258115
v -0.0007942319 0.2703095 0.5500857
v -0.1472408 0.4870821 0.1965323
v -0.2301961 0.4870821 0.3206838
v -0.2642569 0.4966636 0.286623
v -0.2945431 0.5187966 0.1355177
v -0.2945431 0.5187966 0.1355177
v -0.3116479 0.5255791 0.05008569
v -0.2542071 0.4870821 0.3367274
v -0.2642569 0.4966636 0.286623
v -0.2301961 0.4870821 0.3206838
v -0.0007942319 0.2703095 0.5500857
v -0.1860868 0.2703095 0.6738942
v 0.4639593 -0.5255942 0.1384849
v 0.4535649 -0.4367973 0.2795381
v 0.4818473 -0.5240645 0.05008569
v -0.1472404 -0.05411389 -0.8034674
v -0.4502011 0.2703095 -0.6469575
v -0.4942487 -0.05411389 -0.8724918
v -0.129273 -0.290152 -0.8468443
v -0.4992058 -0.1843849 -0.8993903
v -0.1860868 0.2703095 0.6738942
v -0.0007942319 0.2703095 0.5500857
v 0.1524872 -0.05411389 0.7033671
v -0.1400576 -0.05411389 0.8988393
v -0.1399387 -0.05680084 0.8993903
v 0.1524872 -0.05411389 0.7033671
v 0.1680691 -0.1648969 0.718949
v -0.2328932 -0.3548654 0.4296966
v -0.4992058 -0.1843849 -0.8993903
v -0.1399387 -0.05680084 0.8993903
v -0.1400576 -0.05411389 0.8988393
v -0.1860868 0.2703095 0.6738942
v -0.2542071 0.4870821 0.3367274
v -0.2642569 0.4966636 0.286623
v -0.2945431 0.5187966 0.1355177
v -0.3116479 0.5255791 0.05008569
v -0.3261157 0.5255942 -0.02226839
v -0.3431485 0.5188563 -0.1075598
v -0.3731661 0.4968638 -0.2580353
v -0.4942487 -0.05411389 -0.8724918
v -0.4502011 0.2703095 -0.6469575
v -0.3833734 0.4870821 -0.3092412
v 0.4535649 -0.4367973 0.2795381
v 0.4639593 -0.5255942 0.1384849
v -0.2328932 -0.3548654 0.4296966
v 0.4062881 -0.3453949 0.4258115
v 0.1680691 -0.1648969 0.718949
v -0.1399387 -0.05680084 0.8993903
v -0.129273 -0.290152 -0.8468443
v -0.4992058 -0.1843849 -0.8993903
v -0.2328932 -0.3548654 0.4296966
v 0.2004767 -0.3953034 -0.6511844
v 0.4639593 -0.5255942 0.1384849
v 0.3110546 -0.4367973 -0.5002635
v 0.4155035 -0.4780554 -0.3294566
v 0.4818473 -0.5240645 0.05008569
vt 0.125 0.875
vt 0.1731883 0.8910627
vt 0.1373877 0.8749999
vt 0.125 0.75
vt 0.125 0.875
vt 0.0625 0.75
vt 0.0625 0.625
vt 0.125 0.625
vt 0.1758146 0.75
vt 0.06250001 0.5135536
vt 0.1281762 0.5479003
vt 0 0.5
vt 0.03230083 0.5
vt 5.030103E-09 0.4865234
vt 0 0.625
vt 0 0.75
vt 0.0625 0.875
vt 0 0.875
vt 0.2529674 0.9382418
vt 0.2451204 0.9271773
vt 0.2451204 0.9271773
vt 0.1731883 0.8910627
vt 0.125 0.75
vt 0.1603794 0.875
vt 0.7470326 0.9382418
vt 1 0.875
vt 0.71624 0.9382171
vt 0.9375 0.875
vt 0.9375 0.75
vt 1 0.75
vt 0.9375 0.625
vt 1 0.625
vt 0.9375 0.5
vt 1 0.5
vt 0.9375 0.471495
vt 0.999487 0.4865234
vt 0.875 0.625
vt 0.875 0.5298557
vt 0.9426497 0.5000001
vt 0.9020878 0.5
vt 0.875 0.75
vt 0.8125 0.625
vt 0.8125 0.5888138
vt 0.8789195 0.5298557
vt 0.8125 0.75
vt 0.875 0.875
vt 0.8125 0.875
vt 0.773165 0.890734
vt 0.7187623 0.9270793
vt 0.7187622 0.9270793
vt 0.7162401 0.9382171
vt 0.8004124 0.875
vt 0.7731649 0.890734
vt 0.8125 0.875
vt 0.8654852 0.7500001
vt 0.7722055 0.75
vt 0.9219587 0.4709953
vt 0.9000257 0.5
vt 0.9364151 0.471495
vt 0.125 0.625
vt 0.1785564 0.75
vt 0.186343 0.625
vt 0.125 0.5479003
vt 0.1889723 0.5824482
vt 0.7620175 0.75
vt 0.8125 0.75
vt 0.8316604 0.6250001
vt 0.7519571 0.625
vt 0.75148 0.6241223
vt 0.8125 0.625
vt 0.8139907 0.5888137
vt 0.02081075 0.09642138
vt 0.06411286 -0.2411674
vt 0.09651931 0.2157238
vt 0.09720179 0.2155839
vt 0.1796055 0.1584477
vt 0.2346659 0.07280713
vt 0.2370995 0.0600806
vt 0.2427213 0.02169975
vt 0.2444441 -1.068499E-08
vt 0.2444479 -0.01837799
vt 0.2427365 -0.04004204
vt 0.2371504 -0.07826289
vt 0.09720177 -0.2343352
vt 0.1796055 -0.1770493
vt 0.2346659 -0.09126924
vt -0.2424077 0.05828103
vt -0.2450479 0.02245343
vt -0.06804699 0.09642138
vt -0.2303994 0.09543455
vt -0.1698916 0.1698916
vt -0.09165747 0.2157238
vt -0.09436657 -0.2278207
vt -0.0004034472 -0.2411674
vt -0.06804699 0.09642138
vt -0.1781232 -0.178123
vt -0.2450479 0.02245343
vt -0.20621 -0.139789
vt -0.2327401 -0.09640393
vt -0.2495914 9.68903E-10
vn 0.1849195 0.8755004 -0.4464345
vn 0.163452 0.9041948 -0.3946075
vn 0.1486887 0.8779839 -0.4550122
vn 0.2853251 0.6664053 -0.688835
vn 0.1849195 0.8755004 -0.4464345
vn 0.5272118 0.6664053 -0.5272113
vn 0.6600403 0.3587401 -0.6600397
vn 0.3572116 0.3587401 -0.8623836
vn 0.05369299 0.6707336 -0.7397524
vn 0.706565 0.03915056 -0.7065644
vn 0.3766432 0.1396167 -0.9157768
vn 0.9238796 0 -0.3826832
vn 0.8277352 0 -0.5611188
vn 0.9231794 -0.03892674 -0.3823932
vn 0.8623839 0.35874 -0.3572109
vn 0.6888353 0.6664053 -0.2853248
vn 0.3416865 0.8755004 -0.341686
vn 0.4464348 0.8755003 -0.1849193
vn 0.2277701 0.9691334 -0.09434541
vn 0.2053754 0.9568919 -0.2053751
vn 0.2053754 0.9568918 -0.2053751
vn 0.1634521 0.9041948 -0.3946075
vn 0.2853251 0.6664053 -0.688835
vn 0.1243009 0.8789639 -0.460404
vn 0.2277701 0.9691334 -0.09434541
vn 0.4464348 0.8755003 -0.1849193
vn 0.2466353 0.9691084 1.370804E-07
vn 0.4832174 0.8755004 2.685732E-07
vn 0.7455897 0.6664052 3.310776E-07
vn 0.6888353 0.6664053 -0.2853248
vn 0.9334375 0.3587401 3.003077E-07
vn 0.8623839 0.35874 -0.3572109
vn 1 0 3.604115E-07
vn 0.9238796 0 -0.3826832
vn 0.9965676 -0.08278293 3.587356E-07
vn 0.9233311 -0.03892969 -0.3820266
vn 0.8623838 0.3587399 0.3572111
vn 0.9203974 0.08673967 0.3812411
vn 0.9999923 0 -0.003955648
vn 0.9726766 0 0.2321641
vn 0.6888351 0.6664052 0.2853249
vn 0.66004 0.3587399 0.66004
vn 0.6830823 0.2584513 0.6830823
vn 0.9215641 0.08668678 0.3784245
vn 0.5272115 0.6664053 0.5272116
vn 0.4464346 0.8755004 0.1849194
vn 0.3416863 0.8755004 0.3416863
vn 0.302855 0.9036359 0.302855
vn 0.2686922 0.9567747 0.111296
vn 0.2686922 0.9567747 0.111296
vn 0.2466353 0.9691084 1.484624E-07
vn 0.3122343 0.877938 0.3629525
vn 0.302855 0.9036359 0.302855
vn 0.3416863 0.8755004 0.3416863
vn 0.569322 0.6598331 0.4904004
vn 0.343609 0.6714604 0.6565622
vn 0.9921266 -0.08542158 0.09158587
vn 0.9722933 0 0.2337644
vn 0.9965661 -0.08279672 0.0008446311
vn 0.3572116 0.3587401 -0.8623836
vn 0.0514376 0.6705912 -0.7400416
vn 0.006621186 0.3591731 -0.9332475
vn 0.3789322 0.1396853 -0.9148216
vn 0.0002609959 0.2402495 -0.9707111
vn 0.3340373 0.6708285 0.6621239
vn 0.5272115 0.6664053 0.5272116
vn 0.6712275 0.3576616 0.6492549
vn 0.3653766 0.3593217 0.858713
vn 0.3652916 0.3569351 0.8597438
vn 0.66004 0.3587399 0.66004
vn 0.6839143 0.2583934 0.6822712
vn -0.9805837 -0.003172706 0.1960751
vn -0.9805837 -0.003173479 0.1960752
vn -0.9805837 -0.003173479 0.1960752
vn -0.9805837 -0.003173479 0.1960752
vn -0.9805837 -0.003172627 0.1960751
vn -0.9805837 -0.00317251 0.1960751
vn -0.9805837 -0.003172843 0.1960753
vn -0.9805837 -0.003172551 0.1960751
vn -0.9805837 -0.003172557 0.1960751
vn -0.9805838 -0.003172187 0.1960749
vn -0.9805835 -0.003173129 0.1960756
vn -0.9805837 -0.003172497 0.1960751
vn -0.9805837 -0.003172694 0.1960753
vn -0.9805837 -0.003172658 0.1960752
vn -0.9805838 -0.003172183 0.1960748
vn 0.0157725 -0.845642 0.5335175
vn 0.0157725 -0.845642 0.5335175
vn 0.0157725 -0.845642 0.5335175
vn 0.01577244 -0.8456421 0.5335172
vn 0.01577244 -0.845642 0.5335175
vn 0.01577245 -0.845642 0.5335175
vn -0.2649763 -0.9616917 -0.07026114
vn -0.2649763 -0.9616917 -0.07026114
vn -0.2649763 -0.9616917 -0.07026114
vn -0.2649764 -0.9616916 -0.07026114
vn -0.2649764 -0.9616917 -0.07026108
vn -0.2649764 -0.9616917 -0.07026108
vn -0.2649764 -0.9616917 -0.07026108
vn -0.2649765 -0.9616916 -0.07026105
g Meteor_sh_3_0
f 3/3/3 2/2/2 1/1/1
f 3/3/3 5/5/5 4/4/4
f 4/4/4 5/5/5 6/6/6
f 4/4/4 6/6/6 7/7/7
f 8/8/8 4/4/4 7/7/7
f 9/9/9 4/4/4 8/8/8
f 8/8/8 7/7/7 10/10/10
f 8/8/8 10/10/10 11/11/11
f 10/10/10 7/7/7 12/12/12
f 13/13/13 10/10/10 12/12/12
f 14/14/14 13/13/13 12/12/12
f 7/7/7 15/15/15 12/12/12
f 7/7/7 6/6/6 15/15/15
f 6/6/6 16/16/16 15/15/15
f 6/6/6 17/17/17 16/16/16
f 5/5/5 17/17/17 6/6/6
f 17/17/17 18/18/18 16/16/16
f 18/18/18 17/17/17 19/19/19
f 19/19/19 17/17/17 20/20/20
f 17/17/17 5/5/5 21/21/21
f 21/21/21 5/5/5 22/22/22
f 9/9/9 24/24/24 23/23/23
f 27/27/27 26/26/26 25/25/25
f 28/28/28 26/26/26 27/27/27
f 26/26/26 28/28/28 29/29/29
f 30/30/30 26/26/26 29/29/29
f 30/30/30 29/29/29 31/31/31
f 32/32/32 30/30/30 31/31/31
f 32/32/32 31/31/31 33/33/33
f 34/34/34 32/32/32 33/33/33
f 34/34/34 33/33/33 35/35/35
f 34/34/34 35/35/35 36/36/36
f 31/31/31 29/29/29 37/37/37
f 31/31/31 37/37/37 38/38/38
f 39/39/39 31/31/31 38/38/38
f 38/38/38 40/40/40 39/39/39
f 29/29/29 28/28/28 41/41/41
f 29/29/29 41/41/41 37/37/37
f 37/37/37 41/41/41 42/42/42
f 37/37/37 42/42/42 43/43/43
f 37/37/37 43/43/43 44/44/44
f 41/41/41 45/45/45 42/42/42
f 41/41/41 46/46/46 45/45/45
f 28/28/28 46/46/46 41/41/41
f 46/46/46 47/47/47 45/45/45
f 47/47/47 46/46/46 48/48/48
f 48/48/48 46/46/46 49/49/49
f 46/46/46 28/28/28 50/50/50
f 50/50/50 28/28/28 51/51/51
f 54/54/54 53/53/53 52/52/52
f 55/55/55 54/54/54 52/52/52
f 52/52/52 56/56/56 55/55/55
f 33/33/33 58/58/58 57/57/57
f 33/33/33 57/57/57 59/59/59
f 62/62/62 61/61/61 60/60/60
f 62/62/62 60/60/60 63/63/63
f 62/62/62 63/63/63 64/64/64
f 67/67/67 66/66/66 65/65/65
f 65/65/65 68/68/68 67/67/67
f 70/70/70 68/68/68 69/69/69
f 69/69/69 71/71/71 70/70/70
f 74/74/74 73/73/73 72/72/72
f 75/75/75 73/73/73 74/74/74
f 76/76/76 73/73/73 75/75/75
f 73/73/73 76/76/76 77/77/77
f 73/73/73 77/77/77 78/78/78
f 73/73/73 78/78/78 79/79/79
f 73/73/73 79/79/79 80/80/80
f 73/73/73 80/80/80 81/81/81
f 73/73/73 81/81/81 82/82/82
f 73/73/73 82/82/82 83/83/83
f 84/84/84 73/73/73 83/83/83
f 85/85/85 84/84/84 83/83/83
f 83/83/83 86/86/86 85/85/85
f 89/89/89 88/88/88 87/87/87
f 89/89/89 87/87/87 90/90/90
f 89/89/89 90/90/90 91/91/91
f 91/91/91 92/92/92 89/89/89
f 95/95/95 94/94/94 93/93/93
f 95/95/95 93/93/93 96/96/96
f 97/97/97 95/95/95 96/96/96
f 96/96/96 98/98/98 97/97/97
f 97/97/97 98/98/98 99/99/99
f 97/97/97 99/99/99 100/100/100
