g pCube31
v 3.137933 0.5 -3.043813
v 2.525726 0.5 -5.326652
v 2.525726 -0.5 -5.326652
v 3.137933 -0.5 -3.043813
v 2.757841 -0.5 -0.1363652
v 2.757841 0.5 -0.1363652
v -3.729017 -0.5 -5.873318
v -3.729017 0.5 -5.873318
v -3.533848 0.5 -2.698774
v -3.533848 -0.5 -2.698774
v -2.321692 -0.5 -0.276996
v -2.321692 0.5 -0.276996
v -3.729017 0.5 -5.873318
v -3.729017 -0.5 -5.873318
v -1.767208 -0.5 -7.246709
v -1.767208 0.5 -7.246709
v 1.181619 0.5 -5.976156
v 1.181619 -0.5 -5.976156
v 2.525726 0.5 -5.326652
v 2.525726 -0.5 -5.326652
v -3.533848 0.5 -2.698774
v -3.729017 0.5 -5.873318
v -1.767208 0.5 -7.246709
v -0.4175331 0.5 -2.824878
v -2.321692 0.5 -0.276996
v -0.4175331 0.5 0.1447531
v 1.262496 0.5 -2.822073
v 1.181619 0.5 -5.976156
v 1.262496 0.5 0.1520903
v 3.137933 0.5 -3.043813
v 2.525726 0.5 -5.326652
v 2.757841 0.5 -0.1363652
v -2.321692 -0.5 -0.276996
v -2.321692 0.5 -0.276996
v -0.4175331 0.5 0.1447531
v -0.4175331 -0.5 0.1447531
v 1.262496 -0.5 0.1520903
v 1.262496 0.5 0.1520903
v 2.757841 -0.5 -0.1363652
v 2.757841 0.5 -0.1363652
vt 0.9560547 0.3850098
vt 0.9560547 0.2749023
vt 0.909668 0.2749023
vt 0.909668 0.3850098
vt 0.909668 0.5219727
vt 0.9560547 0.5219727
vt 0.909668 0.2749023
vt 0.9560547 0.2749023
vt 0.9560547 0.1265869
vt 0.909668 0.1265869
vt 0.909668 0.0002663136
vt 0.9560547 0.0002613068
vt 0.8115234 0.5053711
vt 0.8579102 0.5053711
vt 0.8583984 0.3937988
vt 0.8115234 0.3937988
vt 0.8115234 0.2440186
vt 0.8583984 0.2440186
vt 0.8115234 0.1744385
vt 0.8583984 0.1744385
vt 0.4458008 0.401123
vt 0.5942383 0.401123
vt 0.6523438 0.3059082
vt 0.4428711 0.2556152
vt 0.3295898 0.3515625
vt 0.3046875 0.2641602
vt 0.4379883 0.1774902
vt 0.5849609 0.1723633
vt 0.2995605 0.1859131
vt 0.4428711 0.08953857
vt 0.5507813 0.1115723
vt 0.3088379 0.1154785
vt 0.315918 0.9985352
vt 0.3625488 0.9985352
vt 0.3625488 0.9077148
vt 0.315918 0.9077148
vt 0.315918 0.8295898
vt 0.3625488 0.8295898
vt 0.315918 0.7583008
vt 0.3625488 0.7583008
vn 0.9990234 0 -0.04467773
vn 0.9658203 0 -0.2590332
vn 0.9658203 0 -0.2590332
vn 0.9990234 0 -0.04467773
vn 0.9916992 0 0.1296387
vn 0.9916992 0 0.1296387
vn -0.9980469 0 0.06137085
vn -0.9980469 0 0.06137085
vn -0.9697266 0 0.2438965
vn -0.9697266 0 0.2438965
vn -0.894043 0 0.4475098
vn -0.894043 0 0.4475098
vn -0.5737305 0 -0.8193359
vn -0.5737305 0 -0.8193359
vn -0.02093506 0 -1
vn -0.02093506 0 -1
vn 0.4082031 0 -0.9130859
vn 0.4082031 0 -0.9130859
vn 0.4350586 0 -0.9003906
vn 0.4350586 0 -0.9003906
vn 0 1 0
vn 0 1 0
vn 0 1 0
vn 0 1 0
vn 0 1 0
vn 0 1 0
vn 0 1 0
vn 0 1 0
vn 0 1 0
vn 0 1 0
vn 0 1 0
vn 0 1 0
vn -0.2163086 0 0.9765625
vn -0.2163086 0 0.9765625
vn -0.1188965 0 0.9926758
vn -0.1188965 0 0.9926758
vn 0.0881958 0 0.9960938
vn 0.0881958 0 0.9960938
vn 0.1894531 0 0.9819336
vn 0.1894531 0 0.9819336
g pCube31_0
f 3/3/3 2/2/2 1/1/1
f 4/4/4 3/3/3 1/1/1
f 4/4/4 1/1/1 5/5/5
f 1/1/1 6/6/6 5/5/5
f 9/9/9 8/8/8 7/7/7
f 10/10/10 9/9/9 7/7/7
f 10/10/10 11/11/11 9/9/9
f 11/11/11 12/12/12 9/9/9
f 15/15/15 14/14/14 13/13/13
f 16/16/16 15/15/15 13/13/13
f 16/16/16 17/17/17 15/15/15
f 17/17/17 18/18/18 15/15/15
f 17/17/17 19/19/19 18/18/18
f 19/19/19 20/20/20 18/18/18
f 23/23/23 22/22/22 21/21/21
f 24/24/24 23/23/23 21/21/21
f 24/24/24 21/21/21 25/25/25
f 26/26/26 24/24/24 25/25/25
f 24/24/24 27/27/27 23/23/23
f 24/24/24 26/26/26 27/27/27
f 27/27/27 28/28/28 23/23/23
f 26/26/26 29/29/29 27/27/27
f 27/27/27 30/30/30 28/28/28
f 27/27/27 29/29/29 30/30/30
f 30/30/30 31/31/31 28/28/28
f 29/29/29 32/32/32 30/30/30
f 35/35/35 34/34/34 33/33/33
f 36/36/36 35/35/35 33/33/33
f 36/36/36 37/37/37 35/35/35
f 37/37/37 38/38/38 35/35/35
f 37/37/37 39/39/39 38/38/38
f 39/39/39 40/40/40 38/38/38
