g pCube30
v 5.665928 0.5 -7.617363
v 2.990463 0.5 -6.8303
v 2.990463 -0.5 -6.8303
v 5.665928 -0.5 -7.617363
v 2.757842 -0.5 -0.1363651
v 2.757842 0.5 -0.1363651
v -3.133339 -0.5 -5.013822
v -3.133339 0.5 -5.013822
v -3.533849 0.5 -2.698774
v -3.533849 -0.5 -2.698774
v -2.321692 -0.5 -0.2769959
v -2.321692 0.5 -0.2769959
v -3.133339 0.5 -5.013822
v -3.133339 -0.5 -5.013822
v -0.8966795 -0.5 -6.201838
v -0.8966795 0.5 -6.201838
v 1.181619 0.5 -5.976156
v 1.181619 -0.5 -5.976156
v 2.990463 0.5 -6.8303
v 2.990463 -0.5 -6.8303
v -3.533849 0.5 -2.698774
v -3.133339 0.5 -5.013822
v -0.8966795 0.5 -6.201838
v -0.4175331 0.5 -2.824878
v -2.321692 0.5 -0.2769959
v -0.4175331 0.5 0.1447532
v 1.262496 0.5 -2.822073
v 1.181619 0.5 -5.976156
v 1.262496 0.5 0.1520904
v 5.665928 0.5 -7.617363
v 2.990463 0.5 -6.8303
v 2.757842 0.5 -0.1363651
v -2.321692 -0.5 -0.2769959
v -2.321692 0.5 -0.2769959
v -0.4175331 0.5 0.1447532
v -0.4175331 -0.5 0.1447532
v 1.262496 -0.5 0.1520904
v 1.262496 0.5 0.1520904
v 2.757842 -0.5 -0.1363651
v 2.757842 0.5 -0.1363651
vt 0.9072266 0.130249
vt 0.9072266 0.0002613068
vt 0.8603516 0.0002613068
vt 0.8603516 0.130249
vt 0.8603516 0.5043945
vt 0.9072266 0.5043945
vt 0.9477539 0.9980469
vt 0.9941406 0.9980469
vt 0.9941406 0.8881836
vt 0.9477539 0.8881836
vt 0.9477539 0.762207
vt 0.9941406 0.762207
vt 5.680323E-05 0.7294922
vt 0.04669189 0.7294922
vt 0.04666138 0.6113281
vt 3.510714E-05 0.6113281
vt 1.716614E-05 0.5136719
vt 0.04666138 0.5136719
vt 0 0.4206543
vt 0.04663086 0.4206543
vt 0.1785889 0.4680176
vt 0.2802734 0.427002
vt 0.3125 0.3132324
vt 0.1538086 0.324707
vt 0.05633545 0.4365234
vt 0.0184021 0.3537598
vt 0.137085 0.2480469
vt 0.2817383 0.2207031
vt 0.001548767 0.2773438
vt 0.3125 0.0002223253
vt 0.3027344 0.1298828
vt 0 0.2062988
vt 3.170967E-05 0.9697266
vt 0.04666138 0.9697266
vt 0.04666138 0.8789063
vt 1.966953E-05 0.8789063
vt 9.298325E-06 0.800293
vt 0.04663086 0.800293
vt 0 0.7294922
vt 0.04663086 0.7294922
vn 0.9995117 0 0.034729
vn -0.2822266 0 -0.9594727
vn -0.2822266 0 -0.9594727
vn 0.9995117 0 0.034729
vn 0.9321289 0 0.3623047
vn 0.9321289 0 0.3623047
vn -0.9853516 0 -0.1704102
vn -0.9853516 0 -0.1704102
vn -0.9858398 0 0.1689453
vn -0.9858398 0 0.1689453
vn -0.894043 0 0.4475098
vn -0.894043 0 0.4475098
vn -0.4689941 0 -0.8833008
vn -0.4689941 0 -0.8833008
vn -0.2176514 0 -0.9760742
vn -0.2176514 0 -0.9760742
vn -0.1595459 0 -0.9873047
vn -0.1595459 0 -0.9873047
vn -0.427002 0 -0.9042969
vn -0.427002 0 -0.9042969
vn 0 1 0
vn 0 1 0
vn 0 1 0
vn 0 1 0
vn 0 1 0
vn 0 1 0
vn 0 1 0
vn 0 1 0
vn 0 1 0
vn 0 1 0
vn 0 1 0
vn 0 1 0
vn -0.2163086 0 0.9765625
vn -0.2163086 0 0.9765625
vn -0.1188965 0 0.9926758
vn -0.1188965 0 0.9926758
vn 0.0881958 0 0.9960938
vn 0.0881958 0 0.9960938
vn 0.1894531 0 0.9819336
vn 0.1894531 0 0.9819336
g pCube30_0
f 3/3/3 2/2/2 1/1/1
f 4/4/4 3/3/3 1/1/1
f 4/4/4 1/1/1 5/5/5
f 1/1/1 6/6/6 5/5/5
f 9/9/9 8/8/8 7/7/7
f 10/10/10 9/9/9 7/7/7
f 10/10/10 11/11/11 9/9/9
f 11/11/11 12/12/12 9/9/9
f 15/15/15 14/14/14 13/13/13
f 16/16/16 15/15/15 13/13/13
f 16/16/16 17/17/17 15/15/15
f 17/17/17 18/18/18 15/15/15
f 17/17/17 19/19/19 18/18/18
f 19/19/19 20/20/20 18/18/18
f 23/23/23 22/22/22 21/21/21
f 24/24/24 23/23/23 21/21/21
f 24/24/24 21/21/21 25/25/25
f 26/26/26 24/24/24 25/25/25
f 24/24/24 27/27/27 23/23/23
f 24/24/24 26/26/26 27/27/27
f 27/27/27 28/28/28 23/23/23
f 26/26/26 29/29/29 27/27/27
f 27/27/27 30/30/30 28/28/28
f 27/27/27 29/29/29 30/30/30
f 30/30/30 31/31/31 28/28/28
f 29/29/29 32/32/32 30/30/30
f 35/35/35 34/34/34 33/33/33
f 36/36/36 35/35/35 33/33/33
f 36/36/36 37/37/37 35/35/35
f 37/37/37 38/38/38 35/35/35
f 37/37/37 39/39/39 38/38/38
f 39/39/39 40/40/40 38/38/38
