g pCube24
v -0.5 0 0.5
v -0.5 4.474346 0.5
v 0.5 4.474346 0.5
v 0.5 0 0.5
v -0.5 4.474346 0.5
v -0.5 4.474346 -0.5
v 0.5 4.474346 -0.5
v 0.5 4.474346 0.5
v -0.5 4.474346 -0.5
v -0.5 0 -0.5
v 0.5 0 -0.5
v 0.5 4.474346 -0.5
v -0.5 0 -0.5
v -0.5 0 0.5
v 0.5 0 0.5
v 0.5 0 -0.5
v 0.5 0 0.5
v 0.5 4.474346 0.5
v 0.5 4.474346 -0.5
v 0.5 0 -0.5
v -0.5 0 -0.5
v -0.5 4.474346 -0.5
v -0.5 4.474346 0.5
v -0.5 0 0.5
vt 0.0199585 0.9902344
vt 0.4396973 0.9897461
vt 0.4396973 0.9008789
vt 0.01982117 0.9013672
vt 0.4501953 0.9360352
vt 0.4501953 0.9487305
vt 0.4628906 0.9487305
vt 0.4628906 0.9360352
vt 0.4396973 0.9008789
vt 0.01982117 0.9013672
vt 0.0199585 0.9902344
vt 0.4396973 0.9897461
vt -0.001540184 0.9462891
vt -0.001540184 0.9589844
vt 0.01131439 0.9589844
vt 0.01131439 0.9462891
vt 0.0199585 0.9902344
vt 0.4396973 0.9897461
vt 0.4396973 0.9008789
vt 0.01982117 0.9013672
vt 0.0199585 0.9902344
vt 0.4396973 0.9897461
vt 0.4396973 0.9008789
vt 0.01982117 0.9013672
vn 0 0 1
vn 0 0 1
vn 0 0 1
vn 0 0 1
vn 0 1 0
vn 0 1 0
vn 0 1 0
vn 0 1 0
vn 0 0 -1
vn 0 0 -1
vn 0 0 -1
vn 0 0 -1
vn 0 -1 0
vn 0 -1 0
vn 0 -1 0
vn 0 -1 0
vn 1 0 0
vn 1 0 0
vn 1 0 0
vn 1 0 0
vn -1 0 0
vn -1 0 0
vn -1 0 0
vn -1 0 0
g pCube24_0
f 3/3/3 2/2/2 1/1/1
f 4/4/4 3/3/3 1/1/1
f 7/7/7 6/6/6 5/5/5
f 8/8/8 7/7/7 5/5/5
f 11/11/11 10/10/10 9/9/9
f 12/12/12 11/11/11 9/9/9
f 15/15/15 14/14/14 13/13/13
f 16/16/16 15/15/15 13/13/13
f 19/19/19 18/18/18 17/17/17
f 20/20/20 19/19/19 17/17/17
f 23/23/23 22/22/22 21/21/21
f 24/24/24 23/23/23 21/21/21
