g pCube26
v 3.137933 0.5 -3.043813
v 2.525725 0.5 -5.326652
v 2.525725 -0.5 -5.326652
v 3.137933 -0.5 -3.043813
v 2.757842 -0.5 -0.1363653
v 2.757842 0.5 -0.1363653
v -3.13334 -0.5 -5.013822
v -3.13334 0.5 -5.013822
v -3.533849 0.5 -2.698774
v -3.533849 -0.5 -2.698774
v -2.321692 -0.5 -0.276996
v -2.321692 0.5 -0.276996
v -3.13334 0.5 -5.013822
v -3.13334 -0.5 -5.013822
v -0.8966793 -0.5 -6.201837
v -0.8966793 0.5 -6.201837
v 1.181619 0.5 -5.976155
v 1.181619 -0.5 -5.976155
v 2.525725 0.5 -5.326652
v 2.525725 -0.5 -5.326652
v -3.533849 0.5 -2.698774
v -3.13334 0.5 -5.013822
v -0.8966793 0.5 -6.201837
v -0.4175331 0.5 -2.824879
v -2.321692 0.5 -0.276996
v -0.4175331 0.5 0.1447532
v 1.262496 0.5 -2.822073
v 1.181619 0.5 -5.976155
v 1.262496 0.5 0.1520904
v 3.137933 0.5 -3.043813
v 2.525725 0.5 -5.326652
v 2.757842 0.5 -0.1363653
v -2.321692 -0.5 -0.276996
v -2.321692 0.5 -0.276996
v -0.4175331 0.5 0.1447532
v -0.4175331 -0.5 0.1447532
v 1.262496 -0.5 0.1520904
v 1.262496 0.5 0.1520904
v 2.757842 -0.5 -0.1363653
v 2.757842 0.5 -0.1363653
vt 0.210083 0.6142578
vt 0.210083 0.5039063
vt 0.1634521 0.5039063
vt 0.1634521 0.6142578
vt 0.1634521 0.7509766
vt 0.210083 0.7509766
vt 0.3813477 1
vt 0.4279785 1
vt 0.4279785 0.890625
vt 0.3813477 0.890625
vt 0.3813477 0.7641602
vt 0.4279785 0.7641602
vt 0.8603516 0.7895508
vt 0.9072266 0.7895508
vt 0.9072266 0.671875
vt 0.8603516 0.671875
vt 0.8603516 0.5742188
vt 0.9072266 0.5742188
vt 0.8603516 0.5043945
vt 0.9072266 0.5043945
vt 0.3867188 0.7055664
vt 0.4958496 0.6962891
vt 0.5600586 0.5966797
vt 0.4047852 0.5615234
vt 0.2790527 0.6396484
vt 0.2668457 0.5498047
vt 0.411377 0.4831543
vt 0.5576172 0.4992676
vt 0.2731934 0.4716797
vt 0.4289551 0.3969727
vt 0.5327148 0.4343262
vt 0.2924805 0.4033203
vt 0.909668 0.762207
vt 0.9560547 0.762207
vt 0.9560547 0.6713867
vt 0.909668 0.6713867
vt 0.909668 0.5927734
vt 0.9560547 0.5927734
vt 0.909668 0.5219727
vt 0.9560547 0.5219727
vn 0.9990234 0 -0.04467773
vn 0.9658203 0 -0.2590332
vn 0.9658203 0 -0.2590332
vn 0.9990234 0 -0.04467773
vn 0.9916992 0 0.1296387
vn 0.9916992 0 0.1296387
vn -0.9853516 0 -0.1704102
vn -0.9853516 0 -0.1704102
vn -0.9858398 0 0.1689453
vn -0.9858398 0 0.1689453
vn -0.894043 0 0.4475098
vn -0.894043 0 0.4475098
vn -0.4689941 0 -0.8833008
vn -0.4689941 0 -0.8833008
vn -0.2176514 0 -0.9760742
vn -0.2176514 0 -0.9760742
vn 0.2478027 0 -0.96875
vn 0.2478027 0 -0.96875
vn 0.4350586 0 -0.9003906
vn 0.4350586 0 -0.9003906
vn 0 1 0
vn 0 1 0
vn 0 1 0
vn 0 1 0
vn 0 1 0
vn 0 1 0
vn 0 1 0
vn 0 1 0
vn 0 1 0
vn 0 1 0
vn 0 1 0
vn 0 1 0
vn -0.2163086 0 0.9765625
vn -0.2163086 0 0.9765625
vn -0.1188965 0 0.9926758
vn -0.1188965 0 0.9926758
vn 0.0881958 0 0.9960938
vn 0.0881958 0 0.9960938
vn 0.1894531 0 0.9819336
vn 0.1894531 0 0.9819336
g pCube26_0
f 3/3/3 2/2/2 1/1/1
f 4/4/4 3/3/3 1/1/1
f 4/4/4 1/1/1 5/5/5
f 1/1/1 6/6/6 5/5/5
f 9/9/9 8/8/8 7/7/7
f 10/10/10 9/9/9 7/7/7
f 10/10/10 11/11/11 9/9/9
f 11/11/11 12/12/12 9/9/9
f 15/15/15 14/14/14 13/13/13
f 16/16/16 15/15/15 13/13/13
f 16/16/16 17/17/17 15/15/15
f 17/17/17 18/18/18 15/15/15
f 17/17/17 19/19/19 18/18/18
f 19/19/19 20/20/20 18/18/18
f 23/23/23 22/22/22 21/21/21
f 24/24/24 23/23/23 21/21/21
f 24/24/24 21/21/21 25/25/25
f 26/26/26 24/24/24 25/25/25
f 24/24/24 27/27/27 23/23/23
f 24/24/24 26/26/26 27/27/27
f 27/27/27 28/28/28 23/23/23
f 26/26/26 29/29/29 27/27/27
f 27/27/27 30/30/30 28/28/28
f 27/27/27 29/29/29 30/30/30
f 30/30/30 31/31/31 28/28/28
f 29/29/29 32/32/32 30/30/30
f 35/35/35 34/34/34 33/33/33
f 36/36/36 35/35/35 33/33/33
f 36/36/36 37/37/37 35/35/35
f 37/37/37 38/38/38 35/35/35
f 37/37/37 39/39/39 38/38/38
f 39/39/39 40/40/40 38/38/38
