g rope
v -3.288848 0.08794332 1.96636
v -3.301618 0.07653923 1.948837
v -3.314387 0.08373626 1.929208
v -3.319667 0.1053628 1.91898
v -3.283569 0.1113092 1.971493
v -3.314387 0.1287287 1.924113
v -3.288848 0.1329358 1.961266
v -3.301618 0.1401328 1.941636
v 0 -0.1333797 0.01184796
v 0 -0.1401328 0.03539736
v 0 -0.1282848 0.05684042
v 0 -0.1119366 0
v 0 -0.1047354 0.06359358
v 0 -0.08838719 0.006753157
v 0 -0.08329239 0.05174561
v 0 -0.07653923 0.02819622
v 3.314387 0.08373626 1.929208
v 3.301618 0.07653923 1.948837
v 3.288848 0.08794332 1.96636
v 3.319667 0.1053628 1.91898
v 3.283569 0.1113092 1.971493
v 3.314387 0.1287287 1.924113
v 3.288848 0.1329358 1.961266
v 3.301618 0.1401328 1.941636
v 0 -0.1282848 0.05684042
v 0 -0.1401328 0.03539736
v 0 -0.1333797 0.01184796
v 0 -0.1119366 0
v 0 -0.1047354 0.06359358
v 0 -0.08838719 0.006753157
v 0 -0.08329239 0.05174561
v 0 -0.07653923 0.02819622
v -0.4922812 -0.1119366 0
v -3.319667 0.1053628 1.91898
v -3.314387 0.08373626 1.929208
v -0.4893896 -0.1333797 0.01184796
v 0 -0.1119366 0
v -3.301618 0.07653923 1.948837
v 0 -0.1333797 0.01184796
v -0.4823955 -0.1401328 0.03539736
v -3.288848 0.08794332 1.96636
v 0 -0.1401328 0.03539736
v -0.4754013 -0.1282848 0.05684042
v -3.283569 0.1113092 1.971493
v 0 -0.1282848 0.05684042
v -0.4725097 -0.1047354 0.06359358
v -3.288848 0.1329358 1.961266
v 0 -0.1047354 0.06359358
v -0.4754013 -0.08329239 0.05174561
v -3.301618 0.1401328 1.941636
v 0 -0.08329239 0.05174561
v -0.4823955 -0.07653923 0.02819622
v -3.314387 0.1287287 1.924113
v 0 -0.07653923 0.02819622
v -0.4893896 -0.08838719 0.006753157
v -3.319667 0.1053628 1.91898
v 0 -0.08838719 0.006753157
v -0.4922812 -0.1119366 0
v 0 -0.1119366 0
v 3.314387 0.08373626 1.929208
v 3.319667 0.1053628 1.91898
v 0.4922812 -0.1119366 0
v 0.4893896 -0.1333797 0.01184796
v 0 -0.1119366 0
v 3.301618 0.07653923 1.948837
v 0 -0.1333797 0.01184796
v 0.4823955 -0.1401328 0.03539736
v 3.288848 0.08794332 1.96636
v 0 -0.1401328 0.03539736
v 0.4754013 -0.1282848 0.05684042
v 3.283569 0.1113092 1.971493
v 0 -0.1282848 0.05684042
v 0.4725097 -0.1047354 0.06359358
v 3.288848 0.1329358 1.961266
v 0 -0.1047354 0.06359358
v 0.4754013 -0.08329239 0.05174561
v 3.301618 0.1401328 1.941636
v 0 -0.08329239 0.05174561
v 0.4823955 -0.07653923 0.02819622
v 3.314387 0.1287287 1.924113
v 0 -0.07653923 0.02819622
v 0.4893896 -0.08838719 0.006753157
v 3.319667 0.1053628 1.91898
v 0 -0.08838719 0.006753157
v 0.4922812 -0.1119366 0
v 0 -0.1119366 0
vt 0.1462402 0.8535156
vt 0.5 1
vt 0.8535156 0.8535156
vt 1 0.5
vt 0 0.5
vt 0.8535156 0.1462402
vt 0.1462402 0.1462402
vt 0.5 0
vt 0.8535156 0.8535156
vt 0.5 1
vt 0.1462402 0.8535156
vt 1 0.5
vt 0 0.5
vt 0.8535156 0.1462402
vt 0.1462402 0.1462402
vt 0.5 0
vt 0.8535156 0.8535156
vt 0.5 1
vt 0.1462402 0.8535156
vt 1 0.5
vt 0 0.5
vt 0.8535156 0.1462402
vt 0.1462402 0.1462402
vt 0.5 0
vt 0.1462402 0.8535156
vt 0.5 1
vt 0.8535156 0.8535156
vt 1 0.5
vt 0 0.5
vt 0.8535156 0.1462402
vt 0.1462402 0.1462402
vt 0.5 0
vt 0 0.1237793
vt 0 1
vt 0.125 1
vt 0.125 0.1237793
vt 0 0
vt 0.25 1
vt 0.125 0
vt 0.25 0.1237793
vt 0.375 1
vt 0.25 0
vt 0.375 0.1237793
vt 0.5 1
vt 0.375 0
vt 0.5 0.1237793
vt 0.625 1
vt 0.5 0
vt 0.625 0.1237793
vt 0.75 1
vt 0.625 0
vt 0.75 0.1237793
vt 0.875 1
vt 0.75 0
vt 0.875 0.1237793
vt 1 1
vt 0.875 0
vt 1 0.1237793
vt 1 0
vt 0.125 1
vt 0 1
vt 0 0.1237793
vt 0.125 0.1237793
vt 0 0
vt 0.25 1
vt 0.125 0
vt 0.25 0.1237793
vt 0.375 1
vt 0.25 0
vt 0.375 0.1237793
vt 0.5 1
vt 0.375 0
vt 0.5 0.1237793
vt 0.625 1
vt 0.5 0
vt 0.625 0.1237793
vt 0.75 1
vt 0.625 0
vt 0.75 0.1237793
vt 0.875 1
vt 0.75 0
vt 0.875 0.1237793
vt 1 1
vt 0.875 0
vt 1 0.1237793
vt 1 0
vn -0.8256836 0.06347656 0.5605469
vn -0.8256836 0.06347656 0.5605469
vn -0.8256836 0.06347656 0.5605469
vn -0.8256836 0.06347656 0.5605469
vn -0.8256836 0.06347656 0.5605469
vn -0.8256836 0.06347656 0.5605469
vn -0.8256836 0.06347656 0.5605469
vn -0.8256836 0.06347656 0.5605469
vn 1 0 0
vn 1 0 0
vn 1 0 0
vn 1 0 0
vn 1 0 0
vn 1 0 0
vn 1 0 0
vn 1 0 0
vn 0.8256836 0.06347656 0.5605469
vn 0.8256836 0.06347656 0.5605469
vn 0.8256836 0.06347656 0.5605469
vn 0.8256836 0.06347656 0.5605469
vn 0.8256836 0.06347656 0.5605469
vn 0.8256836 0.06347656 0.5605469
vn 0.8256836 0.06347656 0.5605469
vn 0.8256836 0.06347656 0.5605469
vn -1 0 0
vn -1 0 0
vn -1 0 0
vn -1 0 0
vn -1 0 0
vn -1 0 0
vn -1 0 0
vn -1 0 0
vn -0.295166 -0.1074829 -0.9492188
vn -0.5639648 -0.09289551 -0.8203125
vn -0.3989258 -0.7685547 -0.5004883
vn -0.2038574 -0.7924805 -0.574707
vn 0 -0.1124878 -0.9936523
vn 5.960464E-07 -0.9936523 0.1125488
vn 0 -0.7822266 -0.6230469
vn 2.980232E-07 -0.9936523 0.1125488
vn 0.3989258 -0.6367188 0.659668
vn 0 -0.9936523 0.1124878
vn 0.2038574 -0.644043 0.7373047
vn 0.5639648 0.09289551 0.8203125
vn 0 -0.6230469 0.7822266
vn 0.295166 0.1074829 0.9492188
vn 0.3989258 0.7685547 0.5004883
vn 0 0.1124878 0.9936523
vn 0.2038574 0.7924805 0.574707
vn 4.172325E-07 0.9936523 -0.1124878
vn 0 0.7822266 0.6230469
vn 2.384186E-07 0.9936523 -0.1124878
vn -0.3989258 0.6367188 -0.659668
vn 0 0.9936523 -0.1124878
vn -0.2038574 0.644043 -0.7373047
vn -0.5639648 -0.09289551 -0.8203125
vn 0 0.6230469 -0.7822266
vn -0.295166 -0.1074829 -0.9492188
vn 0 -0.1124878 -0.9936523
vn 0.3989258 -0.7685547 -0.5004883
vn 0.5639648 -0.09289551 -0.8203125
vn 0.295166 -0.1074829 -0.9492188
vn 0.2038574 -0.7924805 -0.574707
vn 0 -0.1124878 -0.9936523
vn -5.960464E-07 -0.9936523 0.1125488
vn 0 -0.7822266 -0.6230469
vn -2.980232E-07 -0.9936523 0.1125488
vn -0.3989258 -0.6367188 0.659668
vn 0 -0.9936523 0.1124878
vn -0.2038574 -0.644043 0.7373047
vn -0.5639648 0.09289551 0.8203125
vn 0 -0.6230469 0.7822266
vn -0.295166 0.1074829 0.9492188
vn -0.3989258 0.7685547 0.5004883
vn 0 0.1124878 0.9936523
vn -0.2038574 0.7924805 0.574707
vn -4.172325E-07 0.9936523 -0.1124878
vn 0 0.7822266 0.6230469
vn -2.384186E-07 0.9936523 -0.1124878
vn 0.3989258 0.6367188 -0.659668
vn 0 0.9936523 -0.1124878
vn 0.2038574 0.644043 -0.7373047
vn 0.5639648 -0.09289551 -0.8203125
vn 0 0.6230469 -0.7822266
vn 0.295166 -0.1074829 -0.9492188
vn 0 -0.1124878 -0.9936523
g rope_0
f 3/3/3 2/2/2 1/1/1
f 1/1/1 4/4/4 3/3/3
f 1/1/1 5/5/5 4/4/4
f 5/5/5 6/6/6 4/4/4
f 5/5/5 7/7/7 6/6/6
f 7/7/7 8/8/8 6/6/6
f 11/11/11 10/10/10 9/9/9
f 9/9/9 12/12/12 11/11/11
f 12/12/12 13/13/13 11/11/11
f 12/12/12 14/14/14 13/13/13
f 14/14/14 15/15/15 13/13/13
f 14/14/14 16/16/16 15/15/15
f 19/19/19 18/18/18 17/17/17
f 17/17/17 20/20/20 19/19/19
f 20/20/20 21/21/21 19/19/19
f 20/20/20 22/22/22 21/21/21
f 22/22/22 23/23/23 21/21/21
f 22/22/22 24/24/24 23/23/23
f 27/27/27 26/26/26 25/25/25
f 25/25/25 28/28/28 27/27/27
f 25/25/25 29/29/29 28/28/28
f 29/29/29 30/30/30 28/28/28
f 29/29/29 31/31/31 30/30/30
f 31/31/31 32/32/32 30/30/30
f 35/35/35 34/34/34 33/33/33
f 36/36/36 35/35/35 33/33/33
f 36/36/36 33/33/33 37/37/37
f 38/38/38 35/35/35 36/36/36
f 39/39/39 36/36/36 37/37/37
f 40/40/40 38/38/38 36/36/36
f 40/40/40 36/36/36 39/39/39
f 41/41/41 38/38/38 40/40/40
f 42/42/42 40/40/40 39/39/39
f 43/43/43 41/41/41 40/40/40
f 43/43/43 40/40/40 42/42/42
f 44/44/44 41/41/41 43/43/43
f 45/45/45 43/43/43 42/42/42
f 46/46/46 44/44/44 43/43/43
f 46/46/46 43/43/43 45/45/45
f 47/47/47 44/44/44 46/46/46
f 48/48/48 46/46/46 45/45/45
f 49/49/49 47/47/47 46/46/46
f 49/49/49 46/46/46 48/48/48
f 50/50/50 47/47/47 49/49/49
f 51/51/51 49/49/49 48/48/48
f 52/52/52 50/50/50 49/49/49
f 52/52/52 49/49/49 51/51/51
f 53/53/53 50/50/50 52/52/52
f 54/54/54 52/52/52 51/51/51
f 55/55/55 53/53/53 52/52/52
f 55/55/55 52/52/52 54/54/54
f 56/56/56 53/53/53 55/55/55
f 57/57/57 55/55/55 54/54/54
f 58/58/58 56/56/56 55/55/55
f 58/58/58 55/55/55 57/57/57
f 59/59/59 58/58/58 57/57/57
f 62/62/62 61/61/61 60/60/60
f 63/63/63 62/62/62 60/60/60
f 64/64/64 62/62/62 63/63/63
f 63/63/63 60/60/60 65/65/65
f 66/66/66 64/64/64 63/63/63
f 67/67/67 63/63/63 65/65/65
f 66/66/66 63/63/63 67/67/67
f 67/67/67 65/65/65 68/68/68
f 69/69/69 66/66/66 67/67/67
f 70/70/70 67/67/67 68/68/68
f 69/69/69 67/67/67 70/70/70
f 70/70/70 68/68/68 71/71/71
f 72/72/72 69/69/69 70/70/70
f 73/73/73 70/70/70 71/71/71
f 72/72/72 70/70/70 73/73/73
f 73/73/73 71/71/71 74/74/74
f 75/75/75 72/72/72 73/73/73
f 76/76/76 73/73/73 74/74/74
f 75/75/75 73/73/73 76/76/76
f 76/76/76 74/74/74 77/77/77
f 78/78/78 75/75/75 76/76/76
f 79/79/79 76/76/76 77/77/77
f 78/78/78 76/76/76 79/79/79
f 79/79/79 77/77/77 80/80/80
f 81/81/81 78/78/78 79/79/79
f 82/82/82 79/79/79 80/80/80
f 81/81/81 79/79/79 82/82/82
f 82/82/82 80/80/80 83/83/83
f 84/84/84 81/81/81 82/82/82
f 85/85/85 82/82/82 83/83/83
f 84/84/84 82/82/82 85/85/85
f 86/86/86 84/84/84 85/85/85
