g SM_Background_City_01
v 14.29015 11.65274 0
v 8.454367 12.60071 0
v 14.29015 0 0
v 11.60147 13.97031 0
v 9.342119 13.97031 0
v 11.60147 10.61341 0
v 13.42118 10.61341 0
v 0 11.65274 0
v 0 0 0
v 3.006764 8.410128 0
v 5.062579 14.76998 0
v 1.827945 9.36921 0
v 5.062579 8.410128 0
v 0 11.65274 0
v 8.454367 14.76998 0
v 3.006764 9.36921 0
v 1.827945 11.65274 0
v 9.342119 12.60071 0
v 13.42118 11.65274 0
v 0 0 0
v 0 11.65274 0
vt 0.2773438 0.7890625
vt 0.2773438 0.7890625
vt 0.2773438 0.7890625
vt 0.2773438 0.7890625
vt 0.2773438 0.7890625
vt 0.2773438 0.7890625
vt 0.2773438 0.7890625
vt 0.2773438 0.7890625
vt 0.2773438 0.7890625
vt 0.2773438 0.7890625
vt 0.2773438 0.7890625
vt 0.2773438 0.7890625
vt 0.2773438 0.7890625
vt 0.2773438 0.7890625
vt 0.2773438 0.7890625
vt 0.2773438 0.7890625
vt 0.2773438 0.7890625
vt 0.2773438 0.7890625
vt 0.2773438 0.7890625
vt 0.2773438 0.7890625
vt 0.2773438 0.7890625
vn 0 0 1
vn 0 0 1
vn 0 0 1
vn 0 0 1
vn 0 0 1
vn 0 0 1
vn 0 0 1
vn 0 1 0
vn 0 0 1
vn 0 0 1
vn 0 0 1
vn 0 0 1
vn 0 0 1
vn 0 0 1
vn 0 0 1
vn 0 0 1
vn 0 0 1
vn 0 0 1
vn 0 0 1
vn 0 1 0
vn 0 1 0
g SM_Background_City_01_0
f 21/21/21 8/8/8 20/20/20
f 14/14/14 12/12/12 17/17/17
f 9/9/9 12/12/12 14/14/14
f 12/12/12 9/9/9 10/10/10
f 12/12/12 10/10/10 16/16/16
f 10/10/10 9/9/9 13/13/13
f 13/13/13 9/9/9 2/2/2
f 13/13/13 2/2/2 11/11/11
f 11/11/11 2/2/2 15/15/15
f 2/2/2 9/9/9 6/6/6
f 2/2/2 6/6/6 18/18/18
f 18/18/18 6/6/6 4/4/4
f 18/18/18 4/4/4 5/5/5
f 6/6/6 9/9/9 7/7/7
f 7/7/7 9/9/9 3/3/3
f 7/7/7 3/3/3 19/19/19
f 19/19/19 3/3/3 1/1/1
