g small_boat
v 0.8499999 0.7 -1.5397
v 0.545 0.7 -1.5397
v -0.8499999 0.7 -1.5397
v 0.6799999 8.146034E-08 -1.37006
v -0.6799999 8.146034E-08 -1.37006
v -0.6799999 8.146034E-08 0.4999999
v -0.372 8.146034E-08 1.051304
v 0 8.146034E-08 1.263344
v 0.372 8.146034E-08 1.051304
v 0.6799999 8.146034E-08 0.4999999
v 0.8924999 0.4 -1.5397
v 0.6799999 8.146034E-08 -1.37006
v 0.6799999 8.146034E-08 0.4999999
v 0.8924999 0.4 1.003595
v -0.8499999 0.7 0.9028759
v -0.8924999 0.4 1.003595
v -0.8924999 0.4 -1.5397
v -0.8499999 0.7 -1.5397
v 0.8924999 0.4 -1.5397
v 0.8924999 0.4 1.003595
v 0.8499999 0.7 0.9028759
v 0.8499999 0.7 -1.5397
v -0.6799999 8.146034E-08 0.4999999
v -0.6799999 8.146034E-08 -1.37006
v -0.8924999 0.4 -1.5397
v -0.8924999 0.4 1.003595
v -0.6799999 8.146034E-08 0.4999999
v -0.8924999 0.4 1.003595
v -0.4882499 0.4 1.72718
v -0.372 8.146034E-08 1.051304
v -0.372 8.146034E-08 1.051304
v -0.4882499 0.4 1.72718
v 5.775289E-15 0.4 2.00548
v 0 8.146034E-08 1.263344
v 0.6799999 8.146034E-08 0.4999999
v 0.372 8.146034E-08 1.051304
v 0.4882499 0.4 1.72718
v 0.8924999 0.4 1.003595
v 0.372 8.146034E-08 1.051304
v 0 8.146034E-08 1.263344
v 5.775289E-15 0.4 2.00548
v 0.4882499 0.4 1.72718
v -0.7499999 0.4 -0.38546
v 0.7499999 0.4 -0.38546
v 0.7499999 0.4 0.15454
v -0.7499999 0.4 0.15454
v -0.7499999 0.4 -1.30802
v -0.7499999 0.7 -1.30802
v 0.7499999 0.7 -1.30802
v 0.7499999 0.4 -1.30802
v -0.7499999 0.4 -1.30802
v 0.7499999 0.4 -1.30802
v 0.7499999 0.4 -0.8154598
v -0.7499999 0.4 -0.8154598
v 0.7499999 0.4 0.5845399
v 0.7499999 0.7 0.8043818
v 0.7499999 0.4 0.8043818
v 0.7499999 0.57 0.5845399
v 0.7499999 0.7 -1.30802
v 0.7499999 0.57 0.15454
v 0.7499999 0.57 -0.38546
v 0.7499999 0.4 -0.38546
v 0.7499999 0.4 0.15454
v 0.7499999 0.57 -0.8154598
v 0.7499999 0.4 -0.8154598
v 0.7499999 0.4 -1.30802
v -0.7499999 0.4 0.8043818
v -0.417522 0.4 1.399501
v -0.417522 0.7 1.399501
v -0.7499999 0.7 0.8043818
v -0.417522 0.4 1.399501
v -0.7499999 0.4 0.8043818
v -0.7499999 0.4 0.5845399
v 0.7499999 0.4 0.5845399
v 4.331469E-15 0.4 1.63749
v 0.417522 0.4 1.399501
v 0.7499999 0.4 0.8043818
v 0.7499999 0.4 0.15454
v 0.7499999 0.57 0.15454
v -0.7499999 0.57 0.15454
v -0.7499999 0.4 0.15454
v -0.4882499 0.4 1.72718
v -0.4649999 0.7 1.59201
v 4.331469E-15 0.7 1.85706
v 5.775289E-15 0.4 2.00548
v 0.8924999 0.4 1.003595
v 0.4882499 0.4 1.72718
v 0.4649999 0.7 1.59201
v 0.8499999 0.7 0.9028759
v 0.4649999 0.7 1.59201
v 0.4882499 0.4 1.72718
v 5.775289E-15 0.4 2.00548
v 4.331469E-15 0.7 1.85706
v 0.6799999 8.146034E-08 -1.37006
v 0.8924999 0.4 -1.5397
v -0.8924999 0.4 -1.5397
v -0.6799999 8.146034E-08 -1.37006
v -0.7499999 0.57 -0.38546
v -0.7499999 0.4 -0.38546
v -0.7499999 0.4 0.15454
v -0.7499999 0.57 0.15454
v -0.7499999 0.7 -1.30802
v -0.7499999 0.57 -0.8154598
v -0.7499999 0.4 -0.8154598
v -0.7499999 0.4 -1.30802
v -0.7499999 0.57 0.5845399
v -0.7499999 0.7 0.8043818
v -0.7499999 0.4 0.5845399
v -0.7499999 0.4 0.8043818
v -0.8924999 0.4 1.003595
v -0.8499999 0.7 0.9028759
v -0.4649999 0.7 1.59201
v -0.4882499 0.4 1.72718
v 0.8924999 0.4 -1.5397
v 0.8499999 0.7 -1.5397
v -0.8499999 0.7 -1.5397
v -0.8924999 0.4 -1.5397
v -0.417522 0.7 1.399501
v -0.417522 0.4 1.399501
v 4.331469E-15 0.4 1.63749
v 4.331469E-15 0.7 1.63749
v 4.331469E-15 0.7 1.63749
v 4.331469E-15 0.4 1.63749
v 0.417522 0.4 1.399501
v 0.417522 0.7 1.399501
v 0.7499999 0.57 -0.38546
v -0.7499999 0.57 -0.38546
v -0.7499999 0.57 -0.8154598
v 0.7499999 0.57 -0.8154598
v 0.7499999 0.57 0.5845399
v -0.7499999 0.57 0.5845399
v -0.7499999 0.57 0.15454
v 0.7499999 0.57 0.15454
v -0.7499999 0.4 -0.38546
v -0.7499999 0.57 -0.38546
v 0.7499999 0.57 -0.38546
v 0.7499999 0.4 -0.38546
v -0.7499999 0.4 0.5845399
v -0.7499999 0.57 0.5845399
v 0.7499999 0.57 0.5845399
v 0.7499999 0.4 0.5845399
v 0.7499999 0.7 0.8043818
v 0.417522 0.7 1.399501
v 0.417522 0.4 1.399501
v 0.7499999 0.4 0.8043818
v 0.7499999 0.4 -0.8154598
v 0.7499999 0.57 -0.8154598
v -0.7499999 0.57 -0.8154598
v -0.7499999 0.4 -0.8154598
v 0.8924999 0.4 1.003595
v 0.8924999 0.4 -1.5397
v 0.7499999 0.4 0.8043818
v 0.4882499 0.4 1.72718
v 0.417522 0.4 1.399501
v 5.775289E-15 0.4 2.00548
v 4.331469E-15 0.4 1.63749
v -0.417522 0.4 1.399501
v -0.4882499 0.4 1.72718
v -0.7499999 0.4 0.8043818
v 0.7499999 0.4 0.5845399
v -0.8924999 0.4 1.003595
v 0.7499999 0.4 0.15454
v -0.7499999 0.4 0.5845399
v -0.7499999 0.4 0.15454
v 0.7499999 0.4 -0.38546
v -0.7499999 0.4 -0.38546
v -0.7499999 0.4 -1.30802
v -0.8924999 0.4 -1.5397
v -0.7499999 0.4 -0.8154598
v 0.7499999 0.4 -1.30802
v 0.7499999 0.4 -0.8154598
v 0.8499999 0.7 -1.5397
v 0.8499999 0.7 0.9028759
v 0.7499999 0.7 -1.30802
v 0.545 0.7 -1.5397
v 0.7499999 0.7 0.8043818
v -0.7499999 0.7 -1.30802
v -0.8499999 0.7 -1.5397
v 0.4649999 0.7 1.59201
v 0.417522 0.7 1.399501
v 4.331469E-15 0.7 1.63749
v 4.331469E-15 0.7 1.85706
v -0.417522 0.7 1.399501
v -0.4649999 0.7 1.59201
v -0.7499999 0.7 0.8043818
v -0.8499999 0.7 0.9028759
vt -33.4646 27.5591
vt -21.4567 27.5591
vt 33.4646 27.5591
vt -26.7717 73.6246
vt 26.7717 73.6246
vt 26.7717 -2.42947E-33
vt 14.6457 -21.7049
vt 0 -30.0529
vt -14.6457 -21.7049
vt -26.7717 -8.74257E-33
vt 80.3031 30.3924
vt 73.6246 12.5601
vt -8.64432E-16 12.5601
vt -19.8266 30.3924
vt 15.8613 22.5927
vt 19.8266 10.6637
vt -80.3031 10.6637
vt -80.3031 22.5927
vt 80.3031 10.6637
vt -19.8266 10.6637
vt -15.8613 22.5927
vt 80.3031 22.5927
vt 0 12.5601
vt -73.6246 12.5601
vt -80.3031 30.3924
vt 19.8266 30.3924
vt -13.0571 17.1331
vt 0.171066 40.287
vt 32.803 40.287
vt 11.8053 17.1331
vt -1.9755 22.1865
vt 7.22534 52.0587
vt 29.3512 52.0587
vt 14.8823 22.1865
vt 13.0571 17.1331
vt -11.8053 17.1331
vt -32.803 40.287
vt -0.171066 40.287
vt 1.9755 22.1865
vt -14.8823 22.1865
vt -29.3512 52.0587
vt -7.22534 52.0587
vt -29.5276 34.8606
vt 29.5276 34.8606
vt 29.5276 13.6008
vt -29.5276 13.6008
vt -29.5276 15.748
vt -29.5276 27.5591
vt 29.5276 27.5591
vt 29.5276 15.748
vt -29.5276 71.182
vt 29.5276 71.182
vt 29.5276 51.7898
vt -29.5276 51.7898
vt 3.32835 15.748
vt 11.9835 27.5591
vt 11.9835 15.748
vt 3.32835 22.4409
vt -71.182 27.5591
vt -13.6008 22.4409
vt -34.8606 22.4409
vt -34.8606 15.748
vt -13.6008 15.748
vt -51.7898 22.4409
vt -51.7898 15.748
vt -71.182 15.748
vt 3.93965 15.748
vt -22.8988 15.748
vt -22.8988 27.5591
vt 3.93965 27.5591
vt -16.4379 -35.4134
vt -29.5276 -11.9835
vt -29.5276 -3.32835
vt 29.5276 -3.32835
vt 1.6971E-13 -44.783
vt 16.4379 -35.4134
vt 29.5276 -11.9835
vt -29.5276 15.748
vt -29.5276 22.4409
vt 29.5276 22.4409
vt 29.5276 15.748
vt 7.22534 -5.86666
vt 5.38517 6.98924
vt 26.4574 6.98924
vt 29.3512 -5.86666
vt -0.171066 3.99056
vt -32.803 3.99056
vt -28.6035 16.2798
vt 2.47458 16.2798
vt -5.38517 6.98924
vt -7.22534 -5.86666
vt -29.3512 -5.86666
vt -26.4574 6.98924
vt -26.7717 28.7452
vt -35.1378 45.8509
vt 35.1378 45.8509
vt 26.7717 28.7452
vt 34.8606 22.4409
vt 34.8606 15.748
vt 13.6008 15.748
vt 13.6008 22.4409
vt 71.182 27.5591
vt 51.7898 22.4409
vt 51.7898 15.748
vt 71.182 15.748
vt -3.32835 22.4409
vt -11.9835 27.5591
vt -3.32835 15.748
vt -11.9835 15.748
vt 0.171066 3.99056
vt -2.47458 16.2798
vt 28.6035 16.2798
vt 32.803 3.99056
vt -35.1378 15.748
vt -33.4646 27.5591
vt 33.4646 27.5591
vt 35.1378 15.748
vt -3.256 27.5591
vt -3.256 15.748
vt -22.1767 15.748
vt -22.1767 27.5591
vt 22.1767 27.5591
vt 22.1767 15.748
vt 3.256 15.748
vt 3.256 27.5591
vt 29.5276 34.8606
vt -29.5276 34.8606
vt -29.5276 51.7898
vt 29.5276 51.7898
vt 29.5276 -3.32835
vt -29.5276 -3.32835
vt -29.5276 13.6008
vt 29.5276 13.6008
vt -29.5276 15.748
vt -29.5276 22.4409
vt 29.5276 22.4409
vt 29.5276 15.748
vt -29.5276 15.748
vt -29.5276 22.4409
vt 29.5276 22.4409
vt 29.5276 15.748
vt -3.93965 27.5591
vt 22.8988 27.5591
vt 22.8988 15.748
vt -3.93965 15.748
vt -29.5276 15.748
vt -29.5276 22.4409
vt 29.5276 22.4409
vt 29.5276 15.748
vt -35.1378 -19.8266
vt -35.1378 80.3031
vt -29.5276 -11.9835
vt -19.2224 -48.3142
vt -16.4379 -35.4134
vt -2.26681E-13 -59.271
vt -1.69838E-13 -44.783
vt 16.4379 -35.4134
vt 19.2224 -48.3142
vt 29.5276 -11.9835
vt -29.5276 -3.32835
vt 35.1378 -19.8266
vt -29.5276 13.6008
vt 29.5276 -3.32835
vt 29.5276 13.6008
vt -29.5276 34.8606
vt 29.5276 34.8606
vt 29.5276 71.182
vt 35.1378 80.3031
vt 29.5276 51.7898
vt -29.5276 71.182
vt -29.5276 51.7898
vt 33.4646 80.3031
vt 33.4646 -15.8613
vt 29.5276 71.182
vt 21.4567 80.3031
vt 29.5276 -11.9835
vt -29.5276 71.182
vt -33.4646 80.3031
vt 18.3071 -42.9924
vt 16.4379 -35.4134
vt 1.7053E-13 -44.783
vt 1.7053E-13 -53.4274
vt -16.4379 -35.4134
vt -18.3071 -42.9924
vt -29.5276 -11.9835
vt -33.4646 -15.8613
vn 0 1 0.0002136296
vn 0 0.7071068 0.7071068
vn 0 1 0.0002136296
vn 0 -1 0
vn 0 -1 0
vn 0 -1 0
vn 0 -1 0
vn 0 -1 0
vn 0 -1 0
vn 0 -1 0
vn 0.6108452 -0.5478227 -0.5716279
vn 0.8831256 -0.4691366 0
vn 0.818311 -0.5653374 0.1037347
vn 0.7453746 -0.6193601 0.2465965
vn -0.9578791 0.2036554 0.2024651
vn -0.7453746 -0.6193601 0.2465965
vn -0.6108452 -0.5478227 -0.5716279
vn -0.9901142 0.1402634 0
vn 0.6108452 -0.5478227 -0.5716279
vn 0.7453746 -0.6193601 0.2465965
vn 0.9578791 0.2036554 0.2024651
vn 0.9901142 0.1402634 0
vn -0.818311 -0.5653374 0.1037347
vn -0.8831256 -0.4691366 0
vn -0.6108452 -0.5478227 -0.5716279
vn -0.7453746 -0.6193601 0.2465965
vn -0.818311 -0.5653374 0.1037347
vn -0.7453746 -0.6193601 0.2465965
vn -0.4985066 -0.6717967 0.5478872
vn -0.4833571 -0.7872941 0.3827976
vn -0.4833571 -0.7872941 0.3827976
vn -0.4985066 -0.6717967 0.5478872
vn 0 -0.6792163 0.7339382
vn -0.2610629 -0.8497517 0.4580046
vn 0.818311 -0.5653374 0.1037347
vn 0.4833571 -0.7872941 0.3827976
vn 0.4985066 -0.6717967 0.5478872
vn 0.7453746 -0.6193601 0.2465965
vn 0.4833571 -0.7872941 0.3827976
vn 0.2610629 -0.8497517 0.4580046
vn 0 -0.6792163 0.7339382
vn 0.4985066 -0.6717967 0.5478872
vn 0 1 0
vn 0 1 0
vn 0 1 0
vn 0 1 0
vn 0 0 1
vn 0 0 1
vn 0 0 1
vn 0 0 1
vn 0 1 0
vn 0 1 0
vn 0 1 0
vn 0 1 0
vn -1 0 0
vn -0.9677283 0 -0.2519957
vn -0.9677283 0 -0.2519957
vn -1 0 0
vn -1 0 0
vn -1 0 0
vn -1 0 0
vn -1 0 0
vn -1 0 0
vn -1 0 0
vn -1 0 0
vn -1 0 0
vn 0.9677283 0 -0.2519957
vn 0.7101369 0 -0.7040636
vn 0.7101369 0 -0.7040636
vn 0.9677283 0 -0.2519957
vn 0 1 0
vn 0 1 0
vn 0 1 0
vn 0 1 0
vn 0 1 0
vn 0 1 0
vn 0 1 0
vn 0 0 -1
vn 0 0 -1
vn 0 0 -1
vn 0 0 -1
vn -0.4985066 -0.6717967 0.5478872
vn -0.6976689 0.3385495 0.6313812
vn -0.4549522 0.3948901 0.7981731
vn 0 -0.6792163 0.7339382
vn 0.7453746 -0.6193601 0.2465965
vn 0.4985066 -0.6717967 0.5478872
vn 0.6976689 0.3385495 0.6313812
vn 0.9578791 0.2036554 0.2024651
vn 0.6976689 0.3385495 0.6313812
vn 0.4985066 -0.6717967 0.5478872
vn 0 -0.6792163 0.7339382
vn 0.4549522 0.3948901 0.7981731
vn 0 -0.3904284 -0.9206333
vn 0.6108452 -0.5478227 -0.5716279
vn -0.6108452 -0.5478227 -0.5716279
vn 0 -0.3904284 -0.9206333
vn 1 0 0
vn 1 0 0
vn 1 0 0
vn 1 0 0
vn 1 0 0
vn 1 0 0
vn 1 0 0
vn 1 0 0
vn 1 0 0
vn 0.9677283 0 -0.2519957
vn 1 0 0
vn 0.9677283 0 -0.2519957
vn -0.7453746 -0.6193601 0.2465965
vn -0.9578791 0.2036554 0.2024651
vn -0.6976689 0.3385495 0.6313812
vn -0.4985066 -0.6717967 0.5478872
vn 0.6108452 -0.5478227 -0.5716279
vn 0 0 -1
vn 0 0 -1
vn -0.6108452 -0.5478227 -0.5716279
vn 0.7101369 0 -0.7040636
vn 0.7101369 0 -0.7040636
vn 0.4951987 0 -0.8687798
vn 0.4951987 0 -0.8687798
vn -0.4951987 0 -0.8687798
vn -0.4951987 0 -0.8687798
vn -0.7101369 0 -0.7040636
vn -0.7101369 0 -0.7040636
vn 0 1 0
vn 0 1 0
vn 0 1 0
vn 0 1 0
vn 0 1 0
vn 0 1 0
vn 0 1 0
vn 0 1 0
vn 0 0 1
vn 0 0 1
vn 0 0 1
vn 0 0 1
vn 0 0 1
vn 0 0 1
vn 0 0 1
vn 0 0 1
vn -0.9677283 0 -0.2519957
vn -0.7101369 0 -0.7040636
vn -0.7101369 0 -0.7040636
vn -0.9677283 0 -0.2519957
vn 0 0 -1
vn 0 0 -1
vn 0 0 -1
vn 0 0 -1
vn 0.7453746 -0.6193601 0.2465965
vn 0.6108452 -0.5478227 -0.5716279
vn 0 -1 0
vn 0.4985066 -0.6717967 0.5478872
vn 0 -1 0
vn 0 -0.6792163 0.7339382
vn 0 -1 0
vn 0 -1 0
vn -0.4985066 -0.6717967 0.5478872
vn 0 -1 0
vn 0 -1 0
vn -0.7453746 -0.6193601 0.2465965
vn 0 -1 0
vn 0 -0.4472014 0.8944333
vn 0 -0.4472014 0.8944333
vn 0 -1 0
vn 0 1 0
vn 0 -1 0
vn -0.6108452 -0.5478227 -0.5716279
vn 0 -1 0
vn 0 -1 0
vn 0 -1 0
vn 0 1 0.0002136296
vn 0 1 0
vn 0 1 0
vn 0 0.7071068 0.7071068
vn 0 1 0
vn 0 1 0
vn 0 1 0.0002136296
vn 0 1 0
vn 0 1 0
vn 0 1 0
vn 0 1 0
vn 0 1 0
vn 0 1 0
vn 0 1 0
vn 0 1 0
g small_boat_0
f 3/3/3 2/2/2 1/1/1
f 6/6/6 5/5/5 4/4/4
f 4/4/4 7/7/7 6/6/6
f 4/4/4 8/8/8 7/7/7
f 4/4/4 9/9/9 8/8/8
f 4/4/4 10/10/10 9/9/9
f 13/13/13 12/12/12 11/11/11
f 11/11/11 14/14/14 13/13/13
f 17/17/17 16/16/16 15/15/15
f 18/18/18 17/17/17 15/15/15
f 21/21/21 20/20/20 19/19/19
f 22/22/22 21/21/21 19/19/19
f 25/25/25 24/24/24 23/23/23
f 23/23/23 26/26/26 25/25/25
f 29/29/29 28/28/28 27/27/27
f 27/27/27 30/30/30 29/29/29
f 33/33/33 32/32/32 31/31/31
f 34/34/34 33/33/33 31/31/31
f 37/37/37 36/36/36 35/35/35
f 35/35/35 38/38/38 37/37/37
f 41/41/41 40/40/40 39/39/39
f 42/42/42 41/41/41 39/39/39
f 45/45/45 44/44/44 43/43/43
f 46/46/46 45/45/45 43/43/43
f 49/49/49 48/48/48 47/47/47
f 50/50/50 49/49/49 47/47/47
f 53/53/53 52/52/52 51/51/51
f 54/54/54 53/53/53 51/51/51
f 57/57/57 56/56/56 55/55/55
f 56/56/56 58/58/58 55/55/55
f 56/56/56 59/59/59 58/58/58
f 59/59/59 60/60/60 58/58/58
f 59/59/59 61/61/61 60/60/60
f 61/61/61 62/62/62 60/60/60
f 62/62/62 63/63/63 60/60/60
f 59/59/59 64/64/64 61/61/61
f 65/65/65 64/64/64 59/59/59
f 66/66/66 65/65/65 59/59/59
f 69/69/69 68/68/68 67/67/67
f 70/70/70 69/69/69 67/67/67
f 73/73/73 72/72/72 71/71/71
f 71/71/71 74/74/74 73/73/73
f 71/71/71 75/75/75 74/74/74
f 75/75/75 76/76/76 74/74/74
f 76/76/76 77/77/77 74/74/74
f 80/80/80 79/79/79 78/78/78
f 81/81/81 80/80/80 78/78/78
f 84/84/84 83/83/83 82/82/82
f 85/85/85 84/84/84 82/82/82
f 88/88/88 87/87/87 86/86/86
f 89/89/89 88/88/88 86/86/86
f 92/92/92 91/91/91 90/90/90
f 93/93/93 92/92/92 90/90/90
f 96/96/96 95/95/95 94/94/94
f 97/97/97 96/96/96 94/94/94
f 100/100/100 99/99/99 98/98/98
f 101/101/101 100/100/100 98/98/98
f 101/101/101 98/98/98 102/102/102
f 98/98/98 103/103/103 102/102/102
f 103/103/103 104/104/104 102/102/102
f 104/104/104 105/105/105 102/102/102
f 106/106/106 101/101/101 102/102/102
f 106/106/106 102/102/102 107/107/107
f 106/106/106 107/107/107 108/108/108
f 107/107/107 109/109/109 108/108/108
f 112/112/112 111/111/111 110/110/110
f 113/113/113 112/112/112 110/110/110
f 116/116/116 115/115/115 114/114/114
f 117/117/117 116/116/116 114/114/114
f 120/120/120 119/119/119 118/118/118
f 121/121/121 120/120/120 118/118/118
f 124/124/124 123/123/123 122/122/122
f 125/125/125 124/124/124 122/122/122
f 128/128/128 127/127/127 126/126/126
f 129/129/129 128/128/128 126/126/126
f 132/132/132 131/131/131 130/130/130
f 133/133/133 132/132/132 130/130/130
f 136/136/136 135/135/135 134/134/134
f 137/137/137 136/136/136 134/134/134
f 140/140/140 139/139/139 138/138/138
f 141/141/141 140/140/140 138/138/138
f 144/144/144 143/143/143 142/142/142
f 145/145/145 144/144/144 142/142/142
f 148/148/148 147/147/147 146/146/146
f 149/149/149 148/148/148 146/146/146
f 152/152/152 151/151/151 150/150/150
f 152/152/152 150/150/150 153/153/153
f 154/154/154 152/152/152 153/153/153
f 154/154/154 153/153/153 155/155/155
f 156/156/156 154/154/154 155/155/155
f 156/156/156 155/155/155 157/157/157
f 155/155/155 158/158/158 157/157/157
f 159/159/159 157/157/157 158/158/158
f 151/151/151 152/152/152 160/160/160
f 159/159/159 158/158/158 161/161/161
f 151/151/151 160/160/160 162/162/162
f 160/160/160 163/163/163 162/162/162
f 163/163/163 164/164/164 162/162/162
f 164/164/164 163/163/163 159/159/159
f 151/151/151 162/162/162 165/165/165
f 166/166/166 164/164/164 159/159/159
f 161/161/161 167/167/167 159/159/159
f 167/167/167 161/161/161 168/168/168
f 168/168/168 151/151/151 167/167/167
f 167/167/167 169/169/169 159/159/159
f 169/169/169 166/166/166 159/159/159
f 151/151/151 170/170/170 167/167/167
f 166/166/166 169/169/169 171/171/171
f 165/165/165 166/166/166 171/171/171
f 151/151/151 171/171/171 170/170/170
f 151/151/151 165/165/165 171/171/171
f 174/174/174 173/173/173 172/172/172
f 174/174/174 172/172/172 175/175/175
f 173/173/173 174/174/174 176/176/176
f 177/177/177 174/174/174 175/175/175
f 177/177/177 175/175/175 178/178/178
f 179/179/179 173/173/173 176/176/176
f 179/179/179 176/176/176 180/180/180
f 179/179/179 180/180/180 181/181/181
f 182/182/182 179/179/179 181/181/181
f 182/182/182 181/181/181 183/183/183
f 184/184/184 182/182/182 183/183/183
f 178/178/178 185/185/185 177/177/177
f 184/184/184 183/183/183 185/185/185
f 185/185/185 178/178/178 186/186/186
f 186/186/186 184/184/184 185/185/185
