g stone-flat
v -0.5705671 0.0841663 0.6703051
v -0.2222216 -0.09490621 0.1197652
v -1.162265 0.08416642 -0.1588832
v 0.2658545 0.5938421 0.1917875
v 0.926712 0.5899956 -0.1731124
v 0.6605211 0.5919307 0.2864842
v 0.926712 0.5899956 -0.1731124
v 0.2658545 0.5938421 0.1917875
v 0.4427023 0.7873986 -0.862089
v -1.162265 0.08416642 -0.1588832
v -0.2222216 -0.09490621 0.1197652
v -0.8120628 -0.06573122 -1.130382
v -0.6811241 0.690142 -0.9537743
v -0.4320672 0.6807456 -0.4294614
v -0.9723547 0.5844468 -0.1529505
v -0.2222216 -0.09490621 0.1197652
v 0.5544471 -0.06573121 -1.116655
v -0.8120628 -0.06573122 -1.130382
v -0.5705671 0.0841663 0.6703051
v 0.005241618 0.08416636 0.6018655
v -0.2222216 -0.09490621 0.1197652
v -0.4320672 0.6807456 -0.4294614
v -0.6811241 0.690142 -0.9537743
v 0.4427023 0.7873986 -0.862089
v -0.6811241 0.690142 -0.9537743
v -0.9723547 0.5844468 -0.1529505
v -0.8120628 -0.06573122 -1.130382
v -0.8120628 -0.06573122 -1.130382
v -0.9723547 0.5844468 -0.1529505
v -1.162265 0.08416642 -0.1588832
v 0.357527 0.02706463 0.2617699
v 0.7915894 0.08408315 0.9999034
v 0.8462418 0.08408326 0.4735613
v 0.216886 0.09490602 1.130382
v 0.357527 0.02706463 0.2617699
v 0.01120185 0.08408326 0.66062
v 0.8462418 0.08408326 0.4735613
v 0.7700256 0.4279418 0.4492842
v 0.357527 0.02706463 0.2617699
v 0.01120185 0.08408326 0.66062
v 0.03894424 0.3567649 0.695955
v 0.216886 0.09490602 1.130382
v 0.357527 0.02706463 0.2617699
v 0.3134038 0.4231787 0.3105781
v 0.01120185 0.08408326 0.66062
v 0.216886 0.09490602 1.130382
v 0.3239032 0.3189434 1.081601
v 0.7915894 0.08408315 0.9999034
v 0.7700256 0.4279418 0.4492842
v 0.03894424 0.3567649 0.695955
v 0.3134038 0.4231787 0.3105781
v 0.7915894 0.08408315 0.9999034
v 0.7810944 0.3641745 0.9287286
v 0.8462418 0.08408326 0.4735613
v 0.7915894 0.08408315 0.9999034
v 0.357527 0.02706463 0.2617699
v 0.216886 0.09490602 1.130382
v 0.357527 0.02706463 0.2617699
v 0.7700256 0.4279418 0.4492842
v 0.3134038 0.4231787 0.3105781
v 0.216886 0.09490602 1.130382
v 0.03894424 0.3567649 0.695955
v 0.3239032 0.3189434 1.081601
v 0.8462418 0.08408326 0.4735613
v 0.7810944 0.3641745 0.9287286
v 0.7700256 0.4279418 0.4492842
v 0.01120185 0.08408326 0.66062
v 0.3134038 0.4231787 0.3105781
v 0.03894424 0.3567649 0.695955
v 0.7915894 0.08408315 0.9999034
v 0.3239032 0.3189434 1.081601
v 0.7810944 0.3641745 0.9287286
v 0.005241618 0.08416636 0.6018655
v 0.003135583 0.6132241 0.4606218
v 0.2658545 0.5938421 0.1917875
v 0.3447031 0.07947071 0.2342252
v 0.005241618 0.08416636 0.6018655
v -0.5705671 0.0841663 0.6703051
v -0.4757647 0.5882344 0.5167511
v 0.003135583 0.6132241 0.4606218
v 0.5544471 -0.06573121 -1.116655
v 0.4427023 0.7873986 -0.862089
v -0.6811241 0.690142 -0.9537743
v -0.8120628 -0.06573122 -1.130382
v 0.8402817 0.08416633 0.4148069
v 0.6605211 0.5919307 0.2864842
v 0.926712 0.5899956 -0.1731124
v 1.162265 0.08416642 -0.1880378
v 0.005241618 0.08416636 0.6018655
v 0.3447031 0.07947071 0.2342252
v 0.5544471 -0.06573121 -1.116655
v -0.2222216 -0.09490621 0.1197652
v -1.162265 0.08416642 -0.1588832
v -0.9723547 0.5844468 -0.1529505
v -0.4757647 0.5882344 0.5167511
v -0.5705671 0.0841663 0.6703051
v 0.4427023 0.7873986 -0.862089
v 0.2658545 0.5938421 0.1917875
v 0.003135583 0.6132241 0.4606218
v -0.4320672 0.6807456 -0.4294614
v 1.162265 0.08416642 -0.1880378
v 0.926712 0.5899956 -0.1731124
v 0.4427023 0.7873986 -0.862089
v 0.5544471 -0.06573121 -1.116655
v 0.3447031 0.07947071 0.2342252
v 0.2658545 0.5938421 0.1917875
v 0.6605211 0.5919307 0.2864842
v 0.8402817 0.08416633 0.4148069
v 0.5544471 -0.06573121 -1.116655
v 0.3447031 0.07947071 0.2342252
v 0.8402817 0.08416633 0.4148069
v 1.162265 0.08416642 -0.1880378
v -0.4757647 0.5882344 0.5167511
v -0.9723547 0.5844468 -0.1529505
v -0.4320672 0.6807456 -0.4294614
v 0.003135583 0.6132241 0.4606218
v 0.03894424 0.3567649 0.695955
v 0.7810944 0.3641745 0.9287286
v 0.3239032 0.3189434 1.081601
v 0.7700256 0.4279418 0.4492842
vt 0.2791862 0.08185273
vt 0.2927933 0.0839166
vt 0.2899305 0.06382287
vt 0.2890466 0.03334481
vt 0.3007763 0.02680713
vt 0.2924296 0.02655494
vt 0.3007763 0.02680713
vt 0.2890466 0.03334481
vt 0.3049927 0.03772032
vt 0.2899305 0.06382287
vt 0.2927933 0.0839166
vt 0.3115371 0.06282008
vt 0.3033525 0.05079368
vt 0.297029 0.04650849
vt 0.2920033 0.05440271
vt 0.2927933 0.0839166
vt 0.3221466 0.08910501
vt 0.3115371 0.06282008
vt 0.2791862 0.08185273
vt 0.2850347 0.09233189
vt 0.2927933 0.0839166
vt 0.297029 0.04650849
vt 0.3033525 0.05079368
vt 0.3049927 0.03772032
vt 0.3033525 0.05079368
vt 0.2920033 0.05440271
vt 0.3115371 0.06282008
vt 0.3115371 0.06282008
vt 0.2920033 0.05440271
vt 0.2899305 0.06382287
vt 0.3420441 0.03497881
vt 0.3330927 0.05423018
vt 0.3445967 0.04798251
vt 0.3223396 0.04438138
vt 0.3420441 0.03497881
vt 0.3289766 0.03356612
vt 0.3445967 0.02229887
vt 0.3384624 0.02527547
vt 0.3420441 0.03497881
vt 0.3289766 0.03356612
vt 0.3316205 0.0285944
vt 0.3248908 0.0229044
vt 0.3420441 0.03497881
vt 0.336498 0.02930462
vt 0.3289766 0.03356612
vt 0.3248908 0.0229044
vt 0.330171 0.02323148
vt 0.3347105 0.01558161
vt 0.3384624 0.02527547
vt 0.3316205 0.0285944
vt 0.336498 0.02930462
vt 0.3347105 0.01558161
vt 0.3353098 0.02118307
vt 0.3445967 0.02229887
vt 0.3330927 0.05423018
vt 0.3420441 0.03497881
vt 0.3223396 0.04438138
vt 0.3420441 0.03497881
vt 0.3384624 0.02527547
vt 0.336498 0.02930462
vt 0.3248908 0.0229044
vt 0.3316205 0.0285944
vt 0.330171 0.02323148
vt 0.3445967 0.02229887
vt 0.3353098 0.02118307
vt 0.3384624 0.02527547
vt 0.3289766 0.03356612
vt 0.336498 0.02930462
vt 0.3316205 0.0285944
vt 0.3347105 0.01558161
vt 0.330171 0.02323148
vt 0.3353098 0.02118307
vt 0.2734527 0.03585136
vt 0.2846337 0.03818554
vt 0.2890466 0.03334481
vt 0.2802628 0.02486977
vt 0.2734527 0.03585136
vt 0.2736914 0.05011377
vt 0.2832056 0.04546413
vt 0.2846337 0.03818554
vt 0.3221466 0.03550458
vt 0.3049927 0.03772032
vt 0.3033525 0.05079368
vt 0.3115371 0.06282008
vt 0.2903891 0.01558161
vt 0.2924296 0.02655494
vt 0.3007763 0.02680713
vt 0.3060154 0.01738769
vt 0.2850347 0.09233189
vt 0.294705 0.09607095
vt 0.3221466 0.08910501
vt 0.2927933 0.0839166
vt 0.2899305 0.06382287
vt 0.2920033 0.05440271
vt 0.2832056 0.04546413
vt 0.2736914 0.05011377
vt 0.3049927 0.03772032
vt 0.2890466 0.03334481
vt 0.2846337 0.03818554
vt 0.297029 0.04650849
vt 0.3060154 0.01738769
vt 0.3007763 0.02680713
vt 0.3049927 0.03772032
vt 0.3221466 0.03550458
vt 0.2802628 0.02486977
vt 0.2890466 0.03334481
vt 0.2924296 0.02655494
vt 0.2903891 0.01558161
vt 0.3221466 0.08910501
vt 0.294705 0.09607095
vt 0.2952313 0.1069213
vt 0.3092457 0.1082235
vt 0.2832056 0.04546413
vt 0.2920033 0.05440271
vt 0.297029 0.04650849
vt 0.2846337 0.03818554
vt 0.3316205 0.0285944
vt 0.3353098 0.02118307
vt 0.330171 0.02323148
vt 0.3384624 0.02527547
vn -0.231611 -0.9586661 0.1652744
vn -0.231611 -0.9586661 0.1652744
vn -0.231611 -0.9586661 0.1652744
vn 0.005139154 0.9999861 -0.001234141
vn 0.005139154 0.9999861 -0.001234141
vn 0.005139154 0.9999861 -0.001234141
vn 0.1150395 0.9734111 0.1980826
vn 0.1150395 0.9734111 0.1980826
vn 0.1150395 0.9734111 0.1980826
vn -0.2081297 -0.9751875 0.07544104
vn -0.2081297 -0.9751875 0.07544104
vn -0.2081297 -0.9751875 0.07544104
vn -0.134313 0.9875818 0.08149946
vn -0.134313 0.9875818 0.08149946
vn -0.134313 0.9875818 0.08149946
vn 0.0002354872 -0.9997252 -0.02344195
vn 0.0002354872 -0.9997252 -0.02344195
vn 0.0002354872 -0.9997252 -0.02344195
vn 0.03940594 -0.9426191 0.3315364
vn 0.03940594 -0.9426191 0.3315364
vn 0.03940594 -0.9426191 0.3315364
vn -0.0909992 0.9939785 0.06103963
vn -0.0909992 0.9939785 0.06103963
vn -0.0909992 0.9939785 0.06103963
vn -0.9236966 0.2313613 -0.3053793
vn -0.9236966 0.2313613 -0.3053793
vn -0.9236966 0.2313613 -0.3053793
vn -0.8690225 0.3342139 -0.3648296
vn -0.8690225 0.3342139 -0.3648296
vn -0.8690225 0.3342139 -0.3648296
vn 0.1109499 -0.9937593 0.01152023
vn 0.1109499 -0.9937593 0.01152023
vn 0.1109499 -0.9937593 0.01152023
vn -0.09124509 -0.9938432 0.06284846
vn -0.09124509 -0.9938432 0.06284846
vn -0.09124509 -0.9938432 0.06284846
vn 0.3952889 0.02278366 -0.9182743
vn 0.3952889 0.02278366 -0.9182743
vn 0.3952889 0.02278366 -0.9182743
vn -0.9156072 0.04132643 0.3999445
vn -0.9156072 0.04132643 0.3999445
vn -0.9156072 0.04132643 0.3999445
vn -0.7553101 -0.003382434 -0.655359
vn -0.7553101 -0.003382434 -0.655359
vn -0.7553101 -0.003382434 -0.655359
vn 0.2220576 0.1049933 0.9693642
vn 0.2220576 0.1049933 0.9693642
vn 0.2220576 0.1049933 0.9693642
vn -0.05107981 0.9896408 0.1341714
vn -0.05107981 0.9896408 0.1341714
vn -0.05107981 0.9896408 0.1341714
vn 0.9926522 0.0633866 0.1030714
vn 0.9926522 0.0633866 0.1030714
vn 0.9926522 0.0633866 0.1030714
vn -0.001138392 -0.9969776 0.07768284
vn -0.001138392 -0.9969776 0.07768284
vn -0.001138392 -0.9969776 0.07768284
vn 0.2860108 0.1485025 -0.9466492
vn 0.2860108 0.1485025 -0.9466492
vn 0.2860108 0.1485025 -0.9466492
vn -0.694979 0.4534719 0.558003
vn -0.694979 0.4534719 0.558003
vn -0.694979 0.4534719 0.558003
vn 0.9761918 0.2168178 0.006300054
vn 0.9761918 0.2168178 0.006300054
vn 0.9761918 0.2168178 0.006300054
vn -0.8171207 0.1550801 -0.5552153
vn -0.8171207 0.1550801 -0.5552153
vn -0.8171207 0.1550801 -0.5552153
vn 0.2853797 0.2460746 0.926286
vn 0.2853797 0.2460746 0.926286
vn 0.2853797 0.2460746 0.926286
vn 0.7185732 0.1742694 0.6732628
vn 0.7185732 0.1742694 0.6732628
vn 0.7185732 0.1742694 0.6732628
vn 0.7185732 0.1742694 0.6732628
vn 0.1069632 0.2639327 0.9585919
vn 0.1069632 0.2639327 0.9585919
vn 0.1069632 0.2639327 0.9585919
vn 0.1069632 0.2639327 0.9585919
vn 0.03077996 0.258377 -0.9655537
vn 0.03077996 0.258377 -0.9655537
vn 0.03077996 0.258377 -0.9655537
vn 0.03077996 0.258377 -0.9655537
vn 0.8090022 0.3815116 0.4471739
vn 0.8090022 0.3815116 0.4471739
vn 0.8090022 0.3815116 0.4471739
vn 0.8090022 0.3815116 0.4471739
vn 0.2591829 -0.9514866 0.165823
vn 0.2591829 -0.9514866 0.165823
vn 0.2591829 -0.9514866 0.165823
vn 0.2591829 -0.9514866 0.165823
vn -0.7720044 0.3011228 0.5597627
vn -0.7720044 0.3011228 0.5597627
vn -0.7720044 0.3011228 0.5597627
vn -0.7720044 0.3011228 0.5597627
vn 0.005586629 0.9911839 0.1323757
vn 0.005586629 0.9911839 0.1323757
vn 0.005586629 0.9911839 0.1323757
vn 0.005586629 0.9911839 0.1323757
vn 0.7929875 0.3070115 -0.5262268
vn 0.7929875 0.3070115 -0.5262268
vn 0.7929875 0.3070115 -0.5262268
vn 0.7929875 0.3070115 -0.5262268
vn -0.2946006 0.08448659 0.9518784
vn -0.2946006 0.08448659 0.9518784
vn -0.2946006 0.08448659 0.9518784
vn -0.2946006 0.08448659 0.9518784
vn 0.05108147 -0.9948242 0.08783823
vn 0.05108147 -0.9948242 0.08783823
vn 0.05108147 -0.9948242 0.08783823
vn 0.05108147 -0.9948242 0.08783823
vn -0.08770312 0.9918035 0.0929184
vn -0.08770312 0.9918035 0.0929184
vn -0.08770312 0.9918035 0.0929184
vn -0.08770312 0.9918035 0.0929184
vn -0.0524708 0.9893458 0.1357996
vn -0.0524708 0.9893458 0.1357996
vn -0.0524708 0.9893458 0.1357996
vn -0.05154568 0.9897969 0.1328354
g stone-flat_0
f 3/3/3 2/2/2 1/1/1
f 6/6/6 5/5/5 4/4/4
f 9/9/9 8/8/8 7/7/7
f 12/12/12 11/11/11 10/10/10
f 15/15/15 14/14/14 13/13/13
f 18/18/18 17/17/17 16/16/16
f 21/21/21 20/20/20 19/19/19
f 24/24/24 23/23/23 22/22/22
f 27/27/27 26/26/26 25/25/25
f 30/30/30 29/29/29 28/28/28
f 33/33/33 32/32/32 31/31/31
f 36/36/36 35/35/35 34/34/34
f 39/39/39 38/38/38 37/37/37
f 42/42/42 41/41/41 40/40/40
f 45/45/45 44/44/44 43/43/43
f 48/48/48 47/47/47 46/46/46
f 51/51/51 50/50/50 49/49/49
f 54/54/54 53/53/53 52/52/52
f 57/57/57 56/56/56 55/55/55
f 60/60/60 59/59/59 58/58/58
f 63/63/63 62/62/62 61/61/61
f 66/66/66 65/65/65 64/64/64
f 69/69/69 68/68/68 67/67/67
f 72/72/72 71/71/71 70/70/70
f 75/75/75 74/74/74 73/73/73
f 76/76/76 75/75/75 73/73/73
f 79/79/79 78/78/78 77/77/77
f 80/80/80 79/79/79 77/77/77
f 83/83/83 82/82/82 81/81/81
f 84/84/84 83/83/83 81/81/81
f 87/87/87 86/86/86 85/85/85
f 88/88/88 87/87/87 85/85/85
f 91/91/91 90/90/90 89/89/89
f 92/92/92 91/91/91 89/89/89
f 95/95/95 94/94/94 93/93/93
f 96/96/96 95/95/95 93/93/93
f 99/99/99 98/98/98 97/97/97
f 100/100/100 99/99/99 97/97/97
f 103/103/103 102/102/102 101/101/101
f 104/104/104 103/103/103 101/101/101
f 107/107/107 106/106/106 105/105/105
f 108/108/108 107/107/107 105/105/105
f 111/111/111 110/110/110 109/109/109
f 112/112/112 111/111/111 109/109/109
f 115/115/115 114/114/114 113/113/113
f 116/116/116 115/115/115 113/113/113
f 119/119/119 118/118/118 117/117/117
f 120/120/120 117/117/117 118/118/118
